<svg xmlns="http://www.w3.org/2000/svg" xmlns:xlink="http://www.w3.org/1999/xlink" width="1500mm" height="700mm" viewBox="0 0 1500 700"><defs><clipPath id="f" clipPathUnits="userSpaceOnUse"><use width="100%" height="100%" xlink:href="#a"/></clipPath><clipPath id="e" clipPathUnits="userSpaceOnUse"><use width="100%" height="100%" xlink:href="#b"/></clipPath><clipPath id="d" clipPathUnits="userSpaceOnUse"><use width="100%" height="100%" xlink:href="#c"/></clipPath></defs><g style="display:inline"><g clip-path="url(#d)" transform="translate(1047.246 -768.49)"><g id="c"><g style="display:inline"><path style="fill:#fff" d="M1.716 15.713c0 7.771 6.3 14.071 14.072 14.071 7.772 0 14.071-6.3 14.071-14.071 0-7.772-6.299-14.072-14.071-14.072-7.772 0-14.072 6.3-14.072 14.072zm-.212 0c0-7.89 6.395-14.285 14.284-14.285 7.889 0 14.284 6.395 14.284 14.285 0 7.889-6.395 14.284-14.284 14.284-7.889 0-14.284-6.394-14.284-14.284z" transform="matrix(6.30054 0 0 6.30054 -997.088 1166.309)"/><path style="fill:#fff" d="M15.866 5.03a.293.293 0 1 1 .585 0 .293.293 0 0 1-.585 0zM16.658 5.087a.292.292 0 1 1 .584 0 .293.293 0 1 1-.584 0zM17.441 5.203a.293.293 0 1 1 .586.002.293.293 0 0 1-.586-.002zM18.217 5.377a.293.293 0 1 1 .585.001.293.293 0 0 1-.585-.001zM18.977 5.608a.293.293 0 1 1 .585 0 .293.293 0 0 1-.585 0zM19.718 5.895a.293.293 0 1 1 .585.001.293.293 0 0 1-.585-.001zM20.435 6.235c0-.162.13-.292.292-.292.162 0 .292.13.292.292 0 .162-.13.292-.292.292a.291.291 0 0 1-.292-.292zM21.124 6.628a.292.292 0 1 1 .586 0 .292.292 0 0 1-.586 0zM21.783 7.071a.293.293 0 1 1 .585 0 .293.293 0 0 1-.585 0zM22.407 7.562a.293.293 0 0 1 .586 0 .293.293 0 0 1-.586 0zM22.993 8.097a.293.293 0 1 1 .585.001.293.293 0 0 1-.585-.001ZM23.539 8.674a.292.292 0 1 1 .292.293.292.292 0 0 1-.292-.293zM24.039 9.291a.292.292 0 1 1 .586 0 .292.292 0 0 1-.586 0ZM24.492 9.945a.293.293 0 1 1 .585-.007.293.293 0 0 1-.585.007zM24.897 10.629a.29.29 0 0 1 .288-.296.292.292 0 1 1-.288.296zM25.249 11.34a.291.291 0 0 1 .288-.296.292.292 0 1 1-.288.296zM25.548 12.076a.29.29 0 0 1 .288-.296.292.292 0 0 1 .297.289.295.295 0 0 1-.289.297.295.295 0 0 1-.296-.29zM25.791 12.832a.293.293 0 1 1 .586-.006.293.293 0 0 1-.586.006zM25.977 13.603a.293.293 0 1 1 .586-.006.293.293 0 0 1-.586.006zM26.106 14.386a.293.293 0 1 1 .586-.006.293.293 0 0 1-.586.006zM26.177 15.177a.292.292 0 1 1 .585-.007.292.292 0 1 1-.585.007zM26.188 15.971a.293.293 0 0 1 .586-.007.291.291 0 0 1-.289.295.292.292 0 0 1-.297-.288zM26.141 16.763a.291.291 0 0 1 .288-.296.292.292 0 1 1 .009.585.293.293 0 0 1-.297-.289zM26.035 17.546a.293.293 0 1 1 .586.002.293.293 0 0 1-.586-.002zM25.871 18.326a.291.291 0 0 1 .289-.295.29.29 0 0 1 .296.289.295.295 0 0 1-.289.297.295.295 0 0 1-.296-.291zM25.651 19.088a.29.29 0 0 1 .288-.295.29.29 0 0 1 .296.289.29.29 0 0 1-.287.296.293.293 0 0 1-.297-.29zM25.374 19.833a.289.289 0 0 1 .288-.295.29.29 0 0 1 .296.289.29.29 0 0 1-.287.295.293.293 0 0 1-.297-.289zM24.658 21.25a.293.293 0 0 1 .586-.009.294.294 0 0 1-.586.009zM24.224 21.914a.293.293 0 1 1 .586-.008.293.293 0 0 1-.586.008zM23.775 22.676a.293.293 0 1 1 .52-.27.293.293 0 0 1-.52.27zM23.214 23.137a.291.291 0 0 1 .289-.295.291.291 0 0 1 .296.289.294.294 0 0 1-.289.296.295.295 0 0 1-.296-.29zM22.644 23.689a.292.292 0 1 1 .584-.006.29.29 0 0 1-.288.296.293.293 0 0 1-.296-.29zM22.098 24.375a.292.292 0 1 1 .41.048.29.29 0 0 1-.41-.048zM21.389 24.66a.292.292 0 1 1 .585-.007.29.29 0 0 1-.289.295.292.292 0 0 1-.296-.288zM20.725 25.16a.292.292 0 1 1 .557-.181.293.293 0 0 1-.557.181zM20.052 25.27a.293.293 0 0 1 .406-.083.291.291 0 0 1 .082.405.294.294 0 0 1-.406.083.291.291 0 0 1-.082-.405zM19.321 25.577a.29.29 0 0 1 .405-.082.293.293 0 0 1-.324.488.294.294 0 0 1-.081-.406zM18.567 25.83a.292.292 0 1 1 .49.322.292.292 0 0 1-.49-.322zM13.195 5.271a.293.293 0 1 1 .585 0 .293.293 0 0 1-.585 0zM12.427 5.469a.292.292 0 1 1 .584 0 .292.292 0 1 1-.584 0zM11.674 5.724a.292.292 0 1 1 .584 0 .292.292 0 0 1-.584 0zM10.943 6.034a.292.292 0 1 1 .584 0 .292.292 0 0 1-.584 0zM10.238 6.397a.292.292 0 1 1 .584-.002.292.292 0 0 1-.584.002zM9.56 6.812a.293.293 0 1 1 .585 0 .293.293 0 0 1-.585 0ZM8.917 7.275a.291.291 0 1 1 .584 0 .292.292 0 0 1-.584 0zM8.307 7.785a.293.293 0 1 1 .585.001.293.293 0 0 1-.585-.001zM7.739 8.338a.293.293 0 1 1 .292.293.292.292 0 0 1-.292-.293ZM7.211 8.933a.293.293 0 1 1 .586 0 .293.293 0 0 1-.586 0zM6.73 9.565a.293.293 0 1 1 .585 0 .293.293 0 0 1-.585 0zM6.298 10.23a.292.292 0 1 1 .585 0 .292.292 0 1 1-.585 0zM5.916 10.926a.292.292 0 1 1 .584-.002.292.292 0 0 1-.584.002zM5.586 11.648a.293.293 0 0 1 .586 0 .292.292 0 0 1-.586 0zM5.311 12.393a.292.292 0 1 1 .584 0 .292.292 0 0 1-.584 0zM5.092 13.155a.292.292 0 1 1 .585 0 .293.293 0 1 1-.585 0zM4.931 13.933a.292.292 0 1 1 .584-.002.292.292 0 0 1-.584.002zM4.826 14.719a.293.293 0 1 1 .585.001.293.293 0 0 1-.585-.001zM4.78 15.512a.293.293 0 1 1 .586.002.293.293 0 0 1-.586-.002zM4.794 16.305a.293.293 0 1 1 .585.001.293.293 0 0 1-.585-.001zM4.866 17.096a.293.293 0 1 1 .586.002.293.293 0 0 1-.586-.002zM4.997 17.879a.293.293 0 1 1 .586 0 .293.293 0 0 1-.586 0zM5.186 18.651a.293.293 0 0 1 .585 0 .293.293 0 0 1-.585 0zM5.431 19.405a.293.293 0 1 1 .584 0 .293.293 0 0 1-.584 0zM6.085 20.851a.292.292 0 1 1 .585 0 .292.292 0 1 1-.585 0zM6.491 21.534a.29.29 0 0 1 .292-.292.291.291 0 1 1 0 .584.293.293 0 0 1-.292-.292ZM6.945 22.183a.293.293 0 1 1 .586.002.293.293 0 0 1-.586-.002zM7.448 22.804a.293.293 0 1 1 .586-.008.293.293 0 0 1-.586.008zM7.994 23.379a.293.293 0 1 1 .587-.009.293.293 0 0 1-.587.009ZM8.582 23.913a.291.291 0 0 1 .288-.297.293.293 0 0 1 .008.586.295.295 0 0 1-.296-.289ZM9.261 24.567a.293.293 0 1 1 .478-.339.293.293 0 0 1-.478.339zM9.888 24.731a.292.292 0 1 1 .544.216.292.292 0 0 1-.544-.216zM10.558 25.233a.293.293 0 1 1 .586-.004.293.293 0 0 1-.586.004zM11.297 25.461a.293.293 0 1 1 .543.217.293.293 0 0 1-.543-.217ZM12.038 25.745a.29.29 0 0 1 .38-.162.292.292 0 1 1-.38.162zM15.458 5.449c-.041-.154-.156-.272-.369-.175-.679.278-1.377.699-1.83 1.305-.544.699-.41 1.705-.215 2.497.329 1.048 1.521 1.808 1.357 3.051h.071c.37-.391.329-.987.226-1.5-.082-.37-.442-.657-.421-1.037-.483-.596-.853-1.428-.441-2.168.38-.688 1.068-1.018 1.767-1.212-.125-.247-.063-.494-.145-.761Zm2.537 2.857c-.482-.472-.874-.997-1.376-1.48-.349-.268-.843-.421-1.284-.246-.678.124-1.181.729-1.376 1.355-.062.709.379 1.408.955 1.726.503-.225.699-.842 1.265-.985a.393.393 0 0 1 .144.277c.051.144.164.216.317.216.381-.237.936-.289 1.336-.052.144-.031.484.104.515-.144-.268-.39-.761-.473-1.13-.739a.308.308 0 0 1 .071-.247c.041.021.062-.031.103-.021.103.042.155.155.195.247.091.01.184.175.265.093zM16.3 9.59c-.071-.257-.041-.555-.328-.637-.288.298-.647.586-.688 1.027.083.144.01.411.174.452.256-.287.75-.411.842-.842zm1.553-.267a.686.686 0 0 0-.597-.123c-.174.185-.431.226-.617.339-.02.524-.575.76-.914 1.088-.277.473.083 1.12-.441 1.428.01.104.083.165.123.247.432.288.956.473 1.511.318.092-.03.226-.133.216-.247-.483-.236-.174-.75-.37-1.129.133-.155.349.072.564 0 .144-.073.082-.185.082-.298.031-.072.021-.175.124-.195l-.174-.124c.051-.164.154.021.246-.071 0-.175.216-.134.298-.175-.021-.35-.073-.72-.051-1.058zm-2.077-3.38c.071.698.946.478 1.169 1.023l.059.05 1.238 1.392c-.03.298.37.4.473.668-.155.185-.463.257-.668.215-.206.267.009.586-.021.894.196.411-.39.236-.349.616-.277.124.041.463-.268.565-.165.051-.442-.031-.451.215.071.237-.073.586.276.667.073.103.082.217.021.319-.585.411-1.386.216-1.94-.123-.125-.051-.227-.165-.329-.268-.083-.308.287-.257.4-.473v-.831c-.257-.135-.134-.401-.196-.596-.102-.073-.021-.133-.081-.216l-.339-.152c-.125.072.01.175-.031.277.236.626.431 1.551-.072 2.116-.112.103-.227.185-.391.145-.062-.237-.039-.514-.051-.761a1.248 1.248 0 0 0-.072-.421c-.915-1.254-1.911-2.805-1.284-4.366.359-.874 1.232-1.223 1.952-1.747.245-.124.503-.349.76-.092z" transform="matrix(6.30054 0 0 6.30054 -997.088 1166.309)"/><path style="fill:#fff" d="M17.41 7.915c-.124.124-.226.237-.4.298-.134-.123-.042-.37 0-.523.163-.114.349.05.4.225zM9.644 9.076l-.246-.37c-.176.021-.167.195-.208.318.391.413.464.956.7 1.429h.071c.052-.524-.164-.945-.317-1.377Zm-.175.812c-.072-.422-.411-.771-.689-1.059.083.648.062 1.398.585 1.891.093 0 .195.113.278 0 .051-.319-.082-.565-.174-.832Zm12.134.832c-.042-.102-.125-.102-.207-.164-.154.041-.113.216-.123.338.092.042.184.103.297.073zm-10.193.894c-.266-.349-.636-.709-.986-.915-.083.575.339.986.647 1.428.175.185.421.277.637.298-.01-.052.021-.134-.021-.175-.01-.215-.154-.441-.277-.636zm-1.5.02c-.083-.36-.533-.257-.791-.421l-.021.052c.493.677 1.13 1.355 2.023 1.212-.154-.781-.657.308-.914-.37-.011-.124.01-.236.021-.35-.133.041-.226-.051-.318-.123zm11.116-.02c-.093-.195-.35-.062-.411-.277-.165.112.124.339-.155.42-.143-.041-.214-.329-.39-.215-.226.206 0 .473 0 .708-.083.35-.339-.009-.441 0-.083.166-.083.38-.083.545l.124.021c.144.02.092-.145.081-.216.053-.123.145.021.196.021.185-.144.227-.359.268-.565.072-.071.174.021.174.104.133-.031.298-.093.35-.247.165.082.319-.165.462-.083-.021.113-.175.186-.247.226.031.042.072.042.104.073-.093.277-.598-.042-.669.319.092.021.237-.031.267.082-.062.062-.144.082-.246.072-.104.062-.267.124-.267.268.144.041.267.236.472.195.153-.083-.093-.124-.052-.216.205-.379.514.288.74-.154.113-.267-.339.041-.246-.267.204-.216.584-.062.738-.349l-.051-.042c-.41-.113.164-.298-.021-.523-.245-.198-.481.059-.697.1zm-7.294 1.746c-.309-.565-.945-1.089-1.583-1.253.072.349.288.647.524.914.186.216.298-.288.565-.154.256.092.226.38.226.564.094-.009.216.062.268-.071zm5.373-.863c-.041-.144-.205-.041-.195.052.062-.021.185.041.195-.052zm-.915.648c-.143-.052-.143-.237-.246-.35-.247.072-.256.39-.494.514l-.195-.124c-.112.186-.308.36-.195.596.134.052.134-.195.248-.123.257.01.431-.186.564-.39.083.031.042.112.052.164l.226-.071c.041.02.01.071.021.103l-.35.174c.032.318-.432.051-.565.288l.154.174-.051.052c-.073.021-.104-.031-.154-.072-.123-.021-.338-.082-.411.051.031.052.134.083.092.165l-.298.031.206.195c.298.174.205-.185.37-.298.153-.03.226.143.339.195.175-.031.328.185.472 0-.071-.112-.236-.123-.247-.288.216-.318.484.134.739-.051.114-.226-.194-.288-.246-.441l.339-.247c.071-.082.082-.257-.021-.329-.111-.175-.246.02-.349.082zm1.018-.248c-.042-.041-.083-.103-.154-.082-.042.112.082.102.123.154.031-.019.031-.051.031-.072zm-6.853.319c-.463-.421-1.212-.339-1.829-.278.483.401 1.244.576 1.829.278zm3.082.565c-.328-.503-.863-.698-1.357-.884-.029.206.257.339.392.515.288.215.585.482.915.544zm5.055-.596c-.112-.102-.38-.215-.472 0 .01.114-.021.154.02.247.124.093.329.165.453 0v-.247zm-.719.031c-.093-.01-.113.083-.123.144.062.071.072.277.195.226a.64.64 0 0 1-.072-.37zm-.843.247a.349.349 0 0 0-.072-.227l-.123.175zm.669.144c-.073-.093-.134-.236-.298-.195-.114.061-.124.205-.144.318 0 .185.205.103.318.124.071-.073.165-.135.124-.247zm-5.672.123c-.544-.237-1.356-.185-1.87.051.062.052.144.072.215.103.524.123 1.222.318 1.654-.083v-.071Zm4.963.226c-.062-.103.021-.257-.083-.349-.083-.021-.124.051-.195.072 0 .123.05.215.071.329.074-.021.166.04.207-.052zm-2.097-.102c-.01-.082-.093-.134-.103-.216-.123-.021-.165.154-.246.195.071.072.226-.042.268.092zm-2.25.153c-.051-.051-.134-.021-.196-.031v.051c.063-.009.145.021.196-.02zm.843.319-.071-.072c-.586-.041-1.255-.082-1.707.216.463.092.996.144 1.48.051.114-.041.257-.083.298-.195zM9.048 8.87c.183-.092.122-.37.349-.37.584.729.78 1.654.78 2.589.04.011.051-.03.082-.041.02-.185-.082-.431.092-.575.76.524 1.438 1.294 1.726 2.126l.072.021c-.05-.225-.185-.523-.164-.792.884.391 1.776.998 2.362 1.85.104.031.227.164.319.082-.33-.309-.709-.626-.884-1.038.689.062 1.295.493 1.85.956.185 0 .421-.123.586.031.173-.062.276-.4.522-.318l.093.165c.206-.155.268-.771.616-.535.154-.144.35-.298.575-.329.052.082.072.185.165.246.154-.112.329-.051.422-.267.011-.144.165-.256.277-.349.236-.124.359.236.514.329.061-.205.051-.503.297-.575.05.01.082.072.123.103.082-.206-.102-.585.195-.74.062-.041.143-.021.227-.021.092.03.071.185.194.144-.061-.144.093-.215.145-.318.297.072.359-.237.524-.401-.032-.195.123-.339.267-.441.195 0 .236-.544.441-.196.052.021.073-.02.103-.051-.153-.175-.317-.349-.247-.616.134-.195.35-.051.463-.175-.052-.206-.217-.473-.042-.688.093-.093.247-.083.37-.052.094.072.175.124.247.226.145-.051.103-.246.268-.298.174.031.257.226.349.349.021.155-.061.268-.03.422.195.062.175.236.175.411-.063.226-.33.246-.422.4.092.021.216.031.247.144-.011.031.021.082-.021.103h-.051c.02-.062-.052-.114-.103-.124-.093-.031-.258.061-.288-.072.071-.308.801-.39.391-.698-.165-.175.112-.371-.021-.617-.051-.071-.133-.174-.226-.194-.123.092-.062.247-.144.349-.206.052-.299-.349-.524-.349-.144-.062-.124.113-.216.153-.01.278.339.545.072.782-.164.061-.287-.226-.421-.021-.104.328.503.514.144.812-.134.021-.165-.288-.287-.071.06.215.133.472.317.596.083-.051.052-.165.021-.227.185.062.216-.185.299-.298l.019-.298c.093-.01.022.144.104.175.134-.154.155-.391.174-.566.042.032.011.104.073.124.113 0 .176-.103.268-.144.01.288-.371.298-.371.586l.124.103c-.124.082-.308.205-.339.37l.072.124c-.123.02-.206.133-.298.215 0 .051.011.103.052.124.205-.031.431-.103.565-.267.011-.083-.042-.155-.021-.247.112-.134.298-.093.442-.175v.051c-.073.144-.33 0-.371.226.154.134.01.288-.123.37-.257.083-.565.093-.719.37.093.113-.062.175-.093.267l-.051.052c.051.133.267.174.144.338-.103.278-.648.103-.494.545-.083.154-.236.124-.338.227l-.278-.073c-.051.073.133.298-.093.267-.072.196-.134.38-.349.473-.473-.021-.679.441-1.162.411-.257.02-.39.318-.657.154-.134.195-.257-.062-.421.021.092.134-.062.308-.154.4-.216.072-.402.011-.585-.082-.073.278-.36.103-.524.174-.216-.021-.431-.277-.637-.123-.124.174-.38.092-.544.071-.257-.195-.555.073-.863.051-.524.011-1.079.032-1.449-.298.041-.052.195-.072.195-.195-.626-.051-1.388-.03-1.83-.493.093-.021.165-.092.247-.144-.699-.072-1.388-.287-1.87-.77.38-.083.791-.021 1.11-.145-1.141.155-1.952-.904-2.518-1.725.257-.124.442.123.667.071-.041-.143-.267-.257-.317-.421-.073-.215-.237-.4-.206-.658-.142-.081-.018-.267-.09-.369-.031-.359-.144-.709-.103-1.069.144.062.277.248.422.37Z" transform="matrix(6.30054 0 0 6.30054 -997.088 1166.309)"/><path style="fill:#fff" d="M17.749 9.445c-.122-.082-.298.032-.421.093 0 .082.082.041.123.051.092.061.124-.124.206-.021l-.103.215c-.185-.051-.421-.164-.514-.246.246.002.524-.337.709-.092ZM6.443 19.636c.026.158-.052.428.189.187.007-.066.012-.128.016-.188l.253.001c0 .067 0 .129-.003.187l.052.072c.062.062.133.01.174-.052-.098-.077-.095-.143-.062-.206h.503c-.009.08.003.177.072.207v-.072c-.006-.035.011-.104-.012-.134h.187c-.007.062.013.148 0 .207h.071c-.007-.065.006-.14 0-.208l.389.001c0 .082.022.172.033.237h.051a.93.93 0 0 0 .023-.237h.173v.258l.072-.052c-.024-.064-.021-.136-.02-.208h.181l.016.237.02-.237h.148c-.008.115.003.229.098.288-.019-.104.016-.195.046-.288h.559c-.019.118-.093.235.063.258a.554.554 0 0 0 .098-.258h.241c.028.122.013.263.154.237a.346.346 0 0 1-.025-.237h.341c-.04.146-.101.276.084.382.082.113.267-.114.267.103-.154.112-.34-.021-.494.021l-4.089-.052c-.044-.139-.027-.301-.029-.453Zm5.565 0a.256.256 0 0 1-.001.062.183.183 0 0 0 .141-.062h.406a.304.304 0 0 0 .069.062c.041.145-.124.092-.175.175-.132-.031-.308.061-.39-.072-.114-.042-.165.144-.226 0a.406.406 0 0 1 .005-.166h.171zm1.228 0c.087.112-.081.291.146.309.133.032.257.062.35-.021l-.297-.051c-.032-.051-.052-.164.03-.196.005-.013.008-.027.012-.042h4.014c.048.072.088.146.115.207a.692.692 0 0 1 .052-.207h.32c.006.043.028.09.07.135.113.022.16-.047.197-.134h.44c.055.131.126.262-.001.382.309.051.657-.011.915.154-.165.092-.381.071-.587.071l-2.444-.051c-.133-.163-.451.01-.617-.144a.35.35 0 0 1-.348.041l-.124-.124c-.154.339-.472-.031-.688.226-1.048-.061-1.953.021-2.929-.071.155-.278.494-.103.781-.155.023-.103.115-.217.175-.329zm6.038 0c.042.087.06.193.201.135a.294.294 0 0 1-.009-.135h.132c.002.09.008.184 0 .288-.237-.134-.75.309-.709-.206.03.012.041-.031.071-.041l-.013-.042zm1.105 0c.059.054.038.231.154.135a.208.208 0 0 0 .055-.136l.074.001c.01.071.039.135.097.187.021.112-.021.206-.124.246.052.052.133.103.195.052.126-.142.06-.309.044-.484h.301c.038.099.048.199-.026.288-.022.062.031.094.051.145.144-.01.112-.154.154-.246h.041c.052.133-.061.288-.164.369-.185.206-.43.01-.668.072l-.072-.072c.072-.112.226-.144.093-.297-.073.144-.309.134-.422.03.011-.061.032-.143.104-.153.007-.042.016-.088.02-.136zm1.881 0c.008.115.087.272-.002.36.022.042.062.114.124.093.032-.135.04-.3.022-.453h.625l-.031.433h.051c.03-.161.061-.312-.016-.433h.489l-.03.412h.051l-.021-.412h.247v.433c.03-.13.03-.292.001-.433h.462a.544.544 0 0 1-.022.115c.184.072.03.215.02.318.052.03.124.083.176.021a1.22 1.22 0 0 0 .053-.453h.238c.002.183.024.358.109.505.103.051.082-.082.124-.123-.085-.138.014-.252.037-.381h.115c.004.128-.03.271.012.382.009.113.009.235-.093.277l-3.554-.032c.042-.123-.021-.411.174-.441.02.062-.041.164.051.195.083.03.063-.062.093-.094-.077-.099-.03-.198.03-.288h.465zm.348.36h.021l-.021-.245zm.689.052c-.011-.083.021-.185-.021-.247l-.031.247zm-5.199-.03v-.094h-.03zm-.349 0 .175-.022-.124-.051zm.718-.022c-.062-.04-.143-.019-.194-.051v.051c.072.011.133.073.194 0zm-4.099-.051c-.061-.092-.194-.03-.288-.051v.051c.094 0 .207.114.288 0zm3.011-.021c-.041-.051-.174-.02-.124.072h.072c.042.011.062-.04.052-.072z" transform="matrix(6.30054 0 0 6.30054 -997.088 1166.309)"/><path style="fill:#fff" d="M6.877 18.874a.154.154 0 0 0-.029.034c-.051.082-.031.174.083.174-.039.152-.032.365-.029.554h-.253c.016-.271.007-.493.004-.762zm2.694 0c-.083.021-.209-.001-.174.137.246.102.04.399.267.513a.194.194 0 0 1 .008.112h-.559c.035-.109.067-.22.006-.358-.092-.021-.083.081-.124.123-.004.067-.021.152-.027.235H8.82l.001-.009-.041-.072.005.082h-.181a.451.451 0 0 0-.029-.205h-.021v.205h-.173a.688.688 0 0 0-.023-.184c-.062.044-.081.111-.083.184h-.389a.207.207 0 0 0-.021-.082c-.032.015-.046.044-.051.081l-.187.001c-.01-.014-.027-.019-.06-.009v.009h-.504c.05-.097.17-.191.114-.328-.104-.134-.031-.226 0-.369a.14.14 0 0 0-.03-.065h2.424zm.351 0c.064.035.159.03.214.085a.328.328 0 0 1 .107-.084l.218-.001.014.014.04-.014h.082c-.096.15.149.355-.049.506.037.088.02.174-.001.256h-.341c.056-.231.308-.414.199-.656-.112-.01-.071.133-.174.174-.268-.091-.165.226-.298.319.093.019.126.087.144.163h-.244c.027-.199-.026-.414-.026-.605-.079-.052-.041-.104 0-.157zm1.236 0c.014.028.043.041.108.014a.035.035 0 0 0 .013-.014h.14c.064.047.136.079-.009.157.124.257.206-.225.33.033.062 0 .133-.012.143-.083a.327.327 0 0 1-.06-.106h.132c.004.124.024.228.226.208a.271.271 0 0 1 .021-.208h.386l-.067.085c.299.225-.132.465.034.677h-.406c.055-.058.089-.142.125-.205-.071-.102-.133-.215-.266-.225-.155.126-.013.277.001.431h-.171c.04-.193.154-.386-.077-.482-.114.062.031.247-.124.277a.763.763 0 0 0-.318-.277c-.123.062-.082.186-.123.277-.165.042-.154-.368-.298-.123.01.072 0 .144-.051.195.041-.195-.298-.462 0-.545.093.031-.021.206.123.174.131-.072.102-.17.084-.259h.104zm1.981 0c-.001.021-.001.044-.003.065.379.245-.215.369.052.657a.149.149 0 0 1 .048.04h-.417c.07-.134.097-.267-.093-.379 0-.128.131-.254.035-.383zm.6 0a.17.17 0 0 1-.06.085c.1.039.153-.025.211-.085h.99l.033.034.034-.034h.517c-.026.031-.023.05-.006.085h.124c.025-.066-.038-.065-.079-.085h2.022c.059.045.129.084.173.137.01-.046.021-.091.03-.137h.308c.05.069.076.124-.061.157.337.148-.031.368.003.605h-.32c.034-.091.071-.18.071-.287-.021-.062-.092-.103-.154-.123-.103.082-.134.195-.165.297.029.035.055.074.081.112h-4.014c.041-.168.036-.366-.134-.452-.083-.082.02-.143.071-.154.125-.042.064-.101.033-.157h.292zm5.536 0c.074.14.08.367.25.189l.014-.189h.125l.005.014c.01.092-.133.205.031.267.225.052.359-.298.616-.174l.013-.106h.106c-.054.244.023.532-.068.753a.044.044 0 0 1 .011.008l-.093.001c.012-.143-.004-.296-.143-.358-.093.123-.268.123-.319.276-.123-.071.031-.318-.174-.276a.773.773 0 0 0-.051.358h-.132c.019-.142.092-.277-.062-.379l-.196.298a.168.168 0 0 1 .066.082h-.326c-.035-.116-.064-.217-.11-.328-.092-.01-.133.092-.195.144a.487.487 0 0 0 .042.184h-.44c.031-.071.054-.154.1-.205-.082-.072-.154-.143-.154-.247a.544.544 0 0 0 .103-.121.344.344 0 0 1 0-.189h.981zm1.482 0c.039.066.088.096.176.106.046-.021.055-.075.081-.106h.076c.112.142.253.208.459.208a.51.51 0 0 1-.071.318c-.04-.144-.165-.061-.277-.123-.051-.052-.113.03-.175.051.037.095.109.2.15.306l-.301.001a.56.56 0 0 1 .007-.163c-.123-.154.154-.431-.144-.462-.038-.038-.093-.077-.086-.137h.105zm.829 0c-.053.06-.087.099-.091 0zm3.518 0c-.006.122-.025.246-.031.353-.031.062.104.205-.051.247h-.051c-.104-.206.133-.493-.195-.565l-.072.072c.017.21-.009.44-.006.656h-.238c-.003-.108-.015-.213-.022-.307.031-.051.092-.073.145-.103-.021-.114-.154-.175-.248-.216-.165.156-.08.408-.1.626h-.462l-.001-.009v.009h-.247v-.009.009h-.489a.015.015 0 0 0-.004-.009v.009h-.625a1.038 1.038 0 0 0-.022-.132c-.107.008-.128.062-.122.133h-.464c.103-.155.251-.287-.071-.358v-.094c.082-.082.194.165.267-.03.042-.164-.226-.062-.175-.246.091-.019.23.044.283-.034h3.001zm-18.819.762-.001-.082c.111-.046.147.004.16.082zm14.303 0c.011-.177-.142-.385.027-.554.072-.031.124.051.145.102-.05.121-.118.297-.097.452zm4.38 0a.28.28 0 0 0 .004-.082h.102a.368.368 0 0 1 .009.082zm-7.713-.625-.072-.052v.104c.031-.011.072-.021.072-.052zm1.48.122c.022-.091.185-.051.175-.153-.093-.083-.175.083-.175.153zm3.627.145c-.01-.083 0-.166-.072-.215-.041.091.031.163 0 .245zm-5.476-.051c0-.062.011-.196-.092-.144-.052.083-.03.216.073.247.039-.021.008-.062.019-.103zm7.181-.042c-.021-.02-.031-.041-.051-.03v.072h.021c.01-.011.03-.021.03-.042zm-9.595-.102.051-.052c-.102.033-.257-.276-.319-.02zm.226 0c-.031.01-.041-.01-.052-.019v.143c.042-.032.052-.074.052-.124zm-5.548-.144c-.083.02-.072.153-.031.215.051-.051.021-.143.031-.215Zm-1.756.041c-.011-.041-.062-.01-.094-.021v.104h.02c.033-.032.104-.011.074-.083Zm3.995.051c-.03-.041-.103-.01-.143-.02v.053c.041-.012.113.019.143-.033zm-2.075.247c0-.042.02-.094-.021-.124v.154zm-1.994.195c.142 0 .034-.122.019-.174l.001-.021c-.004.002-.004.012-.001.021Zm.813.154.031-.226h-.052v.226z" transform="matrix(6.30054 0 0 6.30054 -997.088 1166.309)"/><path style="fill:#fff" d="M7.109 18.112a.387.387 0 0 1-.015.087c.052.143.217.021.299.092.065-.038.048-.138.089-.181l.259.001c-.009.071-.004.143.053.21.206.073.453.063.689.094.123-.054.13-.179.122-.304l.246.001a.61.61 0 0 0 .125.375c.154.042.206-.154.247-.216a.256.256 0 0 0 .143.195l.195.021c0 .154-.309 0-.246.226.103.052.308-.011.298.144a.161.161 0 0 1-.042.018H7.148c-.062-.076-.2-.06-.271.001l-.224-.001v-.14c-.134-.185-.247.267-.37 0 .03-.093-.072-.278.103-.268.04-.021.01-.062.021-.102-.041-.042-.144-.031-.123-.123.192-.057.479.038.537-.13zm.214 0-.002.004-.004-.004Zm1.9 0v.055c-.008-.017-.014-.035-.021-.055Zm.979 0a.254.254 0 0 0 .027.087c-.011.042-.062.009-.093.021l-.033-.108zm.431 0c-.012.043-.02.089-.034.128l-.128-.128zm2.066 0a.18.18 0 0 0 .073 0h.448c.039.027.09.047.122.055a.272.272 0 0 0 .089-.057l.348.001.098.128c-.217.12-.075.447-.137.632l-.293.001c-.023-.04-.031-.08.06-.11.031-.206-.02-.38-.195-.493-.204.139-.166.395-.172.602l-.379.001a.12.12 0 0 0-.015-.018.364.364 0 0 0 .226-.215c.01-.175-.165-.319-.278-.4-.164.082-.082.318-.174.451l.083.072c.01-.021.021-.03.041-.03l.03.03-.086.11h-.386c.074-.143.242-.23.154-.429l-.124.093c-.082-.103.062-.371-.174-.318-.103.06-.062.235-.175.246-.021-.062-.041-.154-.123-.174-.093.041 0 .257-.176.174-.051-.062.011-.165-.051-.225l-.165.102-.122-.143-.082.165c-.093-.021-.134-.144-.144-.247-.052.011-.082.073-.124.104 0 .081.071.184-.021.246h-.031c.024-.117-.067-.229-.116-.354zm1.668 0c.041.034.089.053.125.036v-.031l-.004-.004h.508a.382.382 0 0 0-.104.128c.101.066.127-.059.194-.128h.29c.049.049.096.106.154.128l.109-.128h.237c.055.043.106.1.147.128l.136-.128h.275c.024.062.094.17.185.179.032-.087-.077-.138-.147-.179h.607c-.191.129-.06.471-.07.672.041-.011.103.021.124-.021-.021-.123.061-.298-.073-.371-.078-.104.013-.237.098-.283l.273.001-.001.004c.381.145-.103.328-.021.545-.01.098.045.159.115.211l-2.022.001a.058.058 0 0 1-.025-.018l-.015.017-.517.001.019-.018c-.032-.05-.062.011-.104 0l.019.018h-.99a.534.534 0 0 1 .067-.059c.398-.145-.12-.473.038-.703h.373zm3.658 0c.09.051.275.179.25-.001l.455.001a.06.06 0 0 0-.015.036l.051.051c.041.009.051-.032.092-.032.004-.021-.012-.042-.034-.055h1.391v.036h.051v-.036h.86a.256.256 0 0 1 .024.055l-.247.248c-.062-.042-.01-.164-.123-.174-.012.174-.165.215-.145.4-.051.021-.092-.041-.103-.073-.042-.113.154-.226-.021-.297-.092.062-.123.258-.195.338-.092-.061.103-.287-.103-.287-.103.031.01.227-.144.165-.032-.031-.051-.093-.102-.093l-.145.319c-.133-.082.061-.216-.073-.297-.061.03-.153.093-.153.174l.031.021-.052.052c-.01-.145-.082-.258-.173-.37-.175.102-.042.38-.227.493.045.01.076.045.099.09l-.981-.001c.029-.108.091-.201.051-.357-.051-.062-.103-.185-.195-.153-.072.092-.165.102-.155.225-.104.106-.017.204.041.284l-.308.001c.042-.223.052-.446-.101-.633.051-.051.102-.113.174-.124a.328.328 0 0 1-.052-.004h.277zm3.588 0c-.044.069-.128.017-.186.036-.092.061-.031.216-.154.216a.562.562 0 0 0-.015-.253zm.12 0a.164.164 0 0 0-.008.055c-.042 0-.062-.032-.084-.055zm.765 0a.595.595 0 0 0 .008.477c.021-.01.03-.03.052-.021v-.456h.44v.004c-.041.021-.083.083-.123 0-.021.073-.073.328.051.421.175.021.421.082.565-.051.067-.123.059-.248.034-.375h.464c.013.122-.039.277.046.375.297.092.205-.236.318-.288-.019-.028-.087-.039-.077-.087h.319c.003.055.005.108.005.159-.02.093.031.164.103.216.103 0 .176-.072.298-.042.099.112.113.27.103.429H22.1a.12.12 0 0 0 .016-.038c-.031-.174-.226-.072-.319-.072-.08-.038-.155.047-.21.11h-.091a.941.941 0 0 1 .004-.11c.195-.062.41-.175.616-.155.173-.15.195-.319.173-.497h.209zm1.65 0c-.012.054-.028.101-.06.128l-.051-.042a.578.578 0 0 1-.012-.088zm-14.34.762a.224.224 0 0 0 .052-.089.12.12 0 0 0 .062.089zm.435 0c.101-.059.217-.11.181-.233.082.03.063.102.031.174 0 .017-.007.04.006.059zm.272 0 .115-.038a.187.187 0 0 0-.033.037zm.537 0c-.015-.073-.022-.139.069-.182.033.04.012.134.037.183zm.227 0c.035-.051-.022-.159.089-.14-.037.067.005.107.051.14zm.543 0c-.031-.085-.03-.185.06-.233l.02-.032c.053.074.048.174.052.265zm7.718 0 .006-.089c.056-.019.104.047.119.089zm.79 0 .008-.059c.051-.02.072.021.102.041a.058.058 0 0 1-.004.018zm.323 0 .003-.018c.021-.03.051-.021.083-.021a.212.212 0 0 0 .019.037zm.361 0c.014-.016.032-.023.063-.018l.013.019zm-2.084-.089c.031-.165-.02-.35-.144-.421-.114.092-.297.205-.226.4.102.257.247-.072.37.021zm-4.212-.298v-.072h-.073c-.061.051.053.051.073.072zm2.116-.072v.072h.032v-.072zm-2.116.194c-.01-.102-.082 0-.124 0zm-.175-.02c-.123-.102.041-.277-.051-.369-.083.164-.165.369-.092.564.123.012.092-.133.143-.195zm.37.073c0-.021.01-.052-.021-.073v.103z" transform="matrix(6.30054 0 0 6.30054 -997.088 1166.309)"/><path style="fill:#fff" d="M7.08 17.35c.106.073.175.206.261.254 0 .172.021.354-.018.507l-.007.001c-.195-.145.105-.406-.169-.508-.143.142-.031.322-.038.508h-.288c.016-.048.014-.115-.013-.211-.033-.187.01-.379.009-.551Zm2.16 0-.017.762h-.022c-.065-.221.011-.523-.053-.762Zm.433 0a.349.349 0 0 0-.06.254c.205-.104.348.03.565.051l.123.021c.035.174-.115.282-.099.436l-.099.001-.048-.159-.124.041-.072-.125c-.032.031-.042.072-.052.104-.123.02-.052-.146-.164-.146-.124.031.021.216-.124.195-.082-.205.124-.442-.031-.616l.002-.058h.183zm1.29 0c.158.067.33.116.499.15.42.021.698.267 1.14.175.031-.041.01-.216.144-.175.072.021.062.123.103.175l.955.031c.041-.072.01-.237.154-.207a.415.415 0 0 1 .122.207c.371.143.268-.257.536-.298a.213.213 0 0 1-.035-.058h.121l-.004.027.027-.027h.234c-.018.011-.04.013-.066.006l.052.123c-.031.186-.236.051-.329.125v.071c.781.082 1.468.062 2.321.031-.061-.195-.328-.021-.421-.207-.082-.028-.033-.104-.007-.15h.028l.083.058a.134.134 0 0 0 .026-.058h.175a.085.085 0 0 0-.027.027c.092.174.441.082.339.349.165-.031.441.082.441-.175.052-.011.072.03.103.052-.011.194.216.133.349.143.042-.072.093-.185.196-.195.123.011.041.144.092.195.153-.041.483.133.421-.165.155-.071.123.114.195.165.154.041.401.061.371-.165.051-.01.092 0 .123.041.042.094-.062.114-.072.175.174-.02.288-.205.493-.143.134-.206.34-.021.523-.103a.812.812 0 0 1 .312-.202h1.372a.192.192 0 0 0-.039.027l-.041.698c-.071.027-.205-.054-.239.037h-.092a.135.135 0 0 0-.019-.016.05.05 0 0 1-.009.016h-.355a.428.428 0 0 0-.13-.211c-.087.064-.038.142-.002.21l-.86.001v-.016c-.009-.01-.031-.031-.051-.021v.037h-1.391c-.03-.018-.071-.022-.093 0h-.455l-.002-.016h-.278a.278.278 0 0 1 .03.015l-.276.001c-.125-.018-.301-.083-.317-.001l-.273.001a.102.102 0 0 1 .046-.016c-.011-.01-.021-.031-.042-.021a.249.249 0 0 0-.084.037h-.607a.186.186 0 0 1-.048-.037c0 .008.003.021.01.037h-.275l.039-.037-.073-.052c-.355.062-.865-.122-1.129.088h-.508c-.05-.051-.102-.118-.191-.088a.25.25 0 0 0 .07.088h-.371a.303.303 0 0 1 .106-.088h-.39l.067.088h-.348c.023-.025.039-.054.034-.088-.103-.01-.216.021-.298-.03-.028.045.006.086.053.118h-.448a.137.137 0 0 0 .098-.088h-.268a.128.128 0 0 0 .097.088h-1.97a.397.397 0 0 1-.028-.118c-.038.026-.056.07-.068.118h-.162l-.139-.138c.071-.104.205-.227.215-.37-.052-.125-.144-.042-.215-.022a.841.841 0 0 0-.344-.232h.974zm1.565 0a.969.969 0 0 1-.029.109.164.164 0 0 1-.143-.082.586.586 0 0 1 .006-.027zm.611 0a.138.138 0 0 1-.044.078c-.1.028-.134-.019-.16-.078zm.613 0c-.015.042-.048.072-.124.078a.185.185 0 0 1-.067-.078zm.613 0 .003.006c0 .072-.081.083-.143.072a1.816 1.816 0 0 0-.032-.078zm1.95 0c.065.051.137.11.025.181-.112.104-.153-.072-.163-.153a.39.39 0 0 1-.097-.027h.235zm.613 0c-.003.002-.007.005-.011.006-.002-.002-.005-.005-.008-.006zm.474 0a.467.467 0 0 1-.147.15l-.051-.041-.019-.109Zm.603 0a.38.38 0 0 1-.134.15c-.076-.025-.077-.085-.072-.15zm.713 0a.178.178 0 0 1-.056.078c-.227.182-.256.08-.264-.078zm.486 0c.003.07.004.14-.068.181-.052.021-.144.092-.175 0a.295.295 0 0 0 .038-.181zm.867 0c-.05.033-.084.025-.106 0zm4.603 0c-.13.206-.095.498-.078.762h-.319l.005-.016c.032-.062.092-.052.154-.052v-.05c-.042.04-.123.04-.154-.02l.154-.125c-.246-.115-.25.102-.289.263h-.123c-.013-.284.226-.444.412-.612.021-.256-.206.113-.277-.123l-1.726-.021c-.01.052-.092.103-.021.144l.247-.041c.235.021-.052.258.143.339l-.246.176h.349v-.227c.052-.03.082-.134.175-.092.264.111-.126.274-.083.456l-.44.001v-.016h-.052l-.008.016h-.208c-.028-.234-.126-.484-.05-.735a.104.104 0 0 0-.029-.027Zm-17.192.762c.017-.017.042-.025.085-.016.031-.01.083.021.103-.021-.021-.113-.338-.082-.206-.278.083-.051.185-.102.277-.051.079.112.017.238 0 .364zm1.123 0c-.012-.195-.06-.382.247-.263 0 .089-.005.177-.001.263zm6.482 0a.138.138 0 0 1 .052-.037c.101-.076.17-.029.237.037zm.552 0 .014-.016c.074-.074.152-.041.223.016zm7.887 0c-.026-.128-.07-.257-.075-.386.123-.092.215-.36.441-.227 0 .166.154.319-.031.454.09.029.12.088.128.159zm-1.657-.489c-.073-.041-.165-.01-.247-.019.051.03.103.163.195.123.031-.031.062-.052.052-.104zm-.32.084c-.03-.052-.081-.052-.122-.083-.041.083-.195.052-.154.175.093-.032.175-.082.276-.092zm2.168.215c-.01-.052.022-.114-.02-.144l-.103.092.072.083a.054.054 0 0 0 .051-.031zm-2.886 0c0-.062-.071-.072-.124-.072v.072c.011.062.095.102.124.072zm-.298.072c-.011-.052-.052-.166-.144-.124v.083c.051.041.051.153.144.143zm-9.688-.287c-.031-.031-.031-.103-.093-.083-.062.104-.206.236-.082.351.021-.105.165-.167.175-.268zm.277.02c-.051-.009-.102.01-.122.051-.052.062-.113.165-.052.216.082-.072.226-.102.174-.267zm.246.102c-.124-.034-.113.067-.102.142-.013.017-.016.039 0 .074.01-.006.005-.037 0-.074.035-.047.14-.044.102-.142zm.247.145c-.01-.032.021-.104-.031-.104-.03.041-.133.093-.092.174.041-.01.072-.05.123-.07zm.165.05h-.02v.072c.031-.01.02-.041.02-.072z" transform="matrix(6.30054 0 0 6.30054 -997.088 1166.309)"/><path style="fill:#fff" d="M7.103 16.588a.18.18 0 0 1-.101.102c.011.091-.021.195.021.277.155.02.113-.186.226-.226a.527.527 0 0 1-.018-.152h.139c.004.132.018.261.054.378.729 0 1.397-.021 2.116.02v-.143c.104.01.195.062.268.143.288.021.544.267.822.175.098.075.211.138.333.188h-.976a.612.612 0 0 0-.303-.014l-.011.014H9.49c.002-.083-.004-.172-.093-.188-.073-.011-.146 0-.155.071l-.002.117h-.092a.47.47 0 0 0-.082-.168c-.666-.052-1.406.01-2.043-.052-.071.041-.041.113-.052.175a.254.254 0 0 1 .108.045h-.263c-.001-.149-.035-.283-.184-.384a.552.552 0 0 0 .22-.377Zm2.37 0a.08.08 0 0 0-.004.009c-.02 0-.038 0-.053-.007zm.535 0a2.075 2.075 0 0 1-.027.152c-.066-.019-.077-.08-.077-.152Zm.25 0c.006.087.01.171-.081.204a.588.588 0 0 1-.05-.204zm3.134 0c-.045.006-.101.001-.101.049.009.053.061.021.092.032a.3.3 0 0 1 .082-.081h.449c-.035.012-.066.022-.078.049l.021.032c.132-.018.288.041.349-.081h.194c.031.065.062.132.176.081.021-.027-.022-.051-.058-.081h.296c-.025.032-.046.065-.042.102.082.041.267.051.267-.093-.002-.002-.002-.006-.005-.009h.218a.14.14 0 0 0-.018.049c.021.032.051.032.083.032a.565.565 0 0 0 .067-.081h.394v.029l.032-.021.001-.007.331-.001c.053.043.09.122.182.081a.403.403 0 0 0-.035-.079l.273-.001a.195.195 0 0 0-.013.029l.092.123c.073-.021.186.041.196-.051-.024-.025-.064-.067-.107-.1l.374-.001c-.022.04-.062.081-.041.131.089.014.079-.08.105-.131h.241c.046.029.08.077.096.131.105.029.219-.031.3-.131h.332a.14.14 0 0 1 .036.029.112.112 0 0 1 .014-.029h.377a.4.4 0 0 0 .1.009.076.076 0 0 0 .042-.009h.33a.692.692 0 0 0 .198.001l.248-.001c0 .009 0 .018-.004.029-.041.072-.113.061-.174.102.544.03 1.067.021 1.654.021.061.031.154.093.154.174-.032.103-.144 0-.154.052.104-.011.143.093.173.164-.112.123-.287-.02-.421-.071-.04-.227-.328-.083-.492-.125.215.155-.083.288-.124.401l-.021.014h-.106c-.045-.051-.049-.18-.068-.22.02.062-.031.083-.051.123-.031 0-.062.01-.072-.021-.011-.122-.051-.298-.196-.247-.04.144-.236.144-.349.227-.026.039-.025.088-.024.137h-.206c-.014-.121-.095-.23-.109-.364-.083.021-.155.134-.228.196.057.048.076.111.056.168h-.319c-.007-.155.007-.364-.125-.415-.072-.021-.052.051-.083.072-.084.105-.124.237-.185.343H17.8c.002-.04.009-.082 0-.117-.134-.071-.041-.369-.247-.298-.042.14-.073.293-.151.415h-.216l-.074-.436c-.062-.021-.083.03-.123.052-.101.12.083.3-.062.384h-.019c-.03-.025-.064-.016-.088 0h-.175c.016-.096-.104-.171-.129-.239-.03.143-.184.092-.267.174.006.021.035.041.066.065h-.234c-.14-.07.098-.219-.027-.343l-.207.175c-.203.021-.203-.227-.369-.247-.021.082.073.176.083.278-.051.041-.083.092-.155.072-.029-.021-.02-.052-.02-.072-.103.092-.288-.072-.4-.123v.041c.047.071.034.187-.027.22h-.234l.014-.014c0-.031.01-.063-.021-.083l-.016.097h-.121c-.044-.117.049-.243.014-.384-.021-.093-.113-.113-.194-.103.172.182-.126.314-.035.486h-.172c-.069-.149-.172-.277-.164-.436-.051-.092-.164-.03-.247-.051l.073.123c-.156.067-.066.256-.103.364h-.191a.441.441 0 0 1-.024-.239c-.195-.042-.103-.299-.319-.268v.143c-.186.085-.053.238-.079.364h-.204c-.023-.05-.04-.109-.086-.137.143-.135-.144-.227-.155-.329-.109.118-.13.298-.166.467l-.167-.001c.056-.292-.287-.297-.407-.486-.215-.114-.072.206-.268.143-.143 0-.031-.154-.103-.215-.03.011-.102-.021-.092.02l.072.052c.082.123-.031.226-.103.318-.145.021-.124-.165-.195-.247.061-.051.081-.092.123-.143-.206.051-.586-.145-.616.174-.124-.011-.247.112-.35 0l.206-.174c-.062-.021-.185.03-.227-.073.042-.061.092-.072.144-.102.597.041 1.161-.032 1.726.02a.254.254 0 0 1-.137-.049h1.257zm8.016 0c.02.087.04.183-.032.255-.131-.022-.107-.147-.112-.255zm.214 0c.004.115.002.23-.052.327-.121-.047-.101-.188-.096-.327zm.229 0a.871.871 0 0 1-.003.204c-.011.051-.072.092-.123.072-.042-.061-.042-.083 0-.145a.465.465 0 0 0 .021-.13zm.4 0c-.077.062-.054.229-.208.204a.564.564 0 0 0 .005-.204zm.748 0c.032.189-.057.431.104.574.256.051.411-.051.513-.247.009-.111.009-.22.002-.327h.431c-.01.164-.026.331.02.472.215-.279.195.266.461.153v-.083c-.238-.156-.173-.352-.122-.542h.192c.004.152.014.306.002.451l.206.174a.48.48 0 0 0-.133.137H22.21c-.045-.028-.111-.023-.159 0H20.68c.375-.136.82-.036 1.168-.311.257.214.781.102 1.15.091v-.02l-.318-.021c-.082.051-.103-.113-.175-.03-.062.051-.092.04-.144-.021a1.67 1.67 0 0 0 .074-.451h.564zm-6.491.762.007-.014.021.014zm2.35-.631c-.03-.03-.133-.051-.123.021.042-.01.123.02.123-.021zm4.983.411c-.082-.071-.247-.071-.247.031zm-11.116-.513v.051h.092v-.051z" transform="matrix(6.30054 0 0 6.30054 -997.088 1166.309)"/><path style="fill:#fff" d="M6.853 16.588c.056-.311-.039-.703-.045-.957.01-.052.062-.082.041-.144-.041-.072-.144-.113-.144-.206l.195-.093 1.675-2.342.03-.175c.093.093.104.319.298.371.072.071.134-.031.196-.051.092.061.031.185.051.277.39.533.576 1.202 1.079 1.643-.011.144.009.298.071.37.401-.391.606-.874.946-1.305.021-.051-.011-.134.071-.175.042.134.092.267.247.35l.123-.052c.021.33.278.565.299.894.071.134.083.267.215.391h.071c.012.082-.01.165.052.226l.102-.103c.031.134-.082.329.144.369.864-.041 1.686.114 2.569.021.051-.061-.01-.256.124-.195.041.062.052.134.124.174.165-.01.338-.102.39-.266.165-.021.071.215.247.246.144.124.277.02.318-.124l.175.217c.925-.053 1.686.102 2.569.03.309-.113-.215-.442.195-.37.267-.401.422-.843.637-1.264.165-.041.299-.205.422-.298.247.483.595.925.894 1.387.154 0 .092-.216.144-.319.482-.308.544-.832.864-1.232.092-.206.215-.4.266-.616.145.154.247-.072.371-.104.144-.051.062-.194.153-.267.113.103-.041.339.144.412.309.575.761 1.129 1.058 1.726.206.164.268.472.545.523.031.134-.268.226-.072.338-.114.198-.115.442-.105.691h-.192c.043-.16.077-.317-.093-.443-.103-.155.051-.257.194-.248-.595-.185-1.366-.041-2.024-.123-.082.051-.051.165-.021.226.062 0 .083-.112.165-.071.019.023.06.043.05.073h.071c.093.145.227.031.329.124a.165.165 0 0 1-.083.144l-.02-.021c-.114.021-.083.186-.123.268l.103-.042a.342.342 0 0 1 .041.116h-.562a.946.946 0 0 0-.054-.341h-.041c.01.113-.031.205-.031.318a.104.104 0 0 0-.06.022h-.203c-.021-.163-.091-.309-.077-.485-.175.114-.136.294-.121.485h-.105c.002-.099-.032-.195-.124-.238-.009.077-.002.158 0 .238h-.147a.42.42 0 0 0-.027-.197c-.077.037-.059.112-.04.197h-.145a.2.2 0 0 0-.031-.116c-.031-.112-.185-.184-.277-.204 0 .061 0 .113.031.154-.134.328-.268-.103-.473-.051-.052-.145.073-.237.124-.319-.062-.041-.144-.021-.226-.031-.104.051-.104.184-.093.298-.103.072-.144.318-.298.226.062-.164-.104-.288-.072-.473-.133.092-.216-.062-.349-.051-.124.021.041.124-.052.174l-.164-.05c-.021.112.041.246-.051.327-.123-.072-.144-.225-.247-.327l-2.199-.021c.011.103-.133.298.031.391.03.041.082-.042.143-.021.061.032.058.063.041.095l-.374-.001c-.06-.045-.128-.072-.168 0h-.273c-.082-.15-.241-.255-.355-.361-.084.185.307.082.163.339.017.004.03.012.045.022h-.331c.011-.061.037-.146-.033-.166v.166h-.394a.19.19 0 0 0 .024-.146.502.502 0 0 0-.156.146h-.218c-.124-.208-.354-.232-.364-.516l-2.147-.021c-.174.082-.235.287-.247.442.514-.052.699.082 1.162 0 .029.072-.003.088-.043.094h-1.256c-.126-.114.165-.379.045-.567h-.031c-.05.062-.123.113-.195.051l.031-.092c-.104-.154-.237.031-.35 0-.061.113.021.225.021.339-.072.052-.102.175-.215.123-.041 0-.103-.042-.073-.092-.185-.123-.133-.308-.102-.453h-.35c-.01.093.03.093.083.155a.493.493 0 0 1-.329.319c-.114-.062-.082-.176-.124-.268-.133.072-.206.195-.287.339a.397.397 0 0 0-.001.146h-.131c-.012-.14.009-.292.03-.413-.011-.062.133-.092.051-.154-.14.124-.168.354-.2.567h-.104c0-.083.019-.178-.015-.238 0-.071.092-.154 0-.205-.093.06-.03.205-.154.226-.102-.134.01-.36-.092-.495h-.082v.227c-.172.142.004.333-.087.485h-.058a.033.033 0 0 1-.019-.022c.04-.144-.073-.114-.175-.144-.021-.277.061-.586-.124-.791-.606-.103-1.346-.01-2.004-.072-.236.185.226.124.246.318.041.208.02.465.029.713l-.139-.001c.004-.275.172-.555-.157-.659l-.103.246c.042.062.114.052.155.124-.014.095.01.207-.023.29h-.249Zm6.611 0c.145-.099.361-.072.515-.166l.051.05c.007.085-.06.1-.117.117zm.74 0a.226.226 0 0 0 .021-.073c.111-.051.142.01.172.073zm.312 0c-.032-.025-.058-.056-.024-.094.112.041.236-.072.329-.104.095.074.039.135-.009.197h-.296zm2.65 0c.014-.025.038-.04.09-.022a.187.187 0 0 1 .151.022zm.637 0 .018-.022c.107.018.23-.026.314.022zm.382 0c.065-.092.233-.025.377 0zm.519 0c.063-.03.117-.124.186-.022.043.009.094.017.145.024zm.528 0a.308.308 0 0 0 .191-.094c.017.032.053.058.056.094zm4.385 0a2.674 2.674 0 0 0-.074-.464c.051-.093.144-.185.277-.144.239.129.241.364.227.608zm.348-1.769v.092h.071v-.092zm-2.169.617c-.124-.021-.194.123-.277.144h.123c.053-.052.165-.052.154-.144zm.462.369c-.009-.03-.041-.02-.071-.03-.051.03 0 .082.03.102.011-.021.053-.041.041-.072zm1.583-1.11c-.227-.452-.555-.904-.843-1.283-.338.656-.555 1.417-.986 1.992.811.145 1.541.051 2.394.083-.062-.083-.145-.124-.216-.175-.237-.01-.606.144-.74-.123-.012-.174.226-.226.319-.195l-.104-.174Zm-.986-1.211c-.134.02-.257.041-.35.174-.123.154-.256.329-.164.544-.083.051-.092.256-.226.144a.667.667 0 0 0-.196.421c.175.103.063.36.093.493.164-.37.616-.791.37-1.232.061-.062.134-.247.247-.144a.927.927 0 0 0 .226-.4zm-2.044 1.674c-.093-.257-.298-.555-.493-.781l-.442.956c.134-.01.093-.113.164-.195.093-.072.176.051.227.103-.114.041 0 .093.021.164a.656.656 0 0 1-.318.175c-.063-.03-.145-.092-.145-.175-.02.021-.031.031-.031.051-.123.062-.195.062-.318-.02l-.021.267c.4.021.945.072 1.407.052.093.143.227.041.339.072.082-.051.215-.072.226-.195h-.072c-.247.205-.195-.206-.37-.247-.041.051-.031.165-.124.144-.071-.113-.155.113-.247 0-.215-.145.115-.269.197-.371zm-1.038.102a2.61 2.61 0 0 0 .39-.842c-.236.052-.124.391-.369.473.03.144-.165.247-.021.369zm-3.473.987c.021-.195-.195-.123-.297-.175v.052c.113.01.185.195.297.123zm.319-.123c-.227-.031-.082.195-.124.298h.052c.133-.062.041-.165.072-.298zm-7.131-.514c-.071-.052-.164 0-.246.021.021.01.03.031.03.051h.072c.053-.01.176.03.144-.072zm6.165.442-.021-.031c-.082.133-.329.031-.318.206.123.041.216-.144.339-.175zm-.565.339c0-.082.01-.246-.103-.288l-.021.165c.022.051.073.132.124.123zm.565-.072v-.092c-.082-.031-.062.062-.093.092zm-3.873-1.253-.442-.863c-.092-.01-.155.133-.195.215l.123.083c.041.031.03.113-.021.144-.103.051-.125-.092-.206-.103-.134.093-.226.288-.288.452l.144.093c-.01.041.021.102-.021.123-.073.175-.256.195-.421.175-.154.38-.452-.165-.688-.103l.319.247c.165-.021.297.318.441.051a9.317 9.317 0 0 0 1.531 0c-.144-.083-.082-.298-.277-.319-.019-.073-.051-.144.001-.195zm-.124-.442V14.5l-.092-.123zm.031.041.155.302a.424.424 0 0 0 .061.12l-.061-.12a.169.169 0 0 1 .02-.147c-.051-.072-.102-.104-.175-.155zm.494.894c-.092-.062-.021-.205-.154-.226l-.021.051c.051.041.083.205.175.175zm-3.432-2.147c-.01-.093-.062-.206-.144-.227-.102.144-.308.299-.298.473l.021-.021c.061-.052.165-.031.206.041.041.103.021.236-.083.298-.134.031-.184-.123-.287-.175l-.37.453c-.186.112.04.257-.052.39-.103.041-.154-.061-.194-.103-.042.052-.103.082-.083.154h.205c.154.042.113.216.195.319l-.247.103a.31.31 0 0 0-.246-.082c-.104.041-.226.113-.247.225.75.042 1.684.021 2.394.021-.329-.586-.555-1.233-.77-1.869Zm.544.389c-.082-.225-.195-.554-.493-.585.102.154.009.544.318.462.133.051.051.185.071.277-.163.257.103.534.154.76.175.062.053.278.195.371.339.113-.134-.134.021-.298 0-.103.083-.185.175-.215-.113-.144-.134-.411-.338-.421-.123-.063-.153-.227-.103-.351Z" transform="matrix(6.30054 0 0 6.30054 -997.088 1166.309)"/><path style="fill:#fff" d="M23.226 13.956v.144c-.092.031-.258.062-.319-.051 0-.092.072-.123.144-.164.072-.001.163-.021.175.071zM9.027 14.542c-.176.164.225.565-.227.545-.155-.226-.412.185-.443-.196.113-.185.351-.153.545-.195-.031-.092-.123-.123-.205-.154l-.071.082-.021-.03c.041-.144.237-.196.339-.093.031.01.041.051.083.041zM20.44 14.695l-.051.052-.021-.124c.062-.03.042.042.072.072zM22.876 14.748c-.052.061-.176.061-.165.164.073.062.309-.01.268.206.092.195-.144.113-.227.165-.133-.165-.339.174-.441-.123-.041-.165.153-.165.247-.216.071-.041-.032-.072-.022-.123.063-.105.248-.238.34-.073zM11.615 15.066c-.041.092-.123.174-.031.267-.061.051-.163.021-.246.03-.185-.113.03-.236.103-.328.051.01.134-.011.174.031zM7.937 15.876v.073c-.082.02-.103-.093-.174-.093.031-.092.134-.03.174.02zM8.996 15.876c.021.052-.021.073-.051.104-.051-.03-.144-.03-.165-.104.072 0 .154-.112.216 0zM8.554 16.052c.072.082-.041.267.103.298-.03-.247.113-.216.288-.247h.031v.74c-.154.03-.421-.083-.545.092l-.102-.051c.318-.124.123-.555.175-.833-.083-.01-.093-.123-.052-.175.112.012-.001.166.102.176zM7.794 16.021c-.052.257-.021.605-.031.822h-.319c.021-.278-.041-.596.052-.822l.071.082c.072-.02.135-.164.227-.082zM24.211 16.247c-.01.051.02.113-.021.144-.082-.02-.082-.175.021-.144zM11.902 16.371c.021.091-.051.164-.122.123l.051-.145zM9.808 16.617l-.021.02c-.093-.02-.144-.153-.052-.215.062.03.092.113.073.195zM19.875 16.617l-.031.072c-.062-.011-.154-.042-.174-.124l.052-.071c.061.021.102.082.153.123zM17.626 16.617h-.052v-.102h.052zM9.243 16.812c-.011.031.021.082-.021.103-.032-.01-.083.021-.103-.03.021-.032.071-.145.124-.073ZM8.082 16.864v.051h-.124c-.01-.051.082-.103.124-.051ZM7.865 17.356a.25.25 0 0 1-.298.144l-.052-.041.226-.082c-.03-.063-.112-.083-.194-.072.061-.092.247-.041.318.051ZM8.996 17.459l.071.072c-.062.051-.143.187-.266.176-.021-.031-.072-.062-.072-.103.174-.063-.02-.165-.031-.248l-.093-.051c.062-.113.205.072.319-.021.061.042.092.093.072.175zM15.334 17.479h-.144c-.03-.082.032-.154.093-.174h.051zM8.503 17.922l-.052.052c-.041-.146.01-.319-.144-.422.01-.052.103-.103.144-.052.093.113.042.288.052.422zM12.201 17.5c-.011.041.021.082-.021.104h-.031V17.5ZM13.413 17.604c.021.071-.051.051-.071.071-.051-.021-.134-.124-.031-.175.061.031.082.041.102.104zM15.931 17.531v.051c-.073 0-.144 0-.155-.082.052.011.114-.009.155.031zM7.691 17.604c0 .03.011.062-.021.071h-.051v-.093c.02 0 .051-.01.072.022zM3.643 18.117c-.021-.174-.318-.103-.247.083.041.072.112.031.175.042.031-.043.103-.053.072-.125zm.298.225c0-.134-.256-.134-.247.021.021.051.073.133.155.102.041-.04.133-.03.092-.123zm-.545.196c.082-.145-.154-.277-.216-.123 0 .062-.01.123.051.153.053.052.115 0 .165-.03zm.33.124c0-.154-.268-.103-.227.051.042.062.103.094.175.072.04-.031.052-.073.052-.123zm.246-.514a.349.349 0 0 1 .092.318c-.308.072-.164.617-.565.422-.103-.247-.441-.114-.441-.401.01-.216.277-.256.247-.493.082-.103.226-.114.338-.072.071.112.185.226.329.226zM21.992 18.271c-.02.03-.051.021-.072.021v-.124c.063-.001.052.073.072.103zM27.838 18.662c-.022-.113-.278-.103-.226.051.021.062.051.083.123.072.051-.021.134-.031.103-.123zm.492.153c-.02-.051-.061-.093-.122-.082-.072.03-.124.092-.103.174.031.051.071.062.124.051.081.012.112-.083.101-.143zm-.349.196c.041-.103-.072-.113-.124-.123-.062.021-.103.052-.103.123.01.082.083.113.154.123.053-.021.094-.062.073-.123zm.176-.545c-.082-.092-.257-.041-.227.103.041.041.083.093.154.073.052-.053.083-.104.073-.176zm.318.349c-.031.103-.052.227-.175.267-.216-.01-.484.38-.637.02.123-.246-.451-.483 0-.658.206.011.359-.328.565-.103.082.156.082.351.247.474zM9.808 18.589c.031.073-.042.052-.072.073-.03.01-.051-.031-.071-.052-.001-.081.111-.051.143-.021ZM9.981 18.609c-.01.042.021.083-.021.103h-.03v-.124c.031-.009.041.012.051.021zM10.229 18.662c.009.04-.032.051-.051.072-.052 0-.103-.083-.042-.125.042-.009.061.032.093.053zM10.793 18.836h-.041v-.144h.041zM21.324 18.856l-.021.031v-.124c.042.011.01.063.021.093zM20.163 18.836v.052h-.071c-.032-.052.052-.114.071-.052zM6.458 18.939c.01.082-.093.02-.124.071-.041-.031-.071-.093-.021-.123.053.001.113-.012.145.052zM9.735 19.063c.021.039-.021.06-.051.091l-.072-.052c.01-.05.082-.102.123-.039ZM6.438 19.154c0 .041-.011.082-.051.072-.031 0-.082.021-.103-.021l.051-.124c.04.002.061.052.103.073zM6.438 19.35c-.011.061-.072.082-.103.124-.03-.051-.082-.114-.021-.165.052-.01.093 0 .124.041zM11.287 19.802c-.104.01-.246.175-.339.021l-.071-.072c-.052.04-.093.194-.206.123-.041-.051-.01-.134-.021-.196.153-.277.318.247.421-.102l.051-.103c0 .133.134.205.165.329zM11.636 19.647c.062.083-.01.165-.052.226-.061.011-.102-.021-.122-.072.01-.071.082-.184.174-.154zM20.02 19.874c-.021.083-.134.134-.195.072-.031-.051-.102-.133 0-.174.071.009.174.009.195.102zM11.76 19.996c-.021.093-.083.155-.176.196-.133-.061-.379.031-.44-.123.153-.145.42-.103.616-.073zM20.317 20.141c.01.061-.021.112-.071.123-.207-.01-.453.052-.545-.143.042-.165.215 0 .338-.052zM22.958 21.251c-.453-.176-.904-.576-1.458-.391-.154.092-.391.266-.319.461.195.113.339-.225.544-.267.204-.062.514-.092.708.021.186.021.319.267.525.176zm-.103.175c-.36-.104-.822-.452-1.161-.073-.134.051-.053.185 0 .246.381-.071.77-.246 1.161-.173zm-1.213.369-.369-.268c-.165.02-.35-.277-.463-.031.359-.071.596.237.832.4zm-.338.123c-.072-.227-.4-.113-.493.073a.4.4 0 0 0 .072.492c.143-.143.421-.349.421-.565zm-.493.935c-.113-.186-.072-.524-.319-.565-.031.236.021.503.144.719.144.062.093-.103.175-.154zm-.401.421c-.021-.073-.042-.196-.123-.196l.051.216c.03.001.061.012.072-.02zm-.164.195c-.094-.051-.083-.483-.207-.144.083.103.032.37.207.319zm3.348-2.435.052.041c-.114.155-.329.155-.401.3.194.143.482.06.668-.022l.071.022c-.133.214-.472.173-.688.316.073.206.359.217.42.371-.646-.124-1.53-.628-2.114.03-.32 0-.463.401-.648.616 0 .412-.648.627-.586 1.058.4-.318.69-.77 1.11-1.058.052.062-.009.175.092.216.349-.195.669-.462 1.018-.657l-1.284 1.274c-.082-.042-.03-.206-.176-.165-.112.215-.461.225-.389.493a.167.167 0 0 0 .216.123c.411-.123.771-.349 1.182-.473.01.062-.113.186-.217.145-.481.246-.904.492-1.386.74-.33-.124-.607.205-.904.298.153-.268.4-.494.565-.761l-.051-.052c-.238.154-.442.494-.668.668.083-.494.441-.822.441-1.305.063-.104.104-.247.228-.278.328-.267.019-.832.472-1.007.318-.215-.124-.472.145-.667-.053-.227.153-.4.317-.494.289-.041.534-.268.863-.143.554.125 1.057.567 1.652.371zM19.916 21.991c.083.143.236-.083.278.102-.103.442-.329.821-.443 1.253-.02.391-.287.74-.42 1.111h-.052v-.669l-.143-.072c0-.584-.021-1.192.021-1.777.102.226.009.575.071.842.051.195.062.463.318.494.124-.154.062-.391.155-.565l-.155-.124.422-1.725h.051zM9.397 21.034c-.063-.031-.073-.112-.032-.153.052.011.021.102.032.153z" transform="matrix(6.30054 0 0 6.30054 -997.088 1166.309)"/><path style="fill:#fff" d="m12.396 24.312-.02.021c-.125.021-.267.206-.37.052-.011-.062.083-.145.123-.227.062-.061.011-.174-.072-.194.042-.278-.256-.052-.35-.175.021-.359.216-.656.442-.935.186-.205-.143-.35 0-.565.082-.38-.206-.709-.39-.967-.38-.256-.925-.44-1.377-.215-.462.226-.729.648-.718 1.161.112.205.102.524.349.636-.154.412-.432 0-.648.052-.143-.052-.143-.195-.072-.277l-.123.03c-.051-.031-.165-.082-.123-.174-.021-.154.112-.113.195-.124-.103-.091-.124-.379-.319-.267.01-.102-.01-.195-.103-.247-.175-.42.329-.236.472-.4.011-.122.165-.217.104-.339l-.226.217c-.072.029-.123.019-.175-.054.032-.061.093-.041.154-.041.082-.061.123-.164.072-.246-.195.186-.247-.195-.442-.082 0 .112.092.185.092.298-.154.112-.215-.227-.369-.217-.042.092.092.175-.02.246-.166-.02-.258-.195-.248-.348-.072-.051-.165-.01-.226.051.011.03.021.071.051.071.186.093.247.287.297.473.412.174-.102.708.34.812.165.349.35.646.617.934.513.268.646.779 1.263.791.463.257.915-.072 1.377-.102.052.051.145.123.072.194l-.145-.041v.268c.072.103.195.276.349.174.064-.059.24-.141.167-.244zm-3.647-2.127c-.031 0-.062.01-.072-.021-.011-.072.082-.143.124-.143-.011.052.031.133-.052.164zm1.059 1.192c-.249.017-.426-.203-.59-.389a.492.492 0 0 1-.098-.105c.032.032.065.069.098.105.168.139.403.163.59.265zm1.931-.452-.032-.318c.114-.01.083.123.154.174-.04.052-.029.164-.122.144zm-.052-1.13c.206-.041.247.195.37.297l-.051.37c-.237-.093-.391-.298-.494-.494.113-.021.174.308.298.053.042-.174-.266-.042-.123-.226zm-.072.79c-.071.021-.112-.062-.123-.103-.092-.174.215-.164.144 0-.011.032.02.083-.021.103zm-.226 0c.011.093-.051.165-.143.145-.092.02-.186-.072-.206-.145.061-.154.288-.154.349 0zm-.225-.563c.092.071.308.01.298.163-.094.134-.216.174-.371.155-.144-.125.063-.206.073-.318zm.298.831h.071v.123c-.112-.021-.195.041-.287.072-.092-.246.122-.072.216-.195zm-1.654-.617c.174-.153.062-.472.328-.544-.021.104.042.236-.051.299.051.092.206.021.215.153.011.112.021.277-.143.247zm.123 1.141c-.062-.103 0-.299.154-.246-.145.071.082.267-.154.246zm0-.719v-.195c.144.195.544-.113.452.297-.071.174-.236.052-.297 0-.001-.102-.135-.051-.155-.102zm.226.421.021-.071c.03 0 .082.021.082.041-.022.051-.073.02-.103.03zm.246.586c-.092 0-.112-.166-.174-.247l.123-.144c.051.114.329.319.051.391zm.298-.658c-.051.051-.165.103-.247.041-.041-.062-.041-.165.021-.216.102-.174.268.043.226.175zm-.102-.719c.051-.011.071.021.102.052l-.051.051zm-.093-.226a.502.502 0 0 1-.246-.165c-.052-.216.051-.339.195-.42.195-.083.165.122.268.195-.279.019.06.339-.217.39zm.216-.636c-.021-.135-.175-.186-.298-.195l-.072.021c.092-.063.339-.238.524-.093-.021.206.195-.01.268.123l.123-.05c.061.111-.123.204-.196.267-.144-.022-.205-.269-.349-.073zm.051.317c.215-.103.452-.071.636-.298.103 0 .267-.01.206.154.021.073-.031.073-.082.092-.092.052-.103.217-.267.227-.011-.071-.072-.123-.123-.175-.206.021-.073.391-.351.248.001-.083-.081-.166-.019-.248zm.268 1.336c-.144.053-.175-.123-.216-.195a.147.147 0 0 1 .093-.175c.083.031.195.062.205.175a.211.211 0 0 1-.082.195zm.348.421c-.133.032-.113-.132-.246-.102l.051-.124c.061.062.164.083.194.174v.052Zm.175 0c.01-.184-.329-.225-.196-.368.145-.073.247.091.288.193-.061.042.041.195-.092.175z" transform="matrix(6.30054 0 0 6.30054 -997.088 1166.309)"/><path style="fill:#fff" d="M9.592 22.781c-.082.031-.206-.092-.175-.174.052.082.216.029.175.174zM15.16 24.065c.01.021-.01.031-.021.052l-.051-.052zM11.513 27.096c-.03-.153-.236-.041-.195.073 0 .061.072.082.124.071.071 0 .081-.083.071-.144zm-.349.144c-.052-.145-.268-.052-.217.103l.144.021c.053-.001.092-.062.073-.124zm.523.247c-.01-.165-.298-.112-.225.05.03.052.071.062.122.052.052 0 .072-.061.103-.102zm-.37.123c0-.154-.257-.104-.226.051.01.072.083.082.155.072.021-.042.092-.051.071-.123zm.319-.617c-.112.277.308.359.145.617-.124.164-.339.092-.463.246-.134.071-.267 0-.35-.123.093-.268-.462-.606.052-.709.215.092.421-.37.616-.031zM20.215 27.147c0-.072-.083-.072-.124-.104-.062.021-.082.104-.072.176.031.039.072.051.124.051.082.001.02-.091.072-.123zm.348.196c.062-.133-.153-.164-.195-.072 0 .041-.02.093.021.123.051.05.133.011.174-.051zm-.492.144c-.032-.052-.083-.135-.155-.124-.031.042-.133.093-.092.174 0 .083.092.052.145.073.07 0 .07-.082.102-.123zm.318.123c-.03-.042-.072-.052-.123-.042-.031.052-.104.031-.072.123-.032.083.072.072.123.072.072-.008.082-.081.072-.153zm.247-.463c.082.062.052.216.021.297-.236.084-.021.392-.288.442-.236.083-.308-.205-.544-.175a.285.285 0 0 1-.123-.298c.308-.112.072-.595.493-.513.112.165.286.175.441.247zM3.379 14.918l.546.038a.648.648 0 0 0 .205-.005.145.145 0 0 0 .072-.065.476.476 0 0 0 .038-.183l.05.005-.07 1.001-.05-.003a.474.474 0 0 0-.013-.188.145.145 0 0 0-.063-.072.579.579 0 0 0-.2-.034l-1.28-.091a.673.673 0 0 0-.205.006.156.156 0 0 0-.072.064.486.486 0 0 0-.038.183l-.05-.004.061-.859c.02-.282.084-.482.193-.598a.473.473 0 0 1 .391-.158.477.477 0 0 1 .32.142c.086.085.14.2.163.341.018.097.019.256.002.48zm-.965-.068.854.06.007-.073a.355.355 0 0 0-.086-.281c-.067-.07-.173-.109-.32-.119-.147-.011-.256.014-.328.073-.072.059-.113.153-.123.279ZM2.635 12.433c.064-.308.214-.533.451-.677a.985.985 0 0 1 .781-.108c.244.061.439.184.587.373.198.249.253.546.168.89-.087.345-.269.582-.55.712a1.038 1.038 0 0 1-.71.06.982.982 0 0 1-.638-.467.955.955 0 0 1-.089-.783Zm.094.006c-.044.175.011.332.168.468.128.111.33.201.604.269.326.082.581.084.766.008a.41.41 0 0 0 .248-.296.433.433 0 0 0-.009-.261.599.599 0 0 0-.24-.267 1.638 1.638 0 0 0-.5-.198c-.253-.063-.449-.086-.586-.07a.57.57 0 0 0-.31.114.431.431 0 0 0-.141.233ZM5.018 9.949l.596.36-.74 1.584-.045-.021.027-.06a.267.267 0 0 0 .031-.137.138.138 0 0 0-.039-.083.659.659 0 0 0-.162-.092l-1.18-.55a.71.71 0 0 0-.179-.066.143.143 0 0 0-.087.03.24.24 0 0 0-.082.107l-.028.059-.046-.021.444-.953.047.022-.038.078a.294.294 0 0 0-.031.139.143.143 0 0 0 .04.083c.017.02.07.05.16.093l1.143.532c.09.043.151.064.182.066.03 0 .058-.01.084-.036a.61.61 0 0 0 .085-.153l.07-.148a.565.565 0 0 0 .06-.26.496.496 0 0 0-.082-.237 1.385 1.385 0 0 0-.259-.278ZM6.188 9.195l.042.027-.544.872-.042-.027.035-.055a.278.278 0 0 0 .047-.134.139.139 0 0 0-.03-.086.561.561 0 0 0-.148-.111L4.443 8.99a.619.619 0 0 0-.17-.087.147.147 0 0 0-.091.02.25.25 0 0 0-.094.095l-.033.056-.044-.027.545-.872.043.026-.035.056a.262.262 0 0 0-.046.133.145.145 0 0 0 .027.087.67.67 0 0 0 .149.111l1.105.69a.619.619 0 0 0 .17.087.143.143 0 0 0 .09-.02.239.239 0 0 0 .095-.095ZM5.837 6.526l.414.335-.031.04a.874.874 0 0 0-.272-.087.401.401 0 0 0-.197.04.503.503 0 0 0-.142.135l-.094.115 1.185.96c.08.064.132.1.159.107a.154.154 0 0 0 .093-.008.25.25 0 0 0 .104-.084l.041-.05.039.032-.647.798-.039-.031.042-.051a.276.276 0 0 0 .063-.126.144.144 0 0 0-.019-.091.692.692 0 0 0-.134-.127l-1.185-.96-.091.11c-.082.104-.121.195-.116.277a.562.562 0 0 0 .162.335l-.035.044-.415-.335ZM6.771 5.801l.529.607.029-.026c.096-.082.137-.172.129-.268a.714.714 0 0 0-.146-.332l.043-.038.677.781-.042.037a.804.804 0 0 0-.237-.16.315.315 0 0 0-.194-.024.485.485 0 0 0-.187.113l.365.419c.07.083.118.129.141.142a.125.125 0 0 0 .078.01A.238.238 0 0 0 8.063 7l.089-.077a.712.712 0 0 0 .251-.387.708.708 0 0 0-.076-.452l.041-.035.345.532-1.286 1.117-.032-.038.049-.042a.276.276 0 0 0 .083-.114.136.136 0 0 0-.002-.091.614.614 0 0 0-.11-.15l-.853-.983a1.078 1.078 0 0 0-.115-.12.136.136 0 0 0-.092-.025.248.248 0 0 0-.142.068l-.048.043-.034-.038 1.246-1.083.383.441-.043.037a.715.715 0 0 0-.29-.154.437.437 0 0 0-.253.037 1.113 1.113 0 0 0-.247.18ZM9.335 3.753l.364.581-.048.03a.734.734 0 0 0-.422-.225.595.595 0 0 0-.41.088.58.58 0 0 0-.23.269.63.63 0 0 0-.044.356c.027.157.088.311.184.463.093.15.197.275.311.374.115.1.233.156.353.169a.575.575 0 0 0 .371-.101.738.738 0 0 0 .247-.25c.058-.101.1-.237.127-.411l.09.144a1.061 1.061 0 0 1-.159.396 1.032 1.032 0 0 1-.315.29 1.22 1.22 0 0 1-.542.19.9.9 0 0 1-.514-.11 1.02 1.02 0 0 1-.38-.358 1.06 1.06 0 0 1-.159-.532 1.034 1.034 0 0 1 .13-.544c.092-.168.217-.301.377-.401.117-.074.257-.125.419-.155a.775.775 0 0 0 .172-.045.106.106 0 0 0 .05-.072.197.197 0 0 0-.019-.116ZM10.416 3.252l1.36.77-.317-.786c-.045-.111-.091-.179-.139-.206-.064-.035-.148-.031-.249.012l-.019-.046.604-.245.019.047a.475.475 0 0 0-.139.103.16.16 0 0 0-.031.103.565.565 0 0 0 .052.193l.616 1.525-.044.018-1.854-1.027.472 1.167c.042.106.096.168.159.186a.293.293 0 0 0 .189-.011l.042-.018.021.046-.652.264-.019-.047c.1-.042.162-.092.185-.148.023-.057.016-.134-.025-.232l-.522-1.295-.057-.032a.409.409 0 0 0-.143-.057.315.315 0 0 0-.139.025l-.019-.047ZM13.451 4.322l.012.05-1.001.231-.011-.05.064-.014a.27.27 0 0 0 .127-.062.131.131 0 0 0 .041-.081.607.607 0 0 0-.027-.184l-.293-1.269a.656.656 0 0 0-.058-.183.135.135 0 0 0-.078-.05.254.254 0 0 0-.134.002l-.063.015-.011-.05 1.001-.231.011.049-.063.015a.274.274 0 0 0-.127.061.134.134 0 0 0-.041.082.61.61 0 0 0 .025.183l.294 1.269a.634.634 0 0 0 .059.182.152.152 0 0 0 .078.051.254.254 0 0 0 .134-.002zM15.186 2.111l.071.682-.057.006a.735.735 0 0 0-.279-.387.601.601 0 0 0-.733.039.624.624 0 0 0-.194.301c-.046.152-.06.318-.041.497.019.175.058.334.118.474.06.139.14.241.243.306a.586.586 0 0 0 .378.073.707.707 0 0 0 .329-.117c.098-.064.196-.169.296-.313l.018.169a1.078 1.078 0 0 1-.317.286c-.115.064-.25.104-.408.121-.209.022-.4 0-.57-.067a.901.901 0 0 1-.415-.322 1.028 1.028 0 0 1-.185-.489c-.02-.188.011-.37.09-.548.08-.178.199-.322.355-.432a1.06 1.06 0 0 1 .514-.195c.138-.014.286 0 .446.044.093.025.15.037.175.034a.115.115 0 0 0 .077-.042.192.192 0 0 0 .032-.113zM16.774 2.186c.314.011.564.119.746.327a.987.987 0 0 1 .244.75 1.051 1.051 0 0 1-.266.643c-.211.238-.493.344-.847.319-.355-.024-.621-.164-.797-.417-.14-.2-.201-.43-.183-.69a.979.979 0 0 1 .35-.708.953.953 0 0 1 .753-.224Zm.013.093c-.182-.013-.325.07-.432.246-.088.146-.141.36-.161.641-.023.336.019.588.126.756a.406.406 0 0 0 .335.193.415.415 0 0 0 .255-.056.58.58 0 0 0 .22-.282c.058-.132.093-.308.109-.526.019-.26.008-.457-.032-.588a.572.572 0 0 0-.167-.287.447.447 0 0 0-.253-.097ZM18.371 4.393l.016-.049.062.021a.25.25 0 0 0 .133.014.168.168 0 0 0 .087-.049.742.742 0 0 0 .07-.172l.401-1.237a.62.62 0 0 0 .044-.187.138.138 0 0 0-.042-.083.247.247 0 0 0-.115-.068l-.062-.02.016-.048.84.272c.225.073.394.162.512.267a.848.848 0 0 1 .27.463 1.07 1.07 0 0 1-.038.555 1.077 1.077 0 0 1-.183.344.874.874 0 0 1-.254.223.853.853 0 0 1-.29.099 1.324 1.324 0 0 1-.355-.003 1.637 1.637 0 0 1-.271-.071zm1.291-1.541-.476 1.465a.535.535 0 0 0-.035.146c.002.02.01.038.024.052a.226.226 0 0 0 .102.056c.153.05.29.037.405-.042.156-.107.284-.309.381-.608.079-.241.103-.446.074-.614a.51.51 0 0 0-.157-.306.962.962 0 0 0-.318-.149ZM21.277 5.457l-.021.047-.931-.436.021-.045.059.027a.272.272 0 0 0 .138.031.132.132 0 0 0 .082-.04.56.56 0 0 0 .093-.161l.549-1.18a.63.63 0 0 0 .067-.18.135.135 0 0 0-.031-.087.283.283 0 0 0-.106-.082l-.06-.027.021-.046.932.435-.021.047-.059-.029a.268.268 0 0 0-.138-.029.135.135 0 0 0-.084.039.583.583 0 0 0-.09.161l-.551 1.18a.608.608 0 0 0-.065.179.134.134 0 0 0 .03.088.243.243 0 0 0 .106.081zM24.95 5.718l-.335.415-.04-.032a.862.862 0 0 0 .086-.271.399.399 0 0 0-.041-.199.509.509 0 0 0-.134-.141l-.115-.094-.961 1.185a.68.68 0 0 0-.107.159.153.153 0 0 0 .01.092c.012.035.04.07.083.105l.051.04-.033.04-.797-.647.032-.04.051.041a.256.256 0 0 0 .125.062.138.138 0 0 0 .09-.018.602.602 0 0 0 .128-.134l.961-1.185-.112-.09c-.103-.083-.195-.122-.278-.116a.569.569 0 0 0-.333.162l-.043-.035.335-.415ZM25.876 6.679c.215.23.314.483.296.758a.989.989 0 0 1-.357.703 1.052 1.052 0 0 1-.643.267c-.318.019-.592-.106-.824-.374-.233-.268-.323-.555-.27-.858.043-.241.163-.447.359-.618a.984.984 0 0 1 1.439.122zm-.058.074c-.119-.137-.278-.18-.478-.131-.165.041-.355.155-.568.34-.253.221-.402.429-.446.624-.03.135.003.26.102.373a.416.416 0 0 0 .22.142c.103.023.22.009.355-.044.134-.053.284-.151.449-.295.197-.171.329-.317.393-.439a.559.559 0 0 0 .085-.319.449.449 0 0 0-.112-.251ZM26.72 11.611l-.046.02-.402-.947.047-.02.024.06a.278.278 0 0 0 .083.115.135.135 0 0 0 .087.026.603.603 0 0 0 .176-.058l1.199-.508c.093-.04.15-.07.169-.089a.136.136 0 0 0 .035-.085.262.262 0 0 0-.024-.132l-.025-.06.046-.02.402.946-.047.02-.025-.061a.271.271 0 0 0-.082-.114.142.142 0 0 0-.088-.027.649.649 0 0 0-.176.058l-1.198.509a.612.612 0 0 0-.17.089.17.17 0 0 0-.037.086.286.286 0 0 0 .025.132zM28.801 11.966l-.932 1.256.82-.219c.115-.031.189-.068.22-.112.044-.06.049-.143.02-.248l.049-.014.168.63-.049.014a.491.491 0 0 0-.084-.152.162.162 0 0 0-.098-.043.599.599 0 0 0-.199.028l-1.588.425-.013-.047 1.246-1.713-1.217.326c-.111.03-.178.075-.203.136a.276.276 0 0 0-.012.188l.012.045-.049.013-.181-.679.049-.013c.029.105.07.173.124.203.055.03.132.031.233.004l1.349-.362.039-.053a.368.368 0 0 0 .073-.134.32.32 0 0 0-.008-.141l.049-.013zM29.284 14.64c.038.312-.03.575-.207.788a.993.993 0 0 1-.703.358 1.055 1.055 0 0 1-.676-.162c-.27-.172-.418-.435-.449-.788-.032-.354.064-.638.287-.853.175-.169.393-.266.653-.288a.98.98 0 0 1 .754.235.953.953 0 0 1 .341.71zm-.09.026c-.017-.181-.121-.31-.312-.388-.156-.064-.376-.083-.657-.058-.335.029-.577.109-.728.243a.41.41 0 0 0-.138.361c.008.099.04.181.095.244a.582.582 0 0 0 .313.173c.14.036.318.043.536.025.26-.022.453-.063.577-.123a.569.569 0 0 0 .256-.21.443.443 0 0 0 .058-.267zM5.704 21.336l-1.426.758a1.024 1.024 0 0 0-.198.123.15.15 0 0 0-.042.099.322.322 0 0 0 .049.16l.021.04-.045.023-.487-.918.044-.023.024.046a.407.407 0 0 0 .111.145.148.148 0 0 0 .106.027.885.885 0 0 0 .22-.096l.905-.48a.662.662 0 0 0 .146-.094.121.121 0 0 0 .03-.071.138.138 0 0 0-.019-.083.47.47 0 0 0-.126-.138l.033-.047.633.486zM6.033 23.424c.003.173-.014.307-.051.403a.57.57 0 0 1-.193.246.538.538 0 0 1-.432.101c-.159-.03-.301-.126-.425-.291-.117-.157-.169-.306-.157-.449a.461.461 0 0 1 .186-.341.443.443 0 0 1 .277-.093c.1.001.22.039.359.113 0-.196.017-.333.051-.414a.506.506 0 0 1 .171-.211.456.456 0 0 1 .379-.076c.148.03.28.123.397.277.114.15.166.292.156.427a.41.41 0 0 1-.41.397.723.723 0 0 1-.308-.089Zm-.008-.132c.061 0 .12-.011.179-.033a.657.657 0 0 0 .172-.099c.101-.076.162-.155.182-.239a.205.205 0 0 0-.04-.181.224.224 0 0 0-.157-.09.24.24 0 0 0-.181.05.383.383 0 0 0-.128.194c-.03.086-.038.218-.027.398Zm-.416-.048a.322.322 0 0 0-.098-.007.559.559 0 0 0-.151.047.842.842 0 0 0-.177.105.62.62 0 0 0-.163.167.256.256 0 0 0-.048.16.247.247 0 0 0 .217.227.31.31 0 0 0 .216-.071c.153-.115.22-.324.204-.628zM7.559 23.865l-.699.367.086.08c.188.181.26.397.269.524.013.202-.14.325-.3.445-.065.049-.144.109-.223.122-.147.025-.305-.086-.298-.196.008-.115.049-.188.051-.229.012-.045-.003-.082-.016-.117a.14.14 0 0 0-.082-.088.146.146 0 0 0-.119-.009c-.051.017-.093.05-.119.125-.023.112-.048.195.034.376.061.137.323.309.457.352a.69.69 0 0 0 .395.009.697.697 0 0 0 .323-.186.604.604 0 0 0 .17-.497c-.023-.238-.182-.507-.414-.749l.189-.091.349.337c.091.086.302.206.447.142l.162-.075zM7.5 26.503l.024-.035c.152.062.296.097.428.102a.87.87 0 0 0 .372-.065c.114-.05.221-.124.322-.222a.784.784 0 0 1-.162-.037.457.457 0 0 1-.12-.062.48.48 0 0 1-.214-.345c-.02-.144.024-.294.131-.447a.793.793 0 0 1 .271-.246.603.603 0 0 1 .333-.074.59.59 0 0 1 .516.371.695.695 0 0 1 .036.377.96.96 0 0 1-.171.403c-.119.17-.274.305-.464.403-.19.099-.399.14-.626.122a1.466 1.466 0 0 1-.676-.245Zm1.233-.307c.07-.085.128-.162.174-.229.102-.145.18-.292.234-.44a.358.358 0 0 0 .023-.21.133.133 0 0 0-.058-.08.132.132 0 0 0-.129-.015c-.063.026-.142.104-.233.237-.155.219-.235.39-.241.512-.004.076.022.137.082.178.03.021.079.038.148.047zM22.358 25.208l.904 1.339c.068.1.116.16.144.184a.153.153 0 0 0 .102.031.33.33 0 0 0 .154-.065l.037-.024.028.041-.862.582-.028-.041.044-.031a.384.384 0 0 0 .133-.124.152.152 0 0 0 .016-.107.903.903 0 0 0-.118-.21l-.573-.849a.65.65 0 0 0-.107-.136.126.126 0 0 0-.073-.021.144.144 0 0 0-.083.027.438.438 0 0 0-.124.14l-.05-.028.417-.681zM24.532 26.153l-.026-.031c.094-.135.159-.268.194-.396a.839.839 0 0 0 .019-.375 1.07 1.07 0 0 0-.142-.364.883.883 0 0 1-.072.15.496.496 0 0 1-.087.103.477.477 0 0 1-.385.13.615.615 0 0 1-.406-.228.793.793 0 0 1-.18-.318.596.596 0 0 1 .004-.34.576.576 0 0 1 .171-.274.606.606 0 0 1 .31-.147.703.703 0 0 1 .375.05.97.97 0 0 1 .354.257c.14.154.235.335.289.544a1.13 1.13 0 0 1-.022.635 1.48 1.48 0 0 1-.396.604zm-.02-1.27a3.72 3.72 0 0 0-.183-.221 1.911 1.911 0 0 0-.375-.327.384.384 0 0 0-.202-.07.141.141 0 0 0-.09.04.126.126 0 0 0-.042.123c.01.067.07.16.178.28.179.2.327.316.443.35.075.021.139.008.191-.039a.407.407 0 0 0 .08-.136zM26.054 23.003c.156.121.284.256.384.405.062.09.104.178.121.263a.646.646 0 0 1 .009.247.483.483 0 0 1-.311.377.702.702 0 0 1-.291.032.985.985 0 0 1-.276-.074 1.855 1.855 0 0 1-.811-.667.695.695 0 0 1-.131-.389c0-.127.035-.237.104-.325a.511.511 0 0 1 .29-.181.665.665 0 0 1 .383.022c.184.061.36.157.529.29zm-.277.35a22.81 22.81 0 0 0-.479-.367c-.113-.074-.199-.112-.258-.112-.04 0-.076.021-.11.064a.138.138 0 0 0-.033.099c.005.05.038.105.097.168.06.063.292.253.696.568.22.172.374.281.46.323.063.03.112.043.148.036a.167.167 0 0 0 .094-.063c.029-.038.04-.077.03-.114a.449.449 0 0 0-.155-.21zM26.077 20.643l.039.016c-.027.179-.03.332-.007.457a.81.81 0 0 0 .136.332c.068.096.165.188.287.278-.01-.051-.013-.091-.01-.121a.651.651 0 0 1 .048-.187.475.475 0 0 1 .293-.277c.137-.05.292-.038.462.035.12.051.219.123.297.213a.601.601 0 0 1-.122.902.638.638 0 0 1-.363.109 1.012 1.012 0 0 1-.417-.083 1.243 1.243 0 0 1-.508-.388 1.194 1.194 0 0 1-.242-.594 1.352 1.352 0 0 1 .107-.692zm.566 1.118c.112.074.196.126.249.157.116.067.235.122.357.162.122.04.217.052.282.04a.151.151 0 0 0 .105-.073c.021-.039.02-.086-.008-.143-.028-.058-.111-.125-.249-.205-.233-.133-.411-.198-.531-.192a.19.19 0 0 0-.171.097.349.349 0 0 0-.034.157zM27.411 8.843a2.006 2.006 0 0 0-.252-.462l-.512-.76-.042.027a.48.48 0 0 1 .083.168.156.156 0 0 1-.016.095.657.657 0 0 1-.157.129l-1.069.72a.604.604 0 0 1-.177.096.155.155 0 0 1-.093-.02.461.461 0 0 1-.125-.14l-.042.028.564.838.042-.028a.494.494 0 0 1-.083-.167.138.138 0 0 1 .016-.094.62.62 0 0 1 .156-.129l.462-.312.072.108c-.041.38-.09.501-.176.7-.181.346-.133.387-.086.507l.22.339.044-.03a.255.255 0 0 1-.037-.144c.002-.033.111-.126.217-.371.08-.182.101-.405.111-.572a.64.64 0 0 0 .29.134.47.47 0 0 0 .388-.072.515.515 0 0 0 .202-.588zm-.256-.08c-.02.099-.092.189-.217.273a.487.487 0 0 1-.24.093.314.314 0 0 1-.2-.056.947.947 0 0 1-.199-.231l-.047-.068.714-.481.087.129c.088.129.122.243.102.341z" transform="matrix(6.30054 0 0 6.30054 -997.088 1166.309)"/><path style="fill:#fff" d="M15.465 26.046c-.095-.018-.117.136-.144.199-.034.077-.037.154-.034.215.009.137.024.099.045.192-.078.004-.134.004-.211.032-.081.03-.131.043-.23.072-.071.021-.156.008-.221.053a.44.44 0 0 0-.151.17.327.327 0 0 0-.028.094c.004.041.046.037.085.033.081-.009.102-.105.162-.16.127-.117.347-.177.512-.177.098 0 .128.064.251.144.036.021.054.012.073-.028a.744.744 0 0 0 .04-.172 1.42 1.42 0 0 1 .083-.324c.022-.067.01-.138-.028-.163a.823.823 0 0 1-.108-.093zm1.668-.696c-.011-.021-.021-.041-.051-.031l.031.103c.03-.021.02-.053.02-.072zm-.247 0c-.02-.051-.02-.103-.092-.082v.102c.031-.01.072.02.092-.02zm1.284.019c.01-.02-.01-.029-.021-.051-.082-.02-.257-.072-.278.051zm-1.233.196v-.072c-.051-.02-.092.031-.102.053.02.04.071.01.102.019zm.514.032c.021-.051-.021-.072-.041-.104-.051.031-.051.053-.031.104zm.647-.051c-.042-.104-.154-.021-.174.02.031.052.071.062.124.052.039.009.05-.043.05-.072zm-1.089.215c-.02-.041-.062-.011-.092-.021l.02.072zm1.038 0-.566-.021c-.061.031 0 .072.021.104.196-.063.453.133.545-.083zm-2.959.225v-.072h-1.5l.021.072c.451.01.986.083 1.479 0zm1.994.021c0-.021-.042-.041-.072-.041l-.02.072c.03-.011.081.021.092-.031zm.913 0a1.36 1.36 0 0 0-.493 0c.154.041.401.041.493 0zm-2.958.175c-.462-.052-.904.009-1.325-.052l-.083.052c.451.041.955.041 1.408 0zm2.887.072c-.01-.011-.031-.021-.021-.042-.113 0-.277-.121-.298.042zm-.494-.021c-.021-.021-.041-.062-.071-.052-.042.03-.051.123.02.123.021-.02.061-.04.051-.071zm-2.393.176c-.412-.053-.874 0-1.284-.053l-.041.071c.452-.03.925.062 1.325 0zm2.816.051c-.032-.083-.114-.041-.175-.051-.051.01-.072.061-.021.09.061.063.164.012.196-.039zm-3.258.215v-.092h-.812l.021.092zm3.133 0c-.04-.041-.123-.011-.174-.021.011.051.062.092.124.071.029.01.061-.02.05-.05zm-3.328.175c-.165-.021-.433-.073-.524 0 .164.041.359.041.524 0zm3.226.051c-.114-.155-.31-.041-.443 0 .133.041.329.01.443.02zm-3.278.174c-.092-.051-.215-.021-.318-.031v.072zm1.583 0c-.257.021-.535-.062-.822-.031l.03.072.708.031c.043 0 .084-.041.084-.072zm1.571.072v-.072h-.513v.094zm-1.479.175c-.657-.021-1.232-.071-1.87-.052l-.031.072c.648-.04 1.305.094 1.901-.02zm1.387 0c-.143 0-.42-.021-.524.021l.524.021zm-1.46.165c-.574.009-1.232-.011-1.725 0l.021.081 1.756.021c.011-.041-.03-.071-.052-.102zm1.305.081c-.092-.124-.288 0-.389 0 .123 0 .297.103.389 0zm-1.447.165c-.462-.042-.946-.011-1.407-.021v.052c.431.051.862.031 1.355.072.02-.031.061-.051.052-.103zm1.274.081c0-.029.01-.06-.021-.081-.143.041-.38-.083-.421.103zm-1.48.165c-.329-.041-.689-.01-1.028-.021l-.031.021.102.052zm1.232.083.083-.083-.473-.021v.073c.061.02.164-.041.194.051-.01.267-.287 0-.369.144.154.011.298.094.442.031.021-.072-.042-.164.051-.194.011-.042.063-.042.072-.001zm-1.232.144c-.226-.053-.545-.041-.812-.072v.123l.812-.031zm.031.246c-.175-.175-.411.021-.617-.072.031.227.36.082.544.123zm.862-.021c-.123-.02-.338-.082-.401.042a.654.654 0 0 0 .401 0zm-.195.216c-.338-.041-.698-.01-1.037-.021l.021.072.936.021c.039.01.08-.031.08-.072zm-.298.226c-.155.051-.358-.112-.421.051l.421-.03zm.092-7.223c-.103-.041-.123-.153-.194-.225-.176-.073-.134.194-.298.225-.031-.123-.165-.123-.246-.173-.104.051-.073.154-.144.214-.073.021-.124-.02-.175-.041-.092.35-.442-.082-.493.268.205-.062.38.145.545-.103.164.298.215-.133.421-.04.195.358.37-.32.565.143.104-.021.195-.268.298-.071.123.206.297-.083.441-.032-.073-.113-.165.021-.267-.02a.817.817 0 0 1-.174-.318c-.124-.042-.165.143-.279.173zm-.39.659c-.102-.062.104-.208-.071-.196l-.031.227c.031-.011.082.019.102-.031zm.935.4c-.514-.144-1.262-.278-1.726.021.443.184 1.007.072 1.511.103zm-1.726.565v-.021c-.143 0-.297-.021-.421.021zm.196.021 1.931-.021-1.972-.021zm1.191 1.067c-.328-.575-.923-.606-1.334-.964l-.021.051c.257.123 0 .36.124.544-.031.186-.391.545.021.616.051-.062.134-.143.195-.102l-.174.298.297.216c-.133.082-.287-.083-.42-.165-.206-.051-.504-.226-.659-.051h.247c.196.051.03.247.042.37.051.062.051.215.154.194.021-.07-.052-.164-.031-.266 0-.092.093-.135.174-.123l.493.461c.134.071.196-.123.319-.021-.041.135-.226.154-.369.176.133.143.184.349.328.462.535.195.257.843.586 1.232.165.464-.534.523-.422.966.207-.021.125-.246.227-.349.104-.309.564-.34.473-.739.062-.33.381-.535.688-.586-.39-.042-.452-.473-.647-.721.041-.359-.164-.544-.144-.861-.086-.195-.023-.462-.147-.638Zm-1.509-.862c-.329-.143-.801-.051-1.203-.082l-.051.082c.421 0 .852.103 1.254 0zm3.307.02-.051-.102h-2.569l-.041.051.041.051c.863.042 1.757.042 2.62 0zm-3.277.175c-.432-.051-.895-.021-1.335-.03v.081c.493-.051.873.093 1.335-.03zm3.277 0h-2.075l.071.092 2.056-.021c0-.029-.042-.05-.052-.071zm-3.307.268v-.021c-.463-.052-.853-.021-1.326-.031v.052c.421.04.894.04 1.326 0zm3.379 0a19.433 19.433 0 0 0-1.901 0c.585.133 1.284.071 1.901.051zm-3.431.194c-.412-.041-.853-.009-1.274-.02l.021.072h1.232zm3.451.103v-.071l-1.675-.032v.083zm-3.523.197v-.094l-1.232-.03-.052.052c.41.133.801.05 1.284.072zm3.523-.022a8.949 8.949 0 0 0-1.521-.073v.094c.493.04 1.028.04 1.521 0zm-3.986.174a2.495 2.495 0 0 0-.791 0c.247.032.587.032.791 0zm4.018.041c-.494-.092-.955-.01-1.458-.071-.022.051-.114-.011-.073.071a.706.706 0 0 0 .596-.02c.256.205.638.01.936.073v-.053ZM14 24.856c-.093-.143-.361-.051-.536-.082v.102zm2.886 0a.12.12 0 0 0-.145.021c.022.032.062.041.093.052.021-.032.062-.041.052-.073zm1.304.072v-.072l-.513-.031c-.062.143.267.165.123.318.103 0 .277.021.39-.02v-.021c-.083-.062-.226.021-.287-.082.021-.185.184.001.287-.092zm-.636.196c-.041-.071-.073-.215-.195-.195-.062.134.133.257.174.371.041-.044.009-.115.021-.176zm-3.38-.072c-.206-.093-.473-.031-.709-.051l-.03.051c.205.133.492.051.739.071zm.247.247c-.237-.094-.638-.031-.957-.052v.052c.34 0 .648.051.957 0zm1.057-4.387c-.051.082-.102.205-.041.319l.165.145c.062-.084.185-.145.153-.269a.23.23 0 0 1-.072-.298c.062-.103.195-.122.288-.072.092.041.133.176.082.268-.113.051-.062.165-.082.248l.123.124c.125 0 .125-.145.227-.196-.021-.104-.154-.257 0-.35.04-.082.174-.133.246-.021.112.052.062.155.071.247-.051.083-.205.124-.144.247.052.051.124.143.195.073.195-.124.021-.422.246-.515.134 0 .207.082.247.194.051.176-.298.247-.144.39.349.052.133-.513.514-.411.041.092.258.217.073.319-.084.073-.237.124-.176.246.247.103.483-.503.668-.071.021.123-.134.154-.195.248-.34-.073-.443.287-.668.44.042.216-.288.35-.092.565l-.37.268c.411.216.914.123 1.356.03.349.895.287 2.076.041 3.012-.092.214-.195.439-.287.655-.473.956-1.15 1.892-2.075 2.518-2.035-1.213-2.928-3.565-2.486-5.815.009-.205.134-.462.39-.317.319.102.689.019.966-.125-.052-.143-.401-.185-.226-.4.062-.186-.268-.267-.195-.494-.205-.216-.4-.504-.719-.545-.042-.051-.011-.124-.021-.193a.265.265 0 0 1 .318-.073.702.702 0 0 0 .37.318c.03-.031.071-.031.102-.072-.04-.206-.39-.185-.298-.473.072-.092.186-.153.298-.092.145.123.073.451.371.461.226-.225-.514-.432 0-.637.113-.021.226.073.247.175-.083.154.021.287.124.392.102.008.113-.114.164-.176-.072-.103-.195-.206-.144-.371.114-.142.38-.153.39.084z" transform="matrix(6.30054 0 0 6.30054 -997.088 1166.309)"/></g><g style="display:inline;fill:#fff"><g style="font-style:normal;font-variant:normal;font-weight:400;font-stretch:normal;font-size:45.86111069px;line-height:1.25;font-family:'Source Code Variable';-inkscape-font-specification:'Source Code Variable, Normal';font-variant-ligatures:normal;font-variant-caps:normal;font-variant-numeric:normal;font-feature-settings:normal;text-align:start;letter-spacing:0;word-spacing:0;writing-mode:lr-tb;text-anchor:start;fill:#fff;fill-opacity:1;stroke:none;stroke-width:.26458332" aria-label="polithack"><path style="font-style:normal;font-variant:normal;font-weight:600;font-stretch:normal;font-size:45.86111069px;font-family:'Source Code Variable';-inkscape-font-specification:'Source Code Variable Semi-Bold';font-variant-ligatures:normal;font-variant-caps:normal;font-variant-numeric:normal;font-feature-settings:normal;text-align:start;letter-spacing:2.64583325px;writing-mode:lr-tb;text-anchor:start;fill:#fff;stroke-width:.26458332" d="M95.34 349.19h5.32v-7.108l-.275-3.944h.137c1.789 1.697 4.082 2.66 6.1 2.66 5.228 0 9.998-4.448 9.998-12.107 0-7.017-3.302-11.511-9.173-11.511-2.568 0-5.274 1.33-7.246 3.118h-.137l-.413-2.568H95.34Zm10.181-12.749c-1.33 0-3.21-.55-4.861-2.018v-10.135c1.789-1.88 3.623-2.706 5.32-2.706 3.623 0 5.228 2.614 5.228 7.109 0 5.09-2.477 7.75-5.687 7.75zM135.482 340.798c5.916 0 11.282-4.31 11.282-11.74 0-7.567-5.366-11.878-11.282-11.878-5.962 0-11.327 4.31-11.327 11.878 0 7.43 5.365 11.74 11.327 11.74zm0-4.31c-3.714 0-5.916-2.936-5.916-7.43 0-4.54 2.202-7.522 5.916-7.522 3.67 0 5.87 2.981 5.87 7.522 0 4.494-2.2 7.43-5.87 7.43zM170.259 340.798c2.614 0 4.173-.459 6.375-1.238l-1.239-3.944c-1.467.596-2.705.871-3.852.871-2.293 0-4.036-1.146-4.036-4.127v-24.49h-12.84v4.22h7.52v19.994c0 5.504 2.798 8.714 8.072 8.714zM195.588 340.248h5.274V317.73h-14.996v4.22h9.722zm2.293-26.6c2.201 0 3.76-1.421 3.76-3.531 0-2.11-1.559-3.577-3.76-3.577-2.201 0-3.76 1.467-3.76 3.577s1.559 3.531 3.76 3.531zM230.09 340.798c2.889 0 5.182-.596 7.2-1.238l-1.055-3.898c-1.468.55-3.027.917-4.907.917-3.807 0-5.183-1.651-5.183-5.366v-9.264h10.227v-4.219h-10.227v-7.017h-4.402l-.688 7.017-6.237.275v3.944h6.008v9.264c0 5.733 2.338 9.585 9.263 9.585zM246.063 340.248h5.32V324.93c2.064-2.11 3.531-3.164 5.778-3.164 3.027 0 4.174 1.65 4.174 5.228v13.254h5.32v-13.942c0-5.779-2.34-9.126-7.522-9.126-3.44 0-5.962 1.788-7.934 3.898h-.137l.32-4.816v-8.392h-5.319zM283.178 340.798c3.027 0 6.054-1.513 8.439-3.302h.137l.413 2.752h4.357v-13.3c0-6.283-3.44-9.768-9.677-9.768-3.898 0-7.567 1.513-10.318 3.164l1.972 3.485c2.339-1.284 4.815-2.384 7.337-2.384 3.715 0 5.183 1.926 5.366 4.448-11.098.78-15.547 3.302-15.547 8.347 0 3.898 3.165 6.558 7.521 6.558zm1.606-4.127c-2.248 0-3.99-.872-3.99-2.844 0-2.43 2.339-4.127 10.41-4.632v4.724c-2.064 1.697-4.173 2.752-6.42 2.752zM318.368 340.798c3.21 0 6.512-1.146 9.126-3.394l-2.247-3.393c-1.743 1.33-3.852 2.476-6.42 2.476-4.403 0-7.476-2.935-7.476-7.43 0-4.54 3.119-7.52 7.659-7.52 2.018 0 3.76.733 5.549 2.155l2.476-3.302c-1.834-1.835-4.677-3.21-8.3-3.21-6.88 0-12.796 4.31-12.796 11.878 0 7.43 5.366 11.74 12.429 11.74zM336.818 340.248h5.32v-5.87l16.234-16.648h-5.916l-10.135 10.41h-.183v-20.27h-5.32zm16.693 0h5.779l-10.32-14.4-3.118 3.347z" transform="matrix(.60926 0 0 .60926 174.028 1142.559)"/></g><g style="display:inline;fill:#fff"><path style="fill:#fff;fill-opacity:1;stroke:#000;stroke-width:.1;stroke-linecap:square;stroke-linejoin:miter;stroke-miterlimit:4;stroke-dasharray:none;stroke-opacity:1;paint-order:normal" d="m227.315 53.803-6.615 92.604-3.968 6.614v18.521h-3.97v3.969h2.647v5.292c-15.875 14.552-21.167 33.072-25.136 52.916l-3.175 3.44.53.529h2.645v10.583l-5.291 3.97v42.332h27.78l37.15-101.221a66.5 66.5 0 0 0-10.69-12.55v-5.291h2.645v-3.969h-3.969v-18.52l-3.969-6.615-6.614-92.604m0 240.77h-7.938l34.228-94.917c5.45 10.474 8.344 22.025 10.752 34.063l3.175 3.44-.53.529h-2.645v10.583l5.291 3.97v42.332h-42.333" transform="matrix(.60926 0 0 .60926 174.028 1142.559)"/><path style="fill:#fff;fill-opacity:1;stroke:#000;stroke-width:.26458332px;stroke-linecap:butt;stroke-linejoin:miter;stroke-opacity:1" d="M95.023 245.625v2.646l63.5 44.98v-7.938l-56.885-39.688m-6.615 0v-2.645l63.5-44.98v7.938l-56.885 39.687M359.607 245.625v2.646l-63.5 44.98v-7.938l56.885-39.688m6.615 0v-2.645l-63.5-44.98v7.938l56.885 39.687" transform="matrix(.60926 0 0 .60926 174.028 1142.559)"/></g></g><g clip-path="url(#e)" transform="translate(-1.144)"><g id="b"><g clip-path="url(#f)" transform="translate(-3408.23 879.996)"><g id="a"><text x="2566.678" y="280.07" xml:space="preserve" style="font-style:normal;font-weight:400;font-size:220.1333313px;line-height:1.25;font-family:sans-serif;letter-spacing:0;word-spacing:0;fill:#000;fill-opacity:1;stroke:none;stroke-width:.26458332"><tspan style="stroke-width:.26458332" x="3531.266" y="-nan"><tspan style="font-style:normal;font-variant:normal;font-weight:400;font-stretch:normal;font-size:256.82223511px;font-family:'League Gothic';-inkscape-font-specification:'League Gothic';fill:#fff;stroke-width:.26458332" x="2566.678" y="280.07">M</tspan><tspan style="fill:none;stroke-width:.26458332" x="2691.076" y="280.07">0</tspan><tspan style="font-style:normal;font-variant:normal;font-weight:400;font-stretch:normal;font-size:256.82223511px;font-family:'League Gothic';-inkscape-font-specification:'League Gothic';fill:#fff;stroke-width:.26458332" x="2781.867" y="280.07" dx="0 0 0 0 0 0">LECON 2</tspan><tspan style="fill:none;stroke-width:.26458332" x="3348.682" y="280.07">0</tspan><tspan style="font-style:normal;font-variant:normal;font-weight:400;font-stretch:normal;font-size:256.82223511px;font-family:'League Gothic';-inkscape-font-specification:'League Gothic';fill:#fff;stroke-width:.26458332" x="3439.472" y="280.07">2</tspan><tspan style="fill:none;stroke-width:.26458332" x="3531.266" y="280.07">0</tspan></tspan></text><path d="M3367.137 271.356c-2.404-2.816-4.234-5.912-5.672-9.106-2.856-5.972-4.414-12.984-4.674-20.774V129.037c.26-7.53 1.818-14.542 4.674-20.514 2.337-5.194 5.713-10.387 10.907-14.282 5.193-3.895 12.464-6.492 21.812-6.492 8.194 0 14.592 1.995 19.545 5.11l-10.196 39.062v-2.884c0-5.193-1.039-8.829-3.636-11.945-1.298-1.298-3.375-2.077-5.713-2.077-4.933 0-7.27 3.635-8.31 7.01-.778 2.078-1.038 4.415-1.038 7.012v74.512zm17.7-34.862v4.982c0 5.453 1.297 9.089 3.894 11.945 1.299 1.298 3.116 2.078 5.453 2.078 4.934 0 7.271-3.117 8.31-7.012.78-1.817 1.039-4.154 1.039-7.01v-75.95l17.479-66.338c2.502 2.906 4.445 6.12 5.891 9.334 2.857 5.972 4.415 12.983 4.675 20.514v112.44c-.26 7.79-1.818 14.8-4.675 20.773-2.337 5.194-5.972 10.127-11.166 14.022-5.193 4.155-12.204 6.492-21.553 6.492-8.39 0-15.106-1.882-20.15-5.272zM3549.242 271.885c-2.404-2.816-4.234-5.912-5.672-9.106-2.856-5.972-4.414-12.984-4.674-20.774V129.566c.26-7.53 1.818-14.542 4.674-20.514 2.337-5.194 5.713-10.387 10.907-14.282 5.193-3.895 12.464-6.492 21.812-6.492 8.194 0 14.592 1.995 19.545 5.11l-10.196 39.062v-2.884c0-5.193-1.04-8.829-3.636-11.945-1.298-1.298-3.376-2.077-5.713-2.077-4.934 0-7.27 3.635-8.31 7.011-.778 2.077-1.038 4.414-1.038 7.011v74.512zm17.699-34.862v4.982c0 5.453 1.298 9.089 3.895 11.945 1.299 1.299 3.116 2.078 5.453 2.078 4.934 0 7.271-3.116 8.31-7.012.779-1.817 1.039-4.154 1.039-7.01v-75.95l17.478-66.338c2.503 2.906 4.446 6.12 5.892 9.334 2.857 5.972 4.415 12.984 4.675 20.514v112.44c-.26 7.79-1.818 14.8-4.675 20.773-2.337 5.194-5.972 10.127-11.166 14.023-5.193 4.154-12.204 6.491-21.553 6.491-8.39 0-15.106-1.882-20.15-5.271z" style="font-style:normal;font-variant:normal;font-weight:400;font-stretch:normal;font-size:282.222229px;line-height:1.25;font-family:'League Gothic';-inkscape-font-specification:'League Gothic, Normal';font-variant-ligatures:normal;font-variant-caps:normal;font-variant-numeric:normal;font-feature-settings:normal;text-align:start;letter-spacing:0;word-spacing:0;writing-mode:lr-tb;text-anchor:start;display:inline;opacity:1;fill:#fff;fill-opacity:1;stroke:none;stroke-width:.31409961"/><path d="M2709.011 271.875c-2.404-2.816-4.234-5.912-5.671-9.106-2.857-5.973-4.415-12.984-4.675-20.774V129.556c.26-7.53 1.818-14.542 4.675-20.514 2.337-5.194 5.712-10.387 10.906-14.282 5.193-3.896 12.464-6.492 21.813-6.492 8.193 0 14.591 1.995 19.544 5.11l-10.196 39.062v-2.884c0-5.194-1.039-8.829-3.636-11.945-1.298-1.298-3.375-2.077-5.712-2.077-4.934 0-7.271 3.635-8.31 7.01-.779 2.078-1.039 4.415-1.039 7.012v74.512zm17.7-34.862v4.982c0 5.453 1.298 9.089 3.894 11.945 1.299 1.298 3.117 2.077 5.454 2.077 4.933 0 7.27-3.116 8.31-7.01.778-1.818 1.038-4.156 1.038-7.012v-75.948l17.479-66.34c2.502 2.907 4.445 6.12 5.892 9.335 2.856 5.972 4.414 12.983 4.674 20.514v112.439c-.26 7.79-1.818 14.801-4.674 20.774-2.337 5.193-5.973 10.127-11.166 14.022-5.194 4.155-12.205 6.492-21.553 6.492-8.39 0-15.107-1.882-20.15-5.272z" style="font-style:normal;font-variant:normal;font-weight:400;font-stretch:normal;font-size:282.222229px;line-height:1.25;font-family:'League Gothic';-inkscape-font-specification:'League Gothic, Normal';font-variant-ligatures:normal;font-variant-caps:normal;font-variant-numeric:normal;font-feature-settings:normal;text-align:start;letter-spacing:0;word-spacing:0;writing-mode:lr-tb;text-anchor:start;display:inline;opacity:1;fill:#f6ba5a;fill-opacity:1;stroke:none;stroke-width:.31409961"/></g></g><text x="-860.667" y="911.865" xml:space="preserve" style="font-style:normal;font-weight:400;font-size:92.16652679px;line-height:1.25;font-family:sans-serif;letter-spacing:0;word-spacing:0;fill:#000;fill-opacity:1;stroke:none;stroke-width:2.30416322"><tspan style="font-size:39.51111221px;stroke-width:2.30416322" x="-100.85" y="0"><tspan style="font-style:normal;font-variant:normal;font-weight:400;font-stretch:normal;font-size:39.51111221px;font-family:Montserrat;-inkscape-font-specification:Montserrat;fill:#fff;stroke-width:2.30416322" x="-860.667" y="911.865">COMPUTER SECURITY CONFERENCE </tspan><tspan style="font-size:39.51111221px;fill:#f9ba5a;fill-opacity:1;stroke-width:2.30416322" x="-112.348" y="911.865">|</tspan><tspan style="font-style:normal;font-variant:normal;font-weight:400;font-stretch:normal;font-size:39.51111221px;font-family:Montserrat;-inkscape-font-specification:Montserrat;fill:#fff;stroke-width:2.30416322" x="-100.85" y="911.865"> CTF COMPETITION</tspan></tspan></text><text x="-666.458" y="1241.443" xml:space="preserve" style="font-style:normal;font-weight:400;font-size:10.58333302px;line-height:1.25;font-family:sans-serif;letter-spacing:0;word-spacing:0;fill:#000;fill-opacity:1;stroke:none;stroke-width:.26458332"><tspan style="font-size:39.51111221px;stroke-width:.26458332" x="-146.486" y="0"><tspan style="font-style:normal;font-variant:normal;font-weight:400;font-stretch:normal;font-size:39.51111221px;font-family:Montserrat;-inkscape-font-specification:Montserrat;fill:#fff;stroke-width:.26458332" x="-666.458" y="1241.443">POLITECNICO DI TORINO, </tspan><tspan style="font-size:39.51111221px;fill:#f9ba5a;fill-opacity:1;stroke-width:.26458332" x="-146.486" y="1241.443" dx="0 0 0 0 0 0 0 0 0 0">30/11/2020</tspan></tspan></text></g></g></g></g></g></svg>