<?xml version="1.0" encoding="UTF-8" standalone="no"?>
<!-- Created with Inkscape (http://www.inkscape.org/) -->

<svg
   version="1.1"
   id="svg25"
   xml:space="preserve"
   width="1134.6667"
   height="420"
   viewBox="0 0 1134.6667 420"
   sodipodi:docname="aizoon_bianco_countries.svg"
   inkscape:version="1.1.1 (3bf5ae0d25, 2021-09-20)"
   xmlns:inkscape="http://www.inkscape.org/namespaces/inkscape"
   xmlns:sodipodi="http://sodipodi.sourceforge.net/DTD/sodipodi-0.dtd"
   xmlns="http://www.w3.org/2000/svg"
   xmlns:svg="http://www.w3.org/2000/svg"><defs
     id="defs29"><clipPath
       clipPathUnits="userSpaceOnUse"
       id="clipPath39"><path
         d="M 0,315 H 851 V 0 H 0 Z"
         id="path37" /></clipPath></defs><sodipodi:namedview
     id="namedview27"
     pagecolor="#ffffff"
     bordercolor="#666666"
     borderopacity="1.0"
     inkscape:pageshadow="2"
     inkscape:pageopacity="0.0"
     inkscape:pagecheckerboard="0"
     showgrid="false"
     inkscape:zoom="1.5202702"
     inkscape:cx="425.91114"
     inkscape:cy="210.16002"
     inkscape:window-width="1920"
     inkscape:window-height="1015"
     inkscape:window-x="0"
     inkscape:window-y="0"
     inkscape:window-maximized="1"
     inkscape:current-layer="g31" /><g
     id="g31"
     inkscape:groupmode="layer"
     inkscape:label="aizoon_bianco_countries"
     transform="matrix(1.3333333,0,0,-1.3333333,0,420)"><g
       id="g33"><g
         id="g35"
         clip-path="url(#clipPath39)"><g
           id="g41"
           transform="translate(454.36,198.0137)"><path
             d="M 0,0 C 20.661,3.889 40.694,-6.375 43.658,-24.282 46.616,-42.183 31.112,-59.103 10.434,-62.986 -10.238,-66.863 -30.26,-56.624 -33.223,-38.71 -36.182,-20.785 -20.666,-3.883 0,0 m 2.164,-2.75 c -19.55,-3.693 -32.293,-19.15 -29.875,-33.651 2.395,-14.502 19.332,-24.394 38.882,-20.718 19.561,3.661 32.291,19.144 29.88,33.621 C 38.657,-9.009 21.725,0.912 2.164,-2.75"
             style="fill:#ffffff;fill-opacity:1;fill-rule:nonzero;stroke:none"
             id="path43" /></g><g
           id="g45"
           transform="translate(532.6915,232.7925)"><path
             d="m 0,0 c 30.582,6.773 59.628,-11.164 63.904,-41.521 4.276,-30.375 -18.123,-59.637 -48.717,-66.404 -30.582,-6.748 -59.622,11.177 -63.898,41.534 C -52.987,-36.04 -30.594,-6.761 0,0 m -0.806,-3.822 c -29.575,-6.54 -49.441,-34.294 -45.689,-60.989 3.764,-26.708 30.007,-44.277 59.57,-37.736 29.588,6.533 49.436,34.263 45.706,60.989 -3.775,26.676 -30.018,44.252 -59.587,37.736"
             style="fill:#ffffff;fill-opacity:1;fill-rule:nonzero;stroke:none"
             id="path47" /></g><g
           id="g49"
           transform="translate(802.5445,80.854)"><path
             d="m 0,0 h 2.803 v 13.068 h -7.446 v -2.975 h 3.923 c 0,-5.439 -1.052,-7.631 -3.895,-7.594 -2.515,0 -3.758,2.021 -3.758,10.006 0,7.943 1.409,9.816 4.057,9.816 2.544,0 3.269,-2.184 3.269,-4.034 v -0.589 h 3.529 v 0.447 c 0,2.267 -0.986,7.171 -6.833,7.171 -5.398,0 -7.758,-4.029 -7.758,-12.91 0,-8.879 1.842,-12.89 6.941,-12.89 2.745,0 4.092,1.06 5.105,3.363 l 0.063,0 z m -32.625,0 h 3.528 v 18.991 h 0.063 L -22.254,0 h 4.534 v 24.82 h -3.527 V 6.319 h -0.058 L -28.09,24.82 h -4.535 z m -9.738,0 h 3.718 v 24.82 h -3.718 z m -13.472,0 h 3.718 v 21.502 h 5.474 v 3.318 h -14.746 v -3.318 h 5.554 z m -18.071,0 h 12.736 v 3.338 h -9.018 V 24.82 h -3.718 z M -93.663,24.82 V 7.325 c 0,-5.739 2.688,-7.809 7.159,-7.809 4.449,0 7.131,2.07 7.131,7.809 V 24.82 h -3.718 V 7.012 c 0,-3.123 -1.185,-4.513 -3.413,-4.513 -2.261,0 -3.435,1.39 -3.435,4.513 V 24.82 Z M -113.501,7.686 V 7.098 c 0,-3.492 1.307,-7.582 7.097,-7.582 4.707,0 7.7,2.187 7.7,7.471 0,3.417 -1.428,5.316 -4.725,6.566 l -2.515,0.986 c -2.486,1.01 -3.505,2.088 -3.505,4.207 0,2.633 1.537,3.575 3.142,3.575 2.32,0 3.27,-1.315 3.27,-3.575 v -0.52 h 3.717 v 0.556 c 0,2.572 -0.615,6.534 -6.589,6.534 -4.386,0 -7.264,-2.51 -7.264,-7.029 0,-3.553 1.468,-5.427 4.869,-6.822 l 2.55,-0.933 c 2.095,-0.66 3.338,-1.8 3.338,-4.414 0,-1.844 -1.174,-3.619 -3.528,-3.619 -2.59,0 -3.827,1.53 -3.827,4.562 V 7.686 Z M -133.729,0 h 3.522 v 18.991 h 0.064 L -123.376,0 h 4.541 v 24.82 h -3.528 V 6.319 h -0.063 l -6.768,18.501 h -4.535 z m -13.346,2.499 c -2.227,0 -3.982,1.464 -3.982,10.006 0,8.366 1.755,9.816 3.982,9.816 2.227,0 4,-1.45 4,-9.816 0,-8.542 -1.773,-10.006 -4,-10.006 m 0,-2.983 c 5.364,0 7.711,4.011 7.711,12.89 0,8.881 -2.347,12.91 -7.711,12.91 -5.358,0 -7.712,-4.029 -7.712,-12.91 0,-8.879 2.354,-12.89 7.712,-12.89 M -162.89,8.904 V 8.481 c 0,-2.302 -0.362,-5.982 -3.465,-5.982 -2.75,0 -3.987,2.021 -3.987,10.006 0,8.005 1.237,9.816 3.987,9.816 2.682,0.093 3.333,-2.528 3.333,-4.824 v -0.424 h 3.729 v 0.461 c 0,2.571 -0.403,7.782 -7.027,7.782 -5.916,0 -7.752,-4.029 -7.752,-12.91 0,-8.879 1.836,-12.89 7.717,-12.89 5.479,0 7.189,4.373 7.189,8.868 v 0.52 z M -196.402,0 h 3.73 v 9.701 l 6.238,15.119 h -3.884 l -4.023,-10.704 -3.92,10.704 h -4.149 l 6.008,-15.119 z m -12.281,0 h 2.809 v 13.068 h -7.458 v -2.975 h 3.924 c 0,-5.439 -1.041,-7.631 -3.89,-7.594 -2.521,0 -3.758,2.021 -3.758,10.006 0,7.943 1.409,9.816 4.051,9.816 2.556,0 3.275,-2.184 3.275,-4.034 v -0.589 h 3.528 v 0.447 c 0,2.267 -0.979,7.171 -6.831,7.171 -5.399,0 -7.747,-4.029 -7.747,-12.91 0,-8.879 1.825,-12.89 6.929,-12.89 2.745,0 4.092,1.06 5.094,3.363 h 0.074 z m -24.878,2.499 c -2.234,0 -3.989,1.464 -3.989,10.006 0,8.366 1.755,9.816 3.989,9.816 2.221,0 3.987,-1.45 3.987,-9.816 0,-8.542 -1.766,-10.006 -3.987,-10.006 m 0,-2.983 c 5.363,0 7.711,4.011 7.711,12.89 0,8.881 -2.348,12.91 -7.711,12.91 -5.37,0 -7.713,-4.029 -7.713,-12.91 0,-8.879 2.343,-12.89 7.713,-12.89 M -257.98,0 h 12.747 v 3.338 h -9.03 V 24.82 h -3.717 z m -12.914,2.499 c -2.222,0 -3.995,1.464 -3.995,10.006 0,8.366 1.773,9.816 3.995,9.816 2.227,0 3.988,-1.45 3.988,-9.816 0,-8.542 -1.761,-10.006 -3.988,-10.006 m 0,-2.983 c 5.369,0 7.711,4.011 7.711,12.89 0,8.881 -2.342,12.91 -7.711,12.91 -5.358,0 -7.701,-4.029 -7.701,-12.91 0,-8.879 2.343,-12.89 7.701,-12.89 M -299.135,0 h 3.54 v 18.991 h 0.057 L -288.77,0 h 4.541 v 24.82 h -3.528 V 6.319 h -0.069 l -6.773,18.501 h -4.536 z m -20.499,0 h 3.729 v 11.544 h 6.878 V 0 h 3.717 v 24.82 h -3.717 v -9.938 h -6.878 v 9.938 h -3.729 z m -8.655,8.904 V 8.481 c 0,-2.302 -0.363,-5.982 -3.471,-5.982 -2.745,0 -3.988,2.021 -3.988,10.006 0,8.005 1.243,9.816 3.988,9.816 2.688,0.093 3.332,-2.528 3.332,-4.824 v -0.424 h 3.724 v 0.461 c 0,2.571 -0.386,7.782 -7.021,7.782 -5.91,0 -7.741,-4.029 -7.741,-12.91 0,-8.879 1.831,-12.89 7.706,-12.89 5.496,0 7.194,4.373 7.194,8.868 v 0.52 z M -356.955,0 h 12.868 v 3.338 h -9.145 v 7.93 h 8.357 v 3.35 h -8.357 v 6.884 h 8.886 v 3.318 h -12.609 z m -13.628,0 h 3.712 v 21.502 h 5.461 v 3.318 h -14.738 v -3.318 h 5.565 z"
             style="fill:#ffffff;fill-opacity:1;fill-rule:nonzero;stroke:none"
             id="path51" /></g><g
           id="g53"
           transform="translate(655.7516,168.8262)"><path
             d="m 0,0 c -3.579,0 -6.469,3.129 -6.469,7.006 0,3.876 2.89,7.018 6.469,7.018 3.573,0 6.456,-3.142 6.456,-7.018 C 6.456,3.129 3.573,0 0,0 m -7.867,7.006 c 0,-4.612 3.527,-8.366 7.867,-8.366 4.339,0 7.855,3.754 7.855,8.366 0,4.63 -3.516,8.359 -7.855,8.359 -4.34,0 -7.867,-3.729 -7.867,-8.359 m 6.123,0.521 v 2.97 h 1.917 c 0.967,0 1.985,-0.153 1.985,-1.44 0,-1.457 -1.129,-1.53 -2.388,-1.53 z M -3.137,2.076 h 1.393 V 6.167 H -0.23 L 2.302,2.076 H 3.705 L 1.07,6.283 c 1.405,0.153 2.487,0.98 2.487,2.725 0,1.923 -1.106,2.842 -3.131,2.842 h -3.563 z"
             style="fill:#ffffff;fill-opacity:1;fill-rule:nonzero;stroke:none"
             id="path55" /></g><path
           d="m 369.911,184.308 h -9.617 v -46.39 h 9.617 z"
           style="fill:#ffffff;fill-opacity:1;fill-rule:nonzero;stroke:none"
           id="path57" /><g
           id="g59"
           transform="translate(380.0914,176.2304)"><path
             d="M 0,0 H 22.427 L -1.681,-31.129 v -7.184 H 36.7 v 8.078 H 10.474 L 35.433,0.906 V 8.077 L 0,8.077 Z"
             style="fill:#ffffff;fill-opacity:1;fill-rule:nonzero;stroke:none"
             id="path61" /></g><g
           id="g63"
           transform="translate(618.4068,185.5571)"><path
             d="M 0,0 H 0.34 C 11.908,-0.159 19.17,-8.212 19.17,-18.531 V -47.645 H 9.554 v 29.156 c 0,4.887 -4.627,8.28 -9.387,8.28 -4.766,0 -9.393,-3.393 -9.393,-8.28 v -29.156 h -9.616 v 29.114 C -18.842,-8.212 -11.567,-0.159 0,0"
             style="fill:#ffffff;fill-opacity:1;fill-rule:nonzero;stroke:none"
             id="path65" /></g><g
           id="g67"
           transform="translate(341.8897,160.5957)"><path
             d="m 0,0 c -0.288,-8.604 -6.871,-15.482 -15.021,-15.482 -8.321,0 -15.066,7.189 -15.066,16.039 0,8.868 6.745,16.039 15.066,16.039 8.15,0 14.733,-6.883 15.021,-15.469 z M 8.88,-22.666 V 23.675 H 0 v -4.372 c -4.052,3.662 -9.283,5.891 -15.021,5.891 -12.787,0 -23.158,-11.03 -23.158,-24.637 0,-13.613 10.371,-24.643 23.158,-24.643 5.738,0 10.969,2.235 15.021,5.904 l -0.012,-4.416 0.047,-0.068 z"
             style="fill:#ffffff;fill-opacity:1;fill-rule:nonzero;stroke:none"
             id="path69" /></g><g
           id="g71"
           transform="translate(697.3424,212.6958)"><path
             d="m 0,0 h 3.137 l 6.25,-17.291 H 6.169 l -1.265,3.561 h -6.636 l -1.318,-3.561 h -3.217 z m 1.588,-4.587 -2.181,-5.934 h 4.345 z"
             style="fill:#ffffff;fill-opacity:1;fill-rule:nonzero;stroke:none"
             id="path73" /></g><g
           id="g75"
           transform="translate(709.0142,212.6958)"><path
             d="m 0,0 h 3.102 v -11.183 c 0,-0.961 0.08,-1.644 0.236,-2.042 0.161,-0.401 0.42,-0.72 0.783,-0.958 0.368,-0.239 0.805,-0.359 1.322,-0.359 0.541,0 1.014,0.132 1.406,0.401 0.396,0.264 0.667,0.604 0.817,1.017 0.155,0.41 0.23,1.194 0.23,2.352 V 0 h 3.102 v -10.31 c 0,-1.739 -0.092,-2.946 -0.277,-3.619 -0.184,-0.677 -0.535,-1.326 -1.053,-1.951 -0.518,-0.627 -1.116,-1.093 -1.795,-1.393 -0.68,-0.303 -1.467,-0.453 -2.365,-0.453 -1.174,0 -2.204,0.288 -3.074,0.863 -0.875,0.576 -1.497,1.296 -1.876,2.165 C 0.184,-13.834 0,-12.371 0,-10.31 Z"
             style="fill:#ffffff;fill-opacity:1;fill-rule:nonzero;stroke:none"
             id="path77" /></g><g
           id="g79"
           transform="translate(732.1266,210.3442)"><path
             d="m 0,0 -2.291,-2.149 c -0.8,1.188 -1.622,1.784 -2.451,1.784 -0.409,0 -0.743,-0.115 -1.002,-0.345 -0.253,-0.233 -0.385,-0.493 -0.385,-0.784 0,-0.288 0.092,-0.563 0.275,-0.821 0.253,-0.346 1.008,-1.087 2.268,-2.223 1.18,-1.05 1.899,-1.712 2.147,-1.984 0.627,-0.674 1.076,-1.32 1.335,-1.935 0.265,-0.616 0.392,-1.286 0.392,-2.015 0,-1.421 -0.461,-2.59 -1.382,-3.515 -0.922,-0.925 -2.123,-1.387 -3.602,-1.387 -1.158,0 -2.17,0.303 -3.028,0.903 -0.857,0.606 -1.593,1.552 -2.204,2.848 l 2.602,1.665 c 0.782,-1.524 1.68,-2.29 2.699,-2.29 0.528,0 0.978,0.165 1.335,0.496 0.363,0.328 0.541,0.708 0.541,1.139 0,0.392 -0.133,0.784 -0.409,1.176 -0.271,0.392 -0.875,0.989 -1.801,1.797 -1.772,1.535 -2.912,2.722 -3.431,3.555 -0.517,0.833 -0.776,1.666 -0.776,2.499 0,1.197 0.431,2.226 1.289,3.086 0.858,0.858 1.923,1.286 3.183,1.286 0.811,0 1.582,-0.201 2.313,-0.6 C -1.646,1.788 -0.853,1.059 0,0"
             style="fill:#ffffff;fill-opacity:1;fill-rule:nonzero;stroke:none"
             id="path81" /></g><g
           id="g83"
           transform="translate(733.7603,212.6958)"><path
             d="M 0,0 H 8.984 V -3.246 H 6.02 V -17.291 H 2.884 v 14.045 l -2.884,0 z"
             style="fill:#ffffff;fill-opacity:1;fill-rule:nonzero;stroke:none"
             id="path85" /></g><g
           id="g87"
           transform="translate(745.0748,212.6958)"><path
             d="M 0,0 H 3.275 C 5.07,0 6.348,-0.172 7.108,-0.514 7.873,-0.851 8.483,-1.421 8.944,-2.211 9.41,-3.001 9.64,-3.938 9.64,-5.022 9.64,-6.155 9.387,-7.107 8.874,-7.869 8.362,-8.635 7.591,-9.211 6.561,-9.602 l 3.85,-7.689 H 7.027 L 3.373,-9.97 H 3.091 v -7.321 H 0 Z m 3.091,-6.761 h 0.966 c 0.985,0 1.663,0.141 2.032,0.413 0.374,0.276 0.558,0.732 0.558,1.369 0,0.377 -0.092,0.704 -0.276,0.986 -0.184,0.275 -0.426,0.478 -0.737,0.6 -0.31,0.123 -0.874,0.184 -1.696,0.184 H 3.091 Z"
             style="fill:#ffffff;fill-opacity:1;fill-rule:nonzero;stroke:none"
             id="path89" /></g><g
           id="g91"
           transform="translate(762.9439,212.6958)"><path
             d="M 0,0 H 3.137 L 9.381,-17.291 H 6.169 l -1.271,3.561 h -6.629 l -1.325,-3.561 h -3.211 z m 1.583,-4.587 -2.176,-5.934 h 4.346 z"
             style="fill:#ffffff;fill-opacity:1;fill-rule:nonzero;stroke:none"
             id="path93" /></g><g
           id="g95"
           transform="translate(774.7193,212.6958)"><path
             d="m 0,0 h 3.096 v -14.153 h 4.506 v -3.138 H 0 Z"
             style="fill:#ffffff;fill-opacity:1;fill-rule:nonzero;stroke:none"
             id="path97" /></g><path
           d="m 784.45,212.696 h 3.074 v -17.291 h -3.074 z"
           style="fill:#ffffff;fill-opacity:1;fill-rule:nonzero;stroke:none"
           id="path99" /><g
           id="g101"
           transform="translate(795.9605,212.6958)"><path
             d="m 0,0 h 3.137 l 6.25,-17.291 H 6.169 l -1.265,3.561 h -6.635 l -1.319,-3.561 h -3.217 z m 1.589,-4.587 -2.182,-5.934 h 4.346 z"
             style="fill:#ffffff;fill-opacity:1;fill-rule:nonzero;stroke:none"
             id="path103" /></g><g
           id="g105"
           transform="translate(725.4498,183.8086)"><path
             d="M 0,0 H 8.869 V -3.221 H 3.068 V -6.348 H 8.869 V -9.511 H 3.068 v -4.55 h 5.801 v -3.23 H 0 Z"
             style="fill:#ffffff;fill-opacity:1;fill-rule:nonzero;stroke:none"
             id="path107" /></g><g
           id="g109"
           transform="translate(737.0933,183.8086)"><path
             d="m 0,0 h 3.102 v -11.183 c 0,-0.961 0.08,-1.644 0.236,-2.042 0.161,-0.401 0.419,-0.72 0.782,-0.959 0.369,-0.238 0.806,-0.358 1.323,-0.358 0.541,0 1.014,0.132 1.405,0.401 0.397,0.264 0.668,0.604 0.817,1.017 0.156,0.41 0.231,1.194 0.231,2.352 V 0 h 3.102 v -10.31 c 0,-1.739 -0.092,-2.946 -0.277,-3.619 -0.184,-0.677 -0.535,-1.326 -1.053,-1.951 -0.519,-0.627 -1.116,-1.093 -1.795,-1.393 -0.681,-0.303 -1.468,-0.453 -2.366,-0.453 -1.174,0 -2.204,0.288 -3.073,0.863 -0.875,0.576 -1.497,1.295 -1.876,2.165 C 0.184,-13.834 0,-12.371 0,-10.31 Z"
             style="fill:#ffffff;fill-opacity:1;fill-rule:nonzero;stroke:none"
             id="path111" /></g><g
           id="g113"
           transform="translate(751.8892,183.8086)"><path
             d="m 0,0 h 3.279 c 1.79,0 3.069,-0.171 3.834,-0.514 0.76,-0.337 1.369,-0.907 1.835,-1.697 0.461,-0.79 0.698,-1.727 0.698,-2.811 0,-1.133 -0.26,-2.085 -0.772,-2.847 C 8.361,-8.635 7.591,-9.21 6.561,-9.602 l 3.849,-7.689 H 7.032 L 3.379,-9.97 H 3.097 v -7.321 H 0 Z m 3.097,-6.761 h 0.965 c 0.985,0 1.664,0.141 2.033,0.413 0.368,0.276 0.557,0.732 0.557,1.369 0,0.377 -0.091,0.704 -0.275,0.986 -0.185,0.276 -0.433,0.478 -0.737,0.6 -0.311,0.123 -0.875,0.184 -1.698,0.184 H 3.097 Z"
             style="fill:#ffffff;fill-opacity:1;fill-rule:nonzero;stroke:none"
             id="path115" /></g><g
           id="g117"
           transform="translate(772.4742,184.2436)"><path
             d="m 0,0 c 2.298,0 4.276,-0.888 5.929,-2.658 1.651,-1.77 2.479,-3.931 2.479,-6.476 0,-2.523 -0.817,-4.657 -2.445,-6.406 -1.635,-1.748 -3.614,-2.621 -5.944,-2.621 -2.436,0 -4.461,0.897 -6.079,2.692 -1.611,1.794 -2.417,3.925 -2.417,6.393 0,1.653 0.374,3.173 1.122,4.563 0.754,1.384 1.791,2.486 3.102,3.294 C -2.935,-0.407 -1.519,0 0,0 m -0.034,-3.221 c -1.502,0 -2.768,-0.557 -3.793,-1.669 -1.024,-1.111 -1.536,-2.526 -1.536,-4.244 0,-1.914 0.644,-3.426 1.933,-4.535 1.002,-0.87 2.154,-1.307 3.449,-1.307 1.466,0 2.714,0.566 3.751,1.693 1.03,1.127 1.548,2.517 1.548,4.17 0,1.648 -0.524,3.041 -1.559,4.183 -1.041,1.139 -2.303,1.709 -3.793,1.709"
             style="fill:#ffffff;fill-opacity:1;fill-rule:nonzero;stroke:none"
             id="path119" /></g><g
           id="g121"
           transform="translate(783.7887,183.8086)"><path
             d="M 0,0 H 3.281 C 5.054,0 6.337,-0.178 7.119,-0.524 7.902,-0.873 8.523,-1.439 8.973,-2.217 9.428,-2.995 9.651,-3.932 9.651,-5.022 9.651,-6.228 9.358,-7.229 8.766,-8.029 8.173,-8.828 7.366,-9.385 6.349,-9.698 5.755,-9.878 4.667,-9.97 3.091,-9.97 v -7.321 H 0 Z m 3.091,-6.761 h 0.983 c 0.773,0 1.314,0.061 1.613,0.178 0.304,0.116 0.541,0.312 0.713,0.584 0.172,0.273 0.258,0.598 0.258,0.983 0,0.668 -0.241,1.158 -0.729,1.464 -0.352,0.227 -1.008,0.343 -1.963,0.343 H 3.091 Z"
             style="fill:#ffffff;fill-opacity:1;fill-rule:nonzero;stroke:none"
             id="path123" /></g><g
           id="g125"
           transform="translate(796.4791,183.8086)"><path
             d="M 0,0 H 8.869 V -3.221 H 3.072 V -6.348 H 8.869 V -9.511 H 3.072 v -4.55 h 5.797 v -3.23 H 0 Z"
             style="fill:#ffffff;fill-opacity:1;fill-rule:nonzero;stroke:none"
             id="path127" /></g><g
           id="g129"
           transform="translate(764.6539,154.9214)"><path
             d="m 0,0 h 3.102 v -11.182 c 0,-0.962 0.081,-1.641 0.236,-2.04 0.161,-0.401 0.42,-0.722 0.782,-0.961 0.368,-0.239 0.807,-0.356 1.324,-0.356 0.54,0 1.012,0.132 1.405,0.399 0.395,0.266 0.667,0.606 0.817,1.016 0.154,0.411 0.229,1.195 0.229,2.355 V 0 h 3.102 v -10.307 c 0,-1.739 -0.092,-2.945 -0.275,-3.619 -0.186,-0.677 -0.536,-1.326 -1.054,-1.954 -0.518,-0.624 -1.116,-1.09 -1.796,-1.39 -0.679,-0.303 -1.467,-0.453 -2.365,-0.453 -1.173,0 -2.203,0.288 -3.072,0.863 -0.876,0.576 -1.498,1.296 -1.877,2.162 C 0.184,-13.834 0,-12.37 0,-10.307 Z"
             style="fill:#ffffff;fill-opacity:1;fill-rule:nonzero;stroke:none"
             id="path131" /></g><g
           id="g133"
           transform="translate(787.7662,152.5698)"><path
             d="m 0,0 -2.29,-2.149 c -0.802,1.191 -1.623,1.788 -2.452,1.788 -0.409,0 -0.743,-0.116 -1.002,-0.349 -0.252,-0.233 -0.386,-0.49 -0.386,-0.781 0,-0.291 0.093,-0.567 0.276,-0.824 0.253,-0.342 1.007,-1.083 2.268,-2.223 1.18,-1.047 1.899,-1.708 2.146,-1.984 0.628,-0.674 1.077,-1.316 1.335,-1.935 0.265,-0.612 0.392,-1.286 0.392,-2.016 0,-1.418 -0.461,-2.59 -1.382,-3.514 -0.921,-0.925 -2.123,-1.384 -3.601,-1.384 -1.158,0 -2.17,0.3 -3.028,0.903 -0.856,0.603 -1.593,1.553 -2.205,2.845 l 2.603,1.669 c 0.783,-1.528 1.679,-2.294 2.699,-2.294 0.529,0 0.979,0.166 1.334,0.496 0.363,0.331 0.541,0.711 0.541,1.139 0,0.391 -0.132,0.784 -0.408,1.175 -0.271,0.393 -0.874,0.993 -1.801,1.8 -1.772,1.536 -2.912,2.721 -3.431,3.554 -0.516,0.835 -0.776,1.668 -0.776,2.498 0,1.199 0.432,2.23 1.288,3.087 0.858,0.856 1.924,1.286 3.184,1.286 0.811,0 1.583,-0.199 2.312,-0.6 C -1.647,1.789 -0.852,1.06 0,0"
             style="fill:#ffffff;fill-opacity:1;fill-rule:nonzero;stroke:none"
             id="path135" /></g><g
           id="g137"
           transform="translate(795.9615,154.9214)"><path
             d="m 0,0 h 3.136 l 6.25,-17.288 H 6.169 l -1.267,3.558 h -6.635 l -1.317,-3.558 h -3.218 z m 1.588,-4.584 -2.181,-5.937 h 4.345 z"
             style="fill:#ffffff;fill-opacity:1;fill-rule:nonzero;stroke:none"
             id="path139" /></g></g></g></g></svg>
