<?xml version="1.0" encoding="UTF-8" standalone="no"?>
<!-- Created with Inkscape (http://www.inkscape.org/) -->

<svg
   xmlns:dc="http://purl.org/dc/elements/1.1/"
   xmlns:cc="http://creativecommons.org/ns#"
   xmlns:rdf="http://www.w3.org/1999/02/22-rdf-syntax-ns#"
   xmlns:svg="http://www.w3.org/2000/svg"
   xmlns="http://www.w3.org/2000/svg"
   xmlns:sodipodi="http://sodipodi.sourceforge.net/DTD/sodipodi-0.dtd"
   xmlns:inkscape="http://www.inkscape.org/namespaces/inkscape"
   version="1.1"
   id="svg2"
   xml:space="preserve"
   width="1122.52"
   height="793.70667"
   viewBox="0 0 1122.52 793.70667"
   sodipodi:docname="LOGO_CYBER_SAIYAN.svg"
   inkscape:version="0.92.5 (2060ec1f9f, 2020-04-08)"><metadata
     id="metadata8"><rdf:RDF><cc:Work
         rdf:about=""><dc:format>image/svg+xml</dc:format><dc:type
           rdf:resource="http://purl.org/dc/dcmitype/StillImage" /><dc:title></dc:title></cc:Work></rdf:RDF></metadata><defs
     id="defs6"><clipPath
       clipPathUnits="userSpaceOnUse"
       id="clipPath18"><path
         d="M 0,595.28 H 841.89 V 0 H 0 Z"
         id="path16"
         inkscape:connector-curvature="0" /></clipPath></defs><sodipodi:namedview
     pagecolor="#ffffff"
     bordercolor="#666666"
     borderopacity="1"
     objecttolerance="10"
     gridtolerance="10"
     guidetolerance="10"
     inkscape:pageopacity="0"
     inkscape:pageshadow="2"
     inkscape:window-width="904"
     inkscape:window-height="480"
     id="namedview4"
     showgrid="false"
     inkscape:zoom="0.29733907"
     inkscape:cx="561.26001"
     inkscape:cy="396.85333"
     inkscape:window-x="56"
     inkscape:window-y="27"
     inkscape:window-maximized="0"
     inkscape:current-layer="g10" /><g
     id="g10"
     inkscape:groupmode="layer"
     inkscape:label="LOGO_CYBER_SAIYAN_RESTYLING"
     transform="matrix(1.3333333,0,0,-1.3333333,0,793.70667)"><g
       id="g12"><g
         id="g14"
         clip-path="url(#clipPath18)"><g
           id="g20"
           transform="translate(134.9854,162.0742)"><path
             d="M 0,0 C 0.676,0 1.28,-0.269 1.826,-0.815 L 6.61,-6.041 c -3.692,-4.278 -8.172,-7.612 -13.439,-10.005 -5.267,-2.395 -11.611,-3.591 -19.04,-3.591 -6.503,0 -12.396,1.126 -17.686,3.369 -5.286,2.244 -9.796,5.39 -13.531,9.443 -3.733,4.048 -6.629,8.903 -8.685,14.569 -2.054,5.666 -3.086,11.896 -3.086,18.692 0,6.799 1.104,13.032 3.306,18.696 2.203,5.664 5.298,10.529 9.283,14.6 3.987,4.071 8.759,7.228 14.319,9.47 5.56,2.248 11.696,3.368 18.407,3.368 6.63,0 12.351,-1.026 17.157,-3.081 4.803,-2.06 9.071,-4.846 12.806,-8.375 l -3.963,-5.6 C 2.162,55.094 1.826,54.751 1.448,54.477 1.07,54.204 0.524,54.065 -0.185,54.065 c -0.548,0 -1.127,0.203 -1.734,0.598 -0.607,0.4 -1.333,0.895 -2.171,1.48 -0.837,0.59 -1.825,1.22 -2.959,1.887 -1.129,0.674 -2.477,1.302 -4.026,1.89 -1.554,0.588 -3.36,1.082 -5.417,1.479 -2.052,0.4 -4.426,0.6 -7.109,0.6 -4.826,0 -9.243,-0.83 -13.249,-2.489 -4.006,-1.655 -7.46,-4.02 -10.352,-7.077 -2.899,-3.065 -5.152,-6.8 -6.769,-11.206 -1.618,-4.405 -2.423,-9.338 -2.423,-14.791 0,-5.62 0.805,-10.636 2.423,-15.043 1.617,-4.403 3.82,-8.126 6.608,-11.171 2.791,-3.039 6.096,-5.359 9.915,-6.954 3.819,-1.596 7.931,-2.389 12.335,-2.389 2.685,0 5.098,0.155 7.243,0.472 2.136,0.311 4.12,0.805 5.945,1.477 1.823,0.671 3.526,1.522 5.096,2.549 1.573,1.027 3.156,2.255 4.753,3.681 C -1.362,-0.311 -0.673,0 0,0"
             style="fill:#231f20;fill-opacity:1;fill-rule:nonzero;stroke:none"
             id="path22"
             inkscape:connector-curvature="0" /></g><g
           id="g24"
           transform="translate(174.5742,124.6289)"><path
             d="M 0,0 C -0.375,-0.841 -0.85,-1.512 -1.418,-2.017 -1.983,-2.52 -2.854,-2.772 -4.031,-2.772 h -8.305 l 11.644,25.303 -26.309,60.042 h 9.69 c 0.966,0 1.722,-0.239 2.268,-0.722 0.549,-0.482 0.943,-1.015 1.195,-1.603 L 3.211,40.091 c 0.376,-0.923 0.702,-1.844 0.974,-2.769 0.274,-0.923 0.513,-1.868 0.72,-2.83 0.296,0.962 0.591,1.907 0.884,2.83 0.292,0.925 0.631,1.867 1.009,2.83 l 16.549,40.096 c 0.255,0.671 0.684,1.225 1.295,1.666 0.607,0.443 1.267,0.659 1.98,0.659 h 8.942 z"
             style="fill:#231f20;fill-opacity:1;fill-rule:nonzero;stroke:none"
             id="path26"
             inkscape:connector-curvature="0" /></g><g
           id="g28"
           transform="translate(249.1553,199.2744)"><path
             d="m 0,0 c -3.65,0 -6.85,-0.84 -9.596,-2.52 -2.75,-1.674 -5.279,-4.048 -7.586,-7.111 v -30.84 c 2.013,-2.77 4.248,-4.722 6.704,-5.85 2.456,-1.137 5.192,-1.7 8.211,-1.7 5.96,0 10.538,2.118 13.723,6.352 3.19,4.241 4.783,10.283 4.783,18.129 0,4.155 -0.371,7.722 -1.102,10.701 -0.737,2.979 -1.792,5.421 -3.176,7.33 -1.384,1.912 -3.086,3.306 -5.099,4.187 C 4.847,-0.439 2.56,0 0,0 m -28.448,-55.827 v 92.71 h 11.266 V -1.26 c 2.644,3.063 5.674,5.529 9.096,7.397 3.418,1.866 7.333,2.8 11.736,2.8 3.691,0 7.031,-0.692 10.01,-2.076 2.979,-1.387 5.516,-3.453 7.615,-6.2 2.097,-2.751 3.712,-6.15 4.846,-10.198 1.129,-4.049 1.7,-8.718 1.7,-14.003 0,-4.698 -0.631,-9.075 -1.889,-13.12 -1.258,-4.055 -3.074,-7.554 -5.446,-10.511 -2.371,-2.96 -5.265,-5.289 -8.683,-6.989 -3.424,-1.698 -7.27,-2.549 -11.551,-2.549 -4.11,0 -7.603,0.799 -10.478,2.392 -2.875,1.592 -5.382,3.818 -7.524,6.67 l -0.565,-5.791 c -0.336,-1.595 -1.299,-2.389 -2.896,-2.389 z"
             style="fill:#231f20;fill-opacity:1;fill-rule:nonzero;stroke:none"
             id="path30"
             inkscape:connector-curvature="0" /></g><g
           id="g32"
           transform="translate(316.1865,199.9658)"><path
             d="m 0,0 c -5.413,0 -9.671,-1.562 -12.778,-4.689 -3.102,-3.126 -5.034,-7.459 -5.79,-12.997 h 34.68 c 0,2.604 -0.356,4.985 -1.07,7.144 -0.714,2.161 -1.763,4.025 -3.146,5.603 C 10.51,-3.369 8.82,-2.151 6.83,-1.292 4.834,-0.43 2.562,0 0,0 m -0.255,8.245 c 3.819,0 7.346,-0.641 10.578,-1.922 3.231,-1.279 6.019,-3.121 8.372,-5.535 2.347,-2.416 4.183,-5.392 5.504,-8.939 1.322,-3.547 1.987,-7.585 1.987,-12.116 0,-1.761 -0.194,-2.937 -0.572,-3.522 -0.372,-0.59 -1.089,-0.882 -2.139,-0.882 h -42.418 c 0.082,-4.031 0.627,-7.531 1.634,-10.514 1.008,-2.979 2.392,-5.462 4.153,-7.457 1.763,-1.993 3.861,-3.482 6.294,-4.467 2.432,-0.989 5.162,-1.477 8.183,-1.477 2.812,0 5.237,0.32 7.267,0.973 2.038,0.652 3.79,1.352 5.262,2.11 1.466,0.756 2.692,1.457 3.68,2.109 0.983,0.649 1.832,0.976 2.544,0.976 0.929,0 1.64,-0.358 2.144,-1.073 l 3.146,-4.09 c -1.387,-1.68 -3.043,-3.14 -4.969,-4.375 -1.934,-1.236 -4.001,-2.258 -6.202,-3.053 -2.204,-0.796 -4.481,-1.393 -6.831,-1.793 -2.35,-0.4 -4.677,-0.598 -6.985,-0.598 -4.406,0 -8.462,0.747 -12.18,2.233 -3.712,1.49 -6.923,3.673 -9.631,6.545 -2.705,2.876 -4.814,6.431 -6.323,10.673 -1.512,4.232 -2.264,9.104 -2.264,14.599 0,4.447 0.679,8.598 2.042,12.459 1.369,3.864 3.328,7.21 5.889,10.041 2.554,2.831 5.686,5.054 9.376,6.675 3.691,1.61 7.845,2.42 12.459,2.42"
             style="fill:#231f20;fill-opacity:1;fill-rule:nonzero;stroke:none"
             id="path34"
             inkscape:connector-curvature="0" /></g><g
           id="g36"
           transform="translate(356.6533,143.4453)"><path
             d="m 0,0 v 63.757 h 6.419 c 1.219,0 2.059,-0.231 2.519,-0.688 0.46,-0.462 0.777,-1.259 0.946,-2.396 l 0.753,-9.943 c 2.178,4.447 4.878,7.919 8.087,10.415 3.21,2.5 6.978,3.746 11.297,3.746 1.764,0 3.357,-0.201 4.788,-0.595 1.422,-0.4 2.747,-0.958 3.962,-1.669 l -1.449,-8.374 c -0.291,-1.047 -0.943,-1.571 -1.95,-1.571 -0.588,0 -1.487,0.198 -2.705,0.594 -1.218,0.404 -2.917,0.601 -5.101,0.601 -3.902,0 -7.163,-1.131 -9.786,-3.398 -2.621,-2.265 -4.814,-5.564 -6.576,-9.88 V 0 Z"
             style="fill:#231f20;fill-opacity:1;fill-rule:nonzero;stroke:none"
             id="path38"
             inkscape:connector-curvature="0" /></g><g
           id="g40"
           transform="translate(479.6357,219.5391)"><path
             d="m 0,0 c -0.375,-0.627 -0.775,-1.103 -1.194,-1.416 -0.422,-0.315 -0.966,-0.472 -1.636,-0.472 -0.714,0 -1.544,0.359 -2.489,1.073 -0.943,0.711 -2.137,1.499 -3.587,2.356 -1.446,0.86 -3.186,1.65 -5.223,2.361 -2.034,0.717 -4.499,1.072 -7.394,1.072 -2.728,0 -5.141,-0.37 -7.239,-1.103 -2.099,-0.734 -3.85,-1.729 -5.256,-2.986 -1.406,-1.261 -2.463,-2.74 -3.177,-4.44 -0.714,-1.702 -1.071,-3.537 -1.071,-5.506 0,-2.519 0.62,-4.607 1.856,-6.264 1.239,-1.66 2.874,-3.071 4.91,-4.245 2.035,-1.179 4.345,-2.195 6.924,-3.054 2.58,-0.861 5.222,-1.757 7.931,-2.674 2.704,-0.925 5.35,-1.962 7.927,-3.115 2.582,-1.157 4.889,-2.616 6.926,-4.375 2.034,-1.764 3.67,-3.928 4.91,-6.483 1.237,-2.563 1.854,-5.709 1.854,-9.445 0,-3.941 -0.667,-7.646 -2.012,-11.105 -1.345,-3.465 -3.307,-6.476 -5.884,-9.035 -2.581,-2.556 -5.75,-4.57 -9.506,-6.04 -3.754,-1.467 -8.025,-2.203 -12.809,-2.203 -5.831,0 -11.153,1.06 -15.953,3.176 -4.808,2.119 -8.909,4.983 -12.302,8.594 l 3.522,5.79 c 0.336,0.462 0.743,0.85 1.23,1.166 0.48,0.311 1.013,0.469 1.6,0.469 0.883,0 1.888,-0.469 3.025,-1.413 1.132,-0.949 2.544,-1.984 4.243,-3.12 1.702,-1.128 3.76,-2.17 6.173,-3.115 2.411,-0.943 5.357,-1.415 8.844,-1.415 2.894,0 5.472,0.401 7.74,1.198 2.264,0.796 4.184,1.917 5.757,3.365 1.575,1.448 2.779,3.181 3.618,5.192 0.838,2.018 1.26,4.259 1.26,6.737 0,2.728 -0.621,4.96 -1.857,6.701 -1.237,1.743 -2.863,3.2 -4.877,4.376 -2.013,1.175 -4.312,2.169 -6.893,2.99 -2.578,0.819 -5.225,1.656 -7.928,2.518 -2.708,0.857 -5.351,1.852 -7.933,2.99 -2.577,1.129 -4.878,2.599 -6.887,4.403 -2.016,1.804 -3.647,4.059 -4.882,6.766 -1.237,2.71 -1.852,6.051 -1.852,10.038 0,3.192 0.615,6.272 1.852,9.254 1.235,2.978 3.029,5.622 5.382,7.927 2.349,2.309 5.257,4.158 8.717,5.541 3.461,1.385 7.438,2.077 11.929,2.077 5.033,0 9.627,-0.794 13.782,-2.393 C -3.774,11.12 -0.145,8.811 2.96,5.789 Z"
             style="fill:#231f20;fill-opacity:1;fill-rule:nonzero;stroke:none"
             id="path42"
             inkscape:connector-curvature="0" /></g><g
           id="g44"
           transform="translate(516.1416,150.3066)"><path
             d="m 0,0 c 1.97,0 3.776,0.198 5.412,0.596 1.638,0.403 3.179,0.966 4.626,1.702 1.448,0.732 2.834,1.626 4.154,2.672 1.323,1.052 2.615,2.249 3.871,3.592 v 13.15 c -5.163,0 -9.545,-0.325 -13.155,-0.98 -3.609,-0.655 -6.544,-1.507 -8.81,-2.561 -2.263,-1.056 -3.913,-2.303 -4.942,-3.734 -1.029,-1.436 -1.54,-3.04 -1.54,-4.813 0,-1.687 0.271,-3.145 0.817,-4.366 0.543,-1.227 1.279,-2.232 2.202,-3.009 0.923,-0.781 2.014,-1.354 3.272,-1.71 C -2.833,0.179 -1.471,0 0,0 m 29.077,-6.861 h -4.972 c -1.091,0 -1.973,0.169 -2.642,0.505 -0.673,0.335 -1.114,1.045 -1.322,2.138 L 18.882,1.7 C 17.201,0.188 15.565,-1.165 13.971,-2.361 12.379,-3.554 10.697,-4.563 8.937,-5.379 7.176,-6.198 5.297,-6.816 3.303,-7.237 1.31,-7.653 -0.905,-7.866 -3.337,-7.866 c -2.475,0 -4.794,0.345 -6.953,1.039 -2.162,0.696 -4.042,1.737 -5.635,3.129 -1.596,1.386 -2.862,3.145 -3.805,5.274 -0.947,2.124 -1.419,4.639 -1.419,7.543 0,2.527 0.694,4.958 2.078,7.295 1.385,2.339 3.619,4.411 6.704,6.222 3.082,1.813 7.12,3.296 12.114,4.451 4.993,1.161 11.099,1.739 18.316,1.739 v 5.004 c 0,4.983 -1.061,8.75 -3.179,11.307 -2.119,2.551 -5.257,3.828 -9.408,3.828 -2.729,0 -5.026,-0.343 -6.894,-1.037 -1.867,-0.69 -3.48,-1.47 -4.846,-2.329 -1.365,-0.86 -2.538,-1.635 -3.525,-2.329 -0.985,-0.69 -1.961,-1.038 -2.924,-1.038 -0.756,0 -1.419,0.197 -1.984,0.6 -0.567,0.396 -1.018,0.89 -1.354,1.479 l -2.011,3.587 c 3.523,3.397 7.319,5.935 11.39,7.614 4.068,1.678 8.581,2.517 13.53,2.517 3.569,0 6.738,-0.59 9.507,-1.759 2.769,-1.179 5.098,-2.812 6.985,-4.91 1.889,-2.099 3.314,-4.637 4.281,-7.62 0.962,-2.977 1.446,-6.251 1.446,-9.815 z"
             style="fill:#231f20;fill-opacity:1;fill-rule:nonzero;stroke:none"
             id="path46"
             inkscape:connector-curvature="0" /></g><path
           d="m 574.672,143.445 h -11.201 v 63.757 h 11.201 z m 2.52,83.777 c 0,-1.096 -0.222,-2.111 -0.662,-3.054 -0.44,-0.943 -1.028,-1.784 -1.759,-2.518 -0.738,-0.736 -1.588,-1.311 -2.55,-1.731 -0.966,-0.419 -1.993,-0.633 -3.086,-0.633 -1.092,0 -2.11,0.214 -3.054,0.633 -0.943,0.42 -1.784,0.995 -2.516,1.731 -0.734,0.734 -1.312,1.575 -1.732,2.518 -0.421,0.943 -0.63,1.958 -0.63,3.054 0,1.089 0.209,2.129 0.63,3.111 0.42,0.988 0.998,1.848 1.732,2.584 0.732,0.731 1.573,1.306 2.516,1.728 0.944,0.42 1.962,0.631 3.054,0.631 1.093,0 2.12,-0.211 3.086,-0.631 0.962,-0.422 1.812,-0.997 2.55,-1.728 0.731,-0.736 1.319,-1.596 1.759,-2.584 0.44,-0.982 0.662,-2.022 0.662,-3.111"
           style="fill:#231f20;fill-opacity:1;fill-rule:nonzero;stroke:none"
           id="path48"
           inkscape:connector-curvature="0" /><g
           id="g50"
           transform="translate(613.1289,124.6289)"><path
             d="M 0,0 C -0.378,-0.841 -0.851,-1.512 -1.415,-2.017 -1.983,-2.52 -2.853,-2.772 -4.028,-2.772 h -8.308 l 11.645,25.303 -26.308,60.042 h 9.69 c 0.966,0 1.721,-0.239 2.267,-0.722 0.546,-0.482 0.943,-1.015 1.194,-1.603 L 3.208,40.091 c 0.379,-0.923 0.705,-1.844 0.977,-2.769 0.274,-0.923 0.513,-1.868 0.724,-2.83 0.292,0.962 0.587,1.907 0.881,2.83 0.295,0.925 0.631,1.867 1.01,2.83 l 16.55,40.096 c 0.253,0.671 0.682,1.225 1.293,1.666 0.607,0.443 1.266,0.659 1.98,0.659 h 8.94 z"
             style="fill:#231f20;fill-opacity:1;fill-rule:nonzero;stroke:none"
             id="path52"
             inkscape:connector-curvature="0" /></g><g
           id="g54"
           transform="translate(676.6338,150.3066)"><path
             d="m 0,0 c 1.973,0 3.777,0.198 5.414,0.596 1.637,0.403 3.176,0.966 4.625,1.702 1.447,0.732 2.834,1.626 4.154,2.672 1.324,1.052 2.612,2.249 3.872,3.592 v 13.15 c -5.163,0 -9.546,-0.325 -13.156,-0.98 -3.608,-0.655 -6.546,-1.507 -8.81,-2.561 -2.268,-1.056 -3.911,-2.303 -4.941,-3.734 -1.029,-1.436 -1.544,-3.04 -1.544,-4.813 0,-1.687 0.275,-3.145 0.821,-4.366 0.544,-1.227 1.28,-2.232 2.2,-3.009 C -6.44,1.468 -5.35,0.895 -4.093,0.539 -2.831,0.179 -1.469,0 0,0 m 29.079,-6.861 h -4.972 c -1.092,0 -1.974,0.169 -2.643,0.505 -0.673,0.335 -1.113,1.045 -1.321,2.138 L 18.883,1.7 C 17.203,0.188 15.568,-1.165 13.97,-2.361 12.379,-3.554 10.696,-4.563 8.938,-5.379 7.178,-6.198 5.297,-6.816 3.305,-7.237 c -1.994,-0.416 -4.207,-0.629 -6.64,-0.629 -2.477,0 -4.796,0.345 -6.954,1.039 -2.162,0.696 -4.042,1.737 -5.635,3.129 -1.595,1.386 -2.863,3.145 -3.806,5.274 -0.946,2.124 -1.418,4.639 -1.418,7.543 0,2.527 0.696,4.958 2.077,7.295 1.387,2.339 3.619,4.411 6.705,6.222 3.082,1.813 7.12,3.296 12.115,4.451 4.992,1.161 11.099,1.739 18.316,1.739 v 5.004 c 0,4.983 -1.063,8.75 -3.179,11.307 -2.12,2.551 -5.256,3.828 -9.409,3.828 -2.73,0 -5.027,-0.343 -6.894,-1.037 -1.867,-0.69 -3.485,-1.47 -4.846,-2.329 -1.363,-0.86 -2.538,-1.635 -3.525,-2.329 -0.985,-0.69 -1.963,-1.038 -2.924,-1.038 -0.757,0 -1.417,0.197 -1.983,0.6 -0.566,0.396 -1.019,0.89 -1.355,1.479 l -2.012,3.587 c 3.525,3.397 7.322,5.935 11.392,7.614 4.066,1.678 8.581,2.517 13.531,2.517 3.566,0 6.735,-0.59 9.504,-1.759 2.766,-1.179 5.099,-2.812 6.986,-4.91 1.887,-2.099 3.316,-4.637 4.28,-7.62 0.965,-2.977 1.448,-6.251 1.448,-9.815 z"
             style="fill:#231f20;fill-opacity:1;fill-rule:nonzero;stroke:none"
             id="path56"
             inkscape:connector-curvature="0" /></g><g
           id="g58"
           transform="translate(722.7041,143.4453)"><path
             d="m 0,0 v 63.757 h 6.672 c 1.599,0 2.6,-0.778 3.021,-2.325 l 0.881,-6.926 c 2.769,3.062 5.865,5.54 9.283,7.426 3.421,1.887 7.376,2.834 11.864,2.834 3.483,0 6.555,-0.578 9.222,-1.73 2.664,-1.155 4.888,-2.794 6.67,-4.912 1.784,-2.118 3.138,-4.667 4.061,-7.645 0.921,-2.982 1.384,-6.272 1.384,-9.88 V 0 H 41.855 v 40.599 c 0,4.822 -1.101,8.565 -3.304,11.232 -2.204,2.664 -5.571,3.995 -10.103,3.995 -3.312,0 -6.41,-0.798 -9.283,-2.388 -2.874,-1.596 -5.527,-3.754 -7.961,-6.485 L 11.204,0 Z"
             style="fill:#231f20;fill-opacity:1;fill-rule:nonzero;stroke:none"
             id="path60"
             inkscape:connector-curvature="0" /></g><g
           id="g62"
           transform="translate(440.2627,308.2871)"><path
             d="m 0,0 h -44.982 c -5.296,0 -9.606,4.308 -9.606,9.604 v 37.042 c 0,5.579 4.54,10.119 10.121,10.119 H 0 V 46.646 h -44.467 l -0.005,-36.53 H 0 Z"
             style="fill:#231f20;fill-opacity:1;fill-rule:nonzero;stroke:none"
             id="path64"
             inkscape:connector-curvature="0" /></g><g
           id="g66"
           transform="translate(446.4658,285.04)"><path
             d="M 0,0 H -59.008 V 10.118 H 0 l -0.071,34.653 -38.31,0.061 V 54.95 h 38.247 c 5.613,0 10.179,-4.567 10.179,-10.179 V 10.049 C 10.045,4.508 5.54,0 0,0"
             style="fill:#ec0b62;fill-opacity:1;fill-rule:nonzero;stroke:none"
             id="path68"
             inkscape:connector-curvature="0" /></g><g
           id="g70"
           transform="translate(376.793,284.8477)"><path
             d="m 0,0 c -0.549,-0.047 -1.375,0.479 -1.922,0.436 -1.655,0.468 -3.081,1.353 -4.652,2.027 -7.291,3.13 -13.795,6.385 -19.659,11.708 -2.058,1.87 -3.985,3.871 -5.313,6.36 -0.512,0.964 -0.89,1.974 -0.767,3.13 3.494,-1.726 4.587,-1.978 6.186,-1.408 -0.116,0.184 -0.223,0.373 -0.341,0.549 -1.463,2.195 -3.018,4.332 -4.372,6.592 -4.007,6.671 -6.822,13.892 -9.49,21.169 -0.829,2.26 -1.413,4.609 -2.104,6.92 -0.027,0.273 -0.049,0.546 -0.075,0.824 0.657,-1.099 1.307,-2.209 1.971,-3.302 0.988,-1.619 1.96,-3.247 2.997,-4.832 0.383,-0.583 0.937,-1.057 1.413,-1.581 0.079,0.03 0.16,0.057 0.239,0.084 -0.019,0.247 -0.049,0.491 -0.063,0.736 -0.421,6.234 -0.961,12.459 -1.234,18.696 -0.397,9.127 0.203,18.192 2.414,27.096 0.65,2.611 1.374,5.21 3.207,7.532 1.216,-7.195 2.445,-14.274 6.105,-20.808 0.129,0.322 0.356,0.633 0.378,0.959 0.793,12.048 3.476,23.685 7.636,34.991 0.517,1.417 1.449,2.691 2.203,4.02 0.089,0.155 0.264,0.258 0.585,0.559 -0.09,-1.242 -0.131,-2.268 -0.236,-3.285 -0.489,-4.758 -1.007,-9.512 -1.491,-14.27 -0.751,-7.395 -0.457,-14.783 0.286,-22.159 1.001,-9.905 2.875,-19.637 6.141,-29.07 0.82,-2.364 1.675,-4.713 2.51,-7.067 0.034,-0.099 0.052,-0.203 0.124,-0.516 -3.568,1.926 -5.365,5.323 -8.023,8.242 0.041,-0.488 0.052,-0.769 0.093,-1.037 0.648,-4.525 2.15,-8.804 3.72,-13.062 1.388,-3.775 3.118,-7.39 5.089,-10.893 0.222,-0.395 0.389,-0.825 0.647,-1.378 -2.611,0.425 -4.725,1.545 -6.635,3.045 -1.897,1.487 -3.383,3.367 -4.491,5.556 -0.079,-0.05 -0.162,-0.099 -0.247,-0.146 0.072,-0.823 0.02,-1.678 0.237,-2.458 0.905,-3.266 2.13,-6.41 3.748,-9.397 0.294,-0.542 2.949,-10.759 7.135,-14.187 C -4.814,9.366 2.649,0.786 0,0"
             style="fill:#ec0b62;fill-opacity:1;fill-rule:nonzero;stroke:none"
             id="path72"
             inkscape:connector-curvature="0" /></g><g
           id="g74"
           transform="translate(472.3779,300.583)"><path
             d="M 0,0 C 3.648,6.752 6.626,13.775 8.285,21.301 8.58,22.64 8.72,24.006 8.933,25.356 8.845,25.382 8.757,25.402 8.668,25.422 8.289,24.908 7.905,24.394 7.527,23.878 6.251,22.151 5.036,20.375 3.688,18.708 2.581,17.331 1.185,16.272 -0.846,15.628 2.609,23.678 6.587,31.268 6.929,40.021 4.06,36.52 1.562,32.659 -3.104,30.673 c 0.539,1.467 0.922,2.705 1.438,3.883 2.534,5.795 4.09,11.854 5.012,18.095 1.344,9.101 1.578,18.231 0.73,27.381 -0.685,7.39 -2.126,14.615 -5.014,21.5 -1.212,2.893 -2.554,5.71 -4.673,8.071 -0.54,0.601 -1.222,1.081 -1.963,1.728 -0.057,-0.529 -0.094,-0.785 -0.114,-1.045 -0.755,-10.17 -4.35,-19.306 -10.169,-27.594 -7.947,-9.928 -4.175,2.113 -3.67,4.576 1.244,6.105 0.582,8.373 -0.364,14.875 -1.414,7.281 -3.645,11.958 -5.332,18.446 -0.631,2.44 -1.621,4.794 -2.531,7.158 -0.283,0.732 -0.847,1.354 -1.287,2.03 -0.083,-0.03 -0.172,-0.054 -0.262,-0.079 0.154,-1.526 0.119,-3.095 0.494,-4.562 1.36,-5.313 0.026,-10.325 -1.491,-15.331 -0.066,-0.225 -0.354,-0.381 -0.539,-0.572 -0.151,0.243 -0.405,0.467 -0.439,0.727 -0.855,6.286 -2.841,12.222 -5.661,17.881 -2.659,5.335 -5.91,10.26 -10.36,14.306 -0.141,0.128 -0.296,0.238 -0.499,0.396 -0.269,-0.416 -0.576,-0.766 -0.756,-1.174 -2.094,-4.632 -5.192,-8.558 -8.64,-12.226 -4.437,-4.731 -8.149,-9.972 -11.198,-15.691 -0.118,-0.222 -0.268,-0.429 -0.429,-0.688 -3.786,4.399 -4.063,9.522 -3.214,14.781 -1.003,0.459 -1.558,0.178 -2.187,-0.473 -3.42,-3.539 -5.855,-7.8 -8.713,-11.749 -0.897,-1.238 -1.711,-2.535 -2.582,-3.793 -0.306,-0.446 -0.661,-0.856 -0.995,-1.281 -0.113,0.045 -0.226,0.089 -0.341,0.133 0.472,2.027 0.819,4.096 1.436,6.076 2.232,7.154 5.779,13.663 10.132,19.712 1.948,2.712 4.219,5.199 6.441,7.697 0.67,0.758 1.646,1.259 2.53,1.797 0.309,0.189 0.763,0.132 1.254,0.198 -0.339,-2.001 -0.775,-3.808 -0.919,-5.638 -0.152,-1.819 -0.011,-3.659 0.003,-5.489 0.136,-0.032 0.275,-0.067 0.415,-0.099 0.942,1.539 1.964,3.038 2.809,4.629 1.744,3.27 3.49,6.547 5.066,9.9 2.607,5.561 3.098,11.506 2.89,17.555 -0.066,1.981 -0.011,3.967 -0.011,6.121 0.908,-0.378 2.059,-0.662 2.983,-1.28 2.285,-1.546 4.554,-3.136 6.674,-4.895 10.398,-8.602 18.811,-18.971 26.556,-29.931 0.731,-1.035 1.508,-2.038 2.27,-3.052 0.028,-0.042 0.114,-0.047 0.454,-0.165 0.292,2.059 0.683,4.052 0.841,6.063 0.283,3.732 -0.454,7.393 -1.033,11.059 -0.25,1.566 -0.389,3.154 -0.598,4.895 0.357,-0.148 0.54,-0.187 0.682,-0.291 5.669,-3.962 11.073,-8.235 15.554,-13.566 4.398,-5.234 7.653,-11.148 10.395,-17.365 3.231,-7.335 5.898,-14.872 7.644,-22.714 2.052,-9.203 2.741,-18.536 2.573,-27.942 -0.07,-3.774 -0.216,-7.549 -0.335,-11.451 1.765,0.716 2.173,2.455 3.134,3.815 0.885,-3.425 0.107,-6.809 -0.373,-10.321 1.479,0.681 2.474,1.689 3.371,2.8 2.306,2.856 3.609,6.23 4.943,9.595 0.497,1.255 0.986,2.519 1.581,4.039 0.919,-2.945 1.331,-5.682 1.551,-8.455 0.036,-0.415 0.125,-0.825 0.188,-1.239 V 55.601 C 32.193,55.386 32.097,55.177 32.086,54.961 31.537,45.681 29.637,36.666 26.865,27.808 25.187,22.452 22.773,17.403 20.407,12.335 20.204,11.9 20.04,11.44 19.862,10.994 c 0.051,-0.022 0.1,-0.047 0.155,-0.069 0.899,0.683 1.797,1.363 2.699,2.047 L 22.95,12.814 C 22.329,11.624 21.852,10.324 21.06,9.257 18.596,5.947 16.041,2.699 13.46,-0.52 9.205,-5.827 4.398,-10.573 -1.125,-14.567 -3.794,-16.496 -6.559,-18.27 -9.739,-19.258 -14.281,-20.671 -1.923,-3.563 0,0"
             style="fill:#ec0b62;fill-opacity:1;fill-rule:nonzero;stroke:none"
             id="path76"
             inkscape:connector-curvature="0" /></g></g></g></g></svg>