<svg xmlns="http://www.w3.org/2000/svg" xmlns:svg="http://www.w3.org/2000/svg" id="svg111" width="482.9" height="105" x="0" y="0" version="1.1" viewBox="0 0 482.9 105" xml:space="preserve"><metadata id="metadata117"/><style id="style2" type="text/css">.st0{fill:#fff}.st2{display:none}.st3,.st4{display:inline}.st3{fill:none;stroke:#c6c6c5;stroke-width:.25;stroke-miterlimit:10}.st4{fill:#c6c6c5}.st5{font-family:&apos;GothamLight&apos;}.st6{font-size:6px}</style><g id="Logo" transform="translate(-24,-24)" style="opacity:.93"><g id="g81"><rect id="rect7" width="18" height="3" x="60" y="24" class="st0"/><rect id="rect9" width="48" height="3" x="45" y="30" class="st0"/><rect id="rect11" width="30" height="3" x="27" y="36" class="st0"/><rect id="rect13" width="42" height="3" x="69" y="36" class="st0"/><rect id="rect15" width="39" height="3" x="75" y="42" class="st0"/><rect id="rect17" width="39" height="3" x="75" y="66" class="st0"/><rect id="rect19" width="39" height="3" x="51" y="96" class="st0"/><rect id="rect21" width="42" height="3" x="48" y="120" class="st0"/><rect id="rect23" width="60" height="3" x="30" y="102" class="st0"/><rect id="rect25" width="33.1" height="3" x="80.9" y="72" class="st0"/><rect id="rect27" width="24" height="3" x="90" y="78" class="st0"/><rect id="rect29" width="12" height="3" x="102" y="84" class="st0"/><rect id="rect31" width="45" height="3" x="69" y="48" class="st0"/><rect id="rect33" width="42" height="3" x="72" y="60" class="st0"/><rect id="rect35" width="48" height="3" x="66" y="54" class="st0"/><rect id="rect37" width="15" height="3" x="24" y="42" class="st0"/><rect id="rect39" width="12" height="3" x="24" y="60" class="st0"/><rect id="rect41" width="9" height="3" x="42" y="60" class="st0"/><rect id="rect43" width="6" height="3" x="96" y="90" class="st0"/><rect id="rect45" width="12" height="3" x="96" y="102" class="st0"/><rect id="rect47" width="6" height="3" x="108" y="90" class="st0"/><rect id="rect49" width="9" height="3" x="24" y="54" class="st0"/><rect id="rect51" width="9" height="3" x="24" y="48" class="st0"/><rect id="rect53" width="30" height="3" x="24" y="66" class="st0"/><rect id="rect55" width="33" height="3" x="51" y="90" class="st0"/><rect id="rect57" width="24" height="3" x="57" y="126" class="st0"/><rect id="rect59" width="24" height="3" x="51" y="84" class="st0"/><rect id="rect61" width="33" height="3" x="33" y="108" class="st0"/><rect id="rect63" width="36" height="3" x="39" y="114" class="st0"/><rect id="rect65" width="36" height="3" x="24" y="72" class="st0"/><rect id="rect67" width="42" height="3" x="24" y="78" class="st0"/><rect id="rect69" width="21" height="3" x="24" y="84" class="st0"/><rect id="rect71" width="18" height="3" x="24" y="90" class="st0"/><rect id="rect73" width="12" height="3" x="99" y="96" class="st0"/><rect id="rect75" width="12" height="3" x="87" y="114" class="st0"/><rect id="rect77" width="18" height="3" x="87" y="108" class="st0"/><rect id="rect79" width="15" height="3" x="26.9" y="96" class="st0"/></g><path id="path83" d="m 154.7,75.6 c -2.7,0 -5.2,-0.5 -7.5,-1.5 -2.3,-1 -4.3,-2.4 -6,-4.1 -1.7,-1.7 -3,-3.8 -3.9,-6.2 -0.9,-2.4 -1.4,-4.9 -1.4,-7.6 v -0.1 c 0,-2.7 0.5,-5.2 1.4,-7.6 1,-2.4 2.3,-4.5 3.9,-6.2 1.7,-1.8 3.7,-3.2 6,-4.2 2.3,-1 4.8,-1.5 7.6,-1.5 1.7,0 3.2,0.1 4.6,0.4 1.4,0.3 2.6,0.7 3.8,1.2 1.2,0.5 2.3,1.2 3.3,1.9 1,0.7 2,1.6 3,2.5 l -2,2.1 c -0.8,-0.8 -1.7,-1.5 -2.6,-2.2 -0.9,-0.7 -1.9,-1.3 -2.9,-1.8 -1,-0.5 -2.1,-0.9 -3.3,-1.2 -1.2,-0.3 -2.5,-0.4 -3.9,-0.4 -2.3,0 -4.4,0.4 -6.3,1.3 -1.9,0.9 -3.6,2.1 -5,3.6 -1.4,1.5 -2.5,3.3 -3.3,5.4 -0.8,2.1 -1.2,4.3 -1.2,6.6 v 0.1 c 0,2.4 0.4,4.6 1.2,6.7 0.8,2.1 2,3.9 3.4,5.4 1.4,1.5 3.1,2.7 5,3.6 1.9,0.9 4.1,1.3 6.3,1.3 2.7,0 5.1,-0.5 7.1,-1.5 2,-1 4,-2.5 5.9,-4.4 l 1.9,1.8 c -1,1 -2,1.9 -3.1,2.7 -1.1,0.8 -2.2,1.5 -3.4,2.1 -1.2,0.6 -2.5,1 -3.9,1.4 -1.5,0.3 -3,0.4 -4.7,0.4 z M 189.6,60 173.4,37.2 h 3.5 L 191,57.5 205.2,37.2 h 3.3 L 192.4,60 v 15 h -2.8 z m 24,-22.8 h 15.6 c 2.2,0 4.1,0.3 5.7,0.9 1.7,0.6 3,1.4 4.1,2.5 1.6,1.6 2.4,3.6 2.4,6 v 0.1 c 0,1.3 -0.2,2.4 -0.6,3.4 -0.4,1 -0.9,1.8 -1.5,2.5 -0.6,0.7 -1.3,1.3 -2.1,1.8 -0.8,0.5 -1.5,0.9 -2.3,1.2 1.1,0.3 2.2,0.7 3.2,1.2 1,0.5 1.9,1.1 2.7,1.8 0.8,0.7 1.4,1.6 1.9,2.6 0.5,1 0.7,2.1 0.7,3.4 v 0.1 c 0,1.6 -0.3,3 -1,4.3 -0.6,1.3 -1.6,2.4 -2.7,3.2 -1.2,0.9 -2.6,1.6 -4.3,2 -1.7,0.4 -3.3,0.8 -5.4,0.8 h -16.4 z m 15.3,17.5 c 1.4,0 2.7,-0.2 3.9,-0.5 1.2,-0.3 2.2,-0.8 3.1,-1.5 0.9,-0.7 1.5,-1.5 2,-2.4 0.5,-1 0.7,-2.1 0.7,-3.4 v -0.1 c 0,-2.1 -0.8,-3.8 -2.4,-5.1 -1.6,-1.3 -4,-1.9 -7,-1.9 h -12.7 v 15 h 12.4 z m 1.3,17.8 c 3.2,0 5.8,-0.7 7.7,-2.1 1.9,-1.4 2.9,-3.3 2.9,-5.7 v -0.1 c 0,-2.3 -1,-4.2 -2.9,-5.4 -2,-1.3 -4.8,-1.9 -8.6,-1.9 h -12.8 v 15.2 z m 21.4,-35.3 h 26.9 v 2.5 h -24.1 v 15 h 21.7 v 2.5 h -21.7 v 15.2 h 24.4 V 75 h -27.2 z m 34.9,0 h 15.9 c 2.3,0 4.4,0.3 6.2,1 1.8,0.7 3.3,1.6 4.4,2.7 0.9,0.9 1.6,2 2.1,3.2 0.5,1.2 0.8,2.5 0.8,3.9 v 0.1 c 0,1.6 -0.3,3 -0.8,4.2 -0.5,1.2 -1.3,2.3 -2.3,3.2 -1,0.9 -2.2,1.6 -3.5,2.2 -1.4,0.6 -2.8,0.9 -4.4,1.2 L 317.3,75 h -3.6 l -12,-15.7 h -0.1 -12.3 V 75 h -2.8 z M 302,56.8 c 1.6,0 3.1,-0.2 4.4,-0.6 1.4,-0.4 2.5,-1 3.5,-1.7 1,-0.7 1.7,-1.6 2.3,-2.7 0.6,-1.1 0.8,-2.3 0.8,-3.7 V 48 c 0,-2.6 -0.9,-4.6 -2.8,-6.1 -1.9,-1.5 -4.6,-2.2 -8,-2.2 h -12.9 v 17.1 z m -147.3,63.8 c -2.7,0 -5.2,-0.5 -7.5,-1.5 -2.3,-1 -4.3,-2.4 -6,-4.1 -1.7,-1.7 -3,-3.8 -3.9,-6.2 -0.9,-2.4 -1.4,-4.9 -1.4,-7.6 v -0.1 c 0,-2.7 0.5,-5.2 1.4,-7.6 1,-2.4 2.3,-4.5 3.9,-6.2 1.7,-1.8 3.7,-3.2 6,-4.2 2.3,-1 4.8,-1.5 7.6,-1.5 1.7,0 3.2,0.1 4.6,0.4 1.4,0.3 2.6,0.7 3.8,1.2 1.2,0.5 2.3,1.2 3.3,1.9 1,0.7 2,1.6 3,2.5 l -2,2.1 c -0.8,-0.8 -1.7,-1.5 -2.6,-2.2 -0.9,-0.7 -1.9,-1.3 -2.9,-1.8 -1,-0.5 -2.1,-0.9 -3.3,-1.2 -1.2,-0.3 -2.5,-0.4 -3.9,-0.4 -2.3,0 -4.4,0.4 -6.3,1.3 -1.9,0.9 -3.6,2.1 -5,3.6 -1.4,1.5 -2.5,3.3 -3.3,5.4 -0.8,2.1 -1.2,4.3 -1.2,6.6 v 0.1 c 0,2.4 0.4,4.6 1.2,6.7 0.8,2.1 2,3.9 3.4,5.4 1.4,1.5 3.1,2.7 5,3.6 1.9,0.9 4.1,1.3 6.3,1.3 2.7,0 5.1,-0.5 7.1,-1.5 2,-1 4,-2.5 5.9,-4.4 l 1.9,1.8 c -1,1 -2,1.9 -3.1,2.7 -1.1,0.8 -2.2,1.5 -3.4,2.1 -1.2,0.6 -2.5,1 -3.9,1.4 -1.5,0.3 -3,0.4 -4.7,0.4 z m 21.4,-38.4 h 2.8 v 17.5 h 25.2 V 82.2 h 2.8 V 120 h -2.8 V 102.3 H 178.9 V 120 h -2.8 z m 54,-0.3 h 2.7 l 17.6,38.1 h -3.1 l -4.8,-10.6 h -22.3 l -4.8,10.6 h -2.9 z m 11.2,25 -9.9,-21.9 -10,21.9 z M 256,82.2 h 2.8 v 35.3 H 281 v 2.5 h -25 z m 30.5,0 h 2.8 v 35.3 h 22.2 v 2.5 h -25 z m 30.5,0 h 26.9 v 2.5 h -24.1 v 15 h 21.7 v 2.5 h -21.7 v 15.2 h 24.4 v 2.5 H 317 Z m 32.8,0 h 2.6 l 26.1,32.9 V 82.2 h 2.7 V 120 h -2.1 L 352.5,86.4 V 120 h -2.7 z m 56.5,38.4 c -3,0 -5.7,-0.5 -8,-1.5 -2.4,-1 -4.3,-2.4 -6,-4.2 -1.6,-1.8 -2.9,-3.8 -3.7,-6.2 -0.9,-2.4 -1.3,-4.9 -1.3,-7.5 v -0.1 c 0,-2.6 0.4,-5 1.3,-7.4 0.9,-2.4 2.1,-4.4 3.8,-6.2 1.6,-1.8 3.6,-3.2 5.9,-4.3 2.3,-1.1 4.9,-1.6 7.7,-1.6 1.5,0 3,0.1 4.2,0.3 1.3,0.2 2.5,0.5 3.6,1 1.1,0.4 2.1,1 3.1,1.6 1,0.6 2,1.3 2.9,2.1 l -1.8,2.1 c -1.5,-1.3 -3.2,-2.4 -5,-3.2 -1.9,-0.9 -4.3,-1.3 -7.1,-1.3 -2.3,0 -4.4,0.5 -6.3,1.3 -1.9,0.8 -3.6,2.1 -4.9,3.7 -1.3,1.6 -2.5,3.3 -3.2,5.4 -0.8,2 -1.1,4.2 -1.1,6.5 v 0.1 c 0,2.4 0.4,4.7 1.1,6.8 0.7,2.1 1.8,3.9 3.2,5.4 1.4,1.5 3.1,2.7 5.1,3.6 2,0.9 4.3,1.3 6.8,1.3 1.2,0 2.4,-0.1 3.5,-0.3 1.2,-0.2 2.2,-0.5 3.3,-0.9 1,-0.4 2,-0.9 2.9,-1.4 0.9,-0.5 1.7,-1.1 2.4,-1.6 V 103 h -12.6 v -2.5 h 15.3 V 115 c -1.7,1.5 -3.9,2.8 -6.4,4 -2.8,1.1 -5.6,1.6 -8.7,1.6 z M 428,82.2 h 26.9 v 2.5 h -24.1 v 15 h 21.7 v 2.5 h -21.7 v 15.2 h 24.4 v 2.5 H 428 Z m 41.4,0 h 2.8 V 120 h -2.8 z m -9,35.1 h 2.8 v 2.7 h -2.8 z m 30.5,-32.6 h -13.2 v -2.5 h 29.2 v 2.5 H 493.7 V 120 h -2.8 z" class="st0"/></g><g id="Ingombro" class="st2"><rect id="rect87" width="90" height="24" x="24" y="0" class="st3"/><rect id="rect89" width="24" height="24" x="0" y="0" class="st3" transform="rotate(180,12,12)"/><rect id="rect91" width="24" height="24" x="0" y="132" class="st3" transform="rotate(180,12,144)"/><rect id="rect93" width="90" height="24" x="24" y="132" class="st3" transform="rotate(180,69,144)"/><rect id="rect95" width="368.2" height="24" x="138" y="132" class="st3" transform="rotate(180,322.12445,144)"/><rect id="rect97" width="368.2" height="24" x="138" y="0" class="st3" transform="rotate(180,322.12445,12)"/><rect id="rect99" width="24" height="108" x="0" y="24" class="st3" transform="rotate(180,12,78)"/><rect id="rect101" width="24" height="108" x="114" y="24" class="st3" transform="rotate(180,126,78)"/><rect id="rect103" width="24" height="108" x="506" y="24" class="st3" transform="rotate(180,518,78)"/><text id="text105" class="st4 st5 st6" transform="translate(26.367,13.0497)">a</text><text id="text107" class="st4 st5 st6" transform="translate(10.2775,21.1396)">a</text></g></svg>