<?xml version="1.0" encoding="UTF-8" standalone="no"?>
<!-- Created with Inkscape (http://www.inkscape.org/) -->

<svg
   xmlns:dc="http://purl.org/dc/elements/1.1/"
   xmlns:cc="http://creativecommons.org/ns#"
   xmlns:rdf="http://www.w3.org/1999/02/22-rdf-syntax-ns#"
   xmlns:svg="http://www.w3.org/2000/svg"
   xmlns="http://www.w3.org/2000/svg"
   xmlns:sodipodi="http://sodipodi.sourceforge.net/DTD/sodipodi-0.dtd"
   xmlns:inkscape="http://www.inkscape.org/namespaces/inkscape"
   width="2540.2234"
   height="2540.2234"
   viewBox="0 0 7874.6925 7874.6925"
   id="svg5587"
   version="1.1"
   inkscape:version="0.92.3 (2405546, 2018-03-11)"
   inkscape:export-filename="/home/mini/Mega/Docs/Istruzione/BITM/2019-04_NoHat/Logo/2019-06-11_Logo_V13.4_comp_sec_per_website_thinnest_ever_trail_black_background.png"
   inkscape:export-xdpi="5.6199999"
   inkscape:export-ydpi="5.6199999"
   sodipodi:docname="2019-06-11_Logo_V13.5.0_for_favicon.svg">
  <defs
     id="defs5589" />
  <sodipodi:namedview
     id="base"
     pagecolor="#ffffff"
     bordercolor="#666666"
     borderopacity="1.0"
     inkscape:pageopacity="0.0"
     inkscape:pageshadow="2"
     inkscape:zoom="0.079999999"
     inkscape:cx="2378.962"
     inkscape:cy="-1998.5301"
     inkscape:document-units="px"
     inkscape:current-layer="layer1"
     showgrid="false"
     units="px"
     inkscape:window-width="2493"
     inkscape:window-height="1385"
     inkscape:window-x="67"
     inkscape:window-y="27"
     inkscape:window-maximized="1"
     showguides="false"
     scale-x="3.1"
     fit-margin-top="0"
     fit-margin-left="0"
     fit-margin-right="0"
     fit-margin-bottom="0"
     inkscape:pagecheckerboard="true" />
  <metadata
     id="metadata5592">
    <rdf:RDF>
      <cc:Work
         rdf:about="">
        <dc:format>image/svg+xml</dc:format>
        <dc:type
           rdf:resource="http://purl.org/dc/dcmitype/StillImage" />
        <dc:title></dc:title>
      </cc:Work>
    </rdf:RDF>
  </metadata>
  <g
     inkscape:label="Layer 1"
     inkscape:groupmode="layer"
     id="layer1"
     transform="translate(-62.653564,6884.9841)">
    <circle
       style="opacity:1;fill:#000000;fill-opacity:1;stroke:none;stroke-width:100;stroke-linecap:butt;stroke-linejoin:round;stroke-miterlimit:4;stroke-dasharray:none;stroke-opacity:1"
       id="path4174"
       cx="4000"
       cy="-2947.6377"
       r="3937.3464" />
    <path
       style="opacity:1;fill:#ffffff;fill-opacity:1;stroke:none;stroke-width:0.80000001;stroke-linecap:butt;stroke-linejoin:round;stroke-miterlimit:4;stroke-dasharray:none;stroke-opacity:1"
       d="m 476.6875,-2618.0929 c 105.17611,1123.1643 800.1483,2163.6258 1775.957,2729.627 l 33.1289,-54.1094 C 1325.729,-499.1894 715.50097,-1516.4643 610.50586,-2621.2179 Z m 7039.084,0 c -104.92,1095.9357 -862.2871,2217.9662 -1848.5891,2726.4087 l -36.8068,-53.033 c 903.2113,-511.3873 1715.1177,-1507.3623 1745.2592,-2672.6003 z"
       id="path4170"
       inkscape:connector-curvature="0"
       sodipodi:nodetypes="cccccccccc" />
    <g
       style="font-style:normal;font-weight:normal;font-size:90px;line-height:125%;font-family:sans-serif;letter-spacing:0px;word-spacing:0px;fill:#ffffff;fill-opacity:1;stroke:none;stroke-width:1px;stroke-linecap:butt;stroke-linejoin:miter;stroke-opacity:1"
       id="text4174"
       transform="matrix(0.08398095,-0.95990655,0.95990655,0.08398095,6493.9401,1125.625)">
      <path
         d="m 3997.0213,-6668.5144 -118.6489,0.8957 2.3609,312.7352 167.7198,-1.2661 0.3981,52.7328 -226.3119,1.7085 -3.1682,-419.6657 232.1712,-1.7528 0.9012,119.3814 -54.9301,0.4147 z"
         style="font-style:normal;font-variant:normal;font-weight:500;font-stretch:normal;font-size:750px;font-family:Geo;-inkscape-font-specification:'Geo Medium';fill:#ffffff"
         id="path4396"
         inkscape:connector-curvature="0" />
      <path
         d="m 4236.0649,-6352.367 117.4671,10.3247 27.1264,-308.6246 -117.467,-10.3247 z m -60.4523,52.0357 36.7458,-418.066 231.286,20.3289 -36.7457,418.0659 z"
         style="font-style:normal;font-variant:normal;font-weight:500;font-stretch:normal;font-size:750px;font-family:Geo;-inkscape-font-specification:'Geo Medium';fill:#ffffff"
         id="path4398"
         inkscape:connector-curvature="0" />
      <path
         d="m 4754.0351,-6216.7795 -58.7214,-12.6026 77.1527,-359.4899 -113.8623,-24.4368 -77.1527,359.4899 -54.4248,-11.6805 88.0647,-410.334 396.0117,84.9909 -88.0647,410.334 -57.2892,-12.2953 77.1527,-359.4898 -111.714,-23.9757 z"
         style="font-style:normal;font-variant:normal;font-weight:500;font-stretch:normal;font-size:750px;font-family:Geo;-inkscape-font-specification:'Geo Medium';fill:#ffffff"
         id="path4400"
         inkscape:connector-curvature="0" />
      <path
         d="m 5303.633,-6241.1776 -152.2773,-54.8817 -62.8842,176.6419 -53.0559,-19.1216 142.2949,-394.8184 204.6441,73.7549 z m -37.243,-69.4774 43.2099,-119.8925 -97.1542,-35.015 -43.21,119.8925 z"
         style="font-style:normal;font-variant:normal;font-weight:500;font-stretch:normal;font-size:750px;font-family:Geo;-inkscape-font-specification:'Geo Medium';fill:#ffffff"
         id="path4402"
         inkscape:connector-curvature="0" />
      <path
         d="m 5741.1979,-6296.4855 -181.8346,378.24 -209.2533,-100.5961 181.8347,-378.2401 50.1679,24.1177 -158.9863,330.7126 106.2769,51.0914 158.9863,-330.7126 z"
         style="font-style:normal;font-variant:normal;font-weight:500;font-stretch:normal;font-size:750px;font-family:Geo;-inkscape-font-specification:'Geo Medium';fill:#ffffff"
         id="path4404"
         inkscape:connector-curvature="0" />
      <path
         d="m 5789.1328,-5783.4308 -47.2716,-29.3921 193.3687,-310.9968 -77.1273,-47.9554 28.2319,-45.4056 197.7939,122.9825 -28.2318,45.4055 -73.3952,-45.635 z"
         style="font-style:normal;font-variant:normal;font-weight:500;font-stretch:normal;font-size:750px;font-family:Geo;-inkscape-font-specification:'Geo Medium';fill:#ffffff"
         id="path4406"
         inkscape:connector-curvature="0" />
      <path
         d="m 6180.4032,-5571.9783 -35.0824,45.0881 -183.2427,-142.5784 257.7206,-331.2242 183.6925,142.0003 -32.3838,41.6198 -139.3107,-108.3956 -55.772,71.6786 139.3107,108.3956 -32.3837,41.6198 -139.3107,-108.3956 -102.5485,131.796 z"
         style="font-style:normal;font-variant:normal;font-weight:500;font-stretch:normal;font-size:750px;font-family:Geo;-inkscape-font-specification:'Geo Medium';fill:#ffffff"
         id="path4408"
         inkscape:connector-curvature="0" />
      <path
         d="m 6420.8334,-5271.7657 -52.7749,-50.7861 56.1276,-206.2043 -16.888,-16.2516 -129.4847,135.6116 -40.6366,-39.1053 291.0044,-302.4001 156.7414,150.8347 -160.992,167.2964 -46.4419,-44.6918 z m 97.4433,-239.6315 88.3679,-91.8283 -74.4126,-71.6084 -88.3679,91.8283 z"
         style="font-style:normal;font-variant:normal;font-weight:500;font-stretch:normal;font-size:750px;font-family:Geo;-inkscape-font-specification:'Geo Medium';fill:#ffffff"
         id="path4410"
         inkscape:connector-curvature="0" />
      <path
         d="m 6921.84,-4702.4597 56.4159,-32.6559 -27.886,-48.1754 -103.9573,60.1749 116.2137,199.3072 153.4005,-88.7946 -0.018,-198.8644 76.0664,-44.0304 59.441,102.6896 -56.4158,32.6558 27.519,47.5415 103.3234,-59.808 -116.3137,-200.9418 -168.6137,97.6007 0.1177,200.499 -60.2192,34.8574 -59.0741,-102.0556 z"
         style="font-style:normal;font-variant:normal;font-weight:500;font-stretch:normal;font-size:750px;font-family:Geo;-inkscape-font-specification:'Geo Medium';fill:#ffffff"
         id="path4412"
         inkscape:connector-curvature="0" />
      <path
         d="m 7163.5444,-4225.2202 -52.2669,23.0627 -93.7293,-212.4178 383.9602,-169.4224 94.3994,212.1221 -48.2463,21.2887 -71.2579,-161.4912 -83.0909,36.6639 71.2579,161.4911 -48.2463,21.2887 -71.2579,-161.4911 -152.78,67.4141 z"
         style="font-style:normal;font-variant:normal;font-weight:500;font-stretch:normal;font-size:750px;font-family:Geo;-inkscape-font-specification:'Geo Medium';fill:#ffffff"
         id="path4414"
         inkscape:connector-curvature="0" />
      <path
         d="m 7557.1356,-4032.5339 -36.2627,-112.9752 -297.7803,95.5814 51.2602,159.6995 -50.2112,16.1168 -69.1677,-215.4898 399.5974,-128.2625 70.9585,221.0687 -113.6726,36.4866 -16.7882,-52.3034 z"
         style="font-style:normal;font-variant:normal;font-weight:500;font-stretch:normal;font-size:750px;font-family:Geo;-inkscape-font-specification:'Geo Medium';fill:#ffffff"
         id="path4416"
         inkscape:connector-curvature="0" />
      <path
         d="m 7715.8451,-3610.4129 -410.8357,85.6937 -47.4082,-227.2861 410.8357,-85.6936 11.366,54.4913 -359.2124,74.9258 24.078,115.4355 359.2124,-74.9258 z"
         style="font-style:normal;font-variant:normal;font-weight:500;font-stretch:normal;font-size:750px;font-family:Geo;-inkscape-font-specification:'Geo Medium';fill:#ffffff"
         id="path4418"
         inkscape:connector-curvature="0" />
      <path
         d="m 7350.3341,-3151.945 -7.5794,-72.849 175.8822,-121.3918 -2.4254,-23.3117 -186.4176,20.1318 -5.8361,-56.0937 417.4245,-43.43 22.5108,216.3614 -230.9312,24.0267 -6.6698,-64.1071 z m 229.0156,-120.2926 126.7572,-13.1882 -10.687,-102.717 -126.7572,13.1882 z"
         style="font-style:normal;font-variant:normal;font-weight:500;font-stretch:normal;font-size:750px;font-family:Geo;-inkscape-font-specification:'Geo Medium';fill:#ffffff"
         id="path4420"
         inkscape:connector-curvature="0" />
      <path
         d="m 7721.3194,-3026.7615 -0.5238,-53.4643 53.4643,-0.5238 1.5569,158.928 -53.4642,0.5237 -0.4879,-49.8023 -311.9967,3.0566 0.5237,53.4642 -54.1966,0.531 -1.5498,-158.1955 54.1966,-0.531 0.4807,49.0699 z"
         style="font-style:normal;font-variant:normal;font-weight:500;font-stretch:normal;font-size:750px;font-family:Geo;-inkscape-font-specification:'Geo Medium';fill:#ffffff"
         id="path4422"
         inkscape:connector-curvature="0" />
      <path
         d="m 7342.5338,-2671.2969 4.1702,-55.5076 365.1818,27.4356 6.804,-90.565 53.3166,4.0056 -17.4491,232.2556 -53.3165,-4.0056 6.4748,-86.1829 z"
         style="font-style:normal;font-variant:normal;font-weight:500;font-stretch:normal;font-size:750px;font-family:Geo;-inkscape-font-specification:'Geo Medium';fill:#ffffff"
         id="path4424"
         inkscape:connector-curvature="0" />
      <path
         d="m 7692.9301,-2161.5951 -412.9007,-75.1162 41.5564,-228.4285 51.8828,9.4387 -31.069,170.7809 80.7066,14.6824 30.8068,-169.3397 280.3113,50.9951 -9.7009,53.324 -226.9872,-41.2942 -21.106,116.0157 226.9873,41.2943 z"
         style="font-style:normal;font-variant:normal;font-weight:500;font-stretch:normal;font-size:750px;font-family:Geo;-inkscape-font-specification:'Geo Medium';fill:#ffffff"
         id="path4426"
         inkscape:connector-curvature="0" />
      <path
         d="m 7300.8686,-1234.2923 53.105,-106.1048 -279.6714,-139.9743 -75.0682,149.9877 -47.1577,-23.6022 101.2929,-202.3852 375.2967,187.8344 -103.9153,207.6249 -106.7598,-53.4328 24.5856,-49.1227 z"
         style="font-style:normal;font-variant:normal;font-weight:500;font-stretch:normal;font-size:750px;font-family:Geo;-inkscape-font-specification:'Geo Medium';fill:#ffffff"
         id="path4428"
         inkscape:connector-curvature="0" />
      <path
         d="m 6908.712,-1165.6263 -63.5344,99.3402 260.9995,166.92598 63.5344,-99.34023 z m -18.1361,-77.6742 353.5525,226.1195 -125.0958,195.5954 -353.5525,-226.1195 z"
         style="font-style:normal;font-variant:normal;font-weight:500;font-stretch:normal;font-size:750px;font-family:Geo;-inkscape-font-specification:'Geo Medium';fill:#ffffff"
         id="path4430"
         inkscape:connector-curvature="0" />
      <path
         d="m 6990.9891,-644.83354 32.7956,-42.2337 -327.9178,-261.91479 -34.7391,43.49345 204.877,163.63961 -287.611,-60.05652 -27.4256,34.33693 327.9177,261.9148 36.5675,-45.78258 -181.4135,-144.89876 z"
         style="font-style:normal;font-variant:normal;font-weight:500;font-stretch:normal;font-size:750px;font-family:Geo;-inkscape-font-specification:'Geo Medium';fill:#ffffff"
         id="path4432"
         inkscape:connector-curvature="0" />
      <path
         d="m 6432.269,-637.03665 39.1046,-39.61463 298.6735,294.82807 -162.5861,165.74922 -37.5297,-37.04646 124.0028,-125.62006 -64.6344,-63.80224 -124.0028,125.62007 -37.5296,-37.04646 124.0027,-125.62006 z"
         style="font-style:normal;font-variant:normal;font-weight:500;font-stretch:normal;font-size:750px;font-family:Geo;-inkscape-font-specification:'Geo Medium';fill:#ffffff"
         id="path4434"
         inkscape:connector-curvature="0" />
      <path
         d="m 6076.2636,-237.89241 -36.2289,-44.17214 179.5201,-147.23802 266.1432,324.49532 -179.0556,147.804332 -33.4421,-40.7742808 136.4806,-111.9380512 -57.5947,-70.22238 -136.4806,111.938059 -33.4421,-40.774279 136.4806,-111.93806 -105.8999,-129.11855 z"
         style="font-style:normal;font-variant:normal;font-weight:500;font-stretch:normal;font-size:750px;font-family:Geo;-inkscape-font-specification:'Geo Medium';fill:#ffffff"
         id="path4436"
         inkscape:connector-curvature="0" />
      <path
         d="m 5730.2435,-69.558623 61.1855,-40.258507 188.7216,100.2730714 19.5793,-12.8827224 -103.6736,-156.232399 47.1129,-30.99905 230.6812,350.59315 -181.721,119.56777 -127.6195,-193.958166 53.8433,-35.427488 z m 212.2009,147.949929 70.0499,106.462844 86.2716,-56.7645 -70.0498,-106.462842 z"
         style="font-style:normal;font-variant:normal;font-weight:500;font-stretch:normal;font-size:750px;font-family:Geo;-inkscape-font-specification:'Geo Medium';fill:#ffffff"
         id="path4438"
         inkscape:connector-curvature="0" />
      <path
         d="m 5465.21,137.20892 -26.2291,-50.751773 206.2604,-106.598046 192.6835,372.830329 -205.9241,107.24871 -24.2116,-46.84779 156.81,-81.04141 -41.6977,-80.68231 -156.8099,81.04142 -24.2116,-46.84779 156.81,-81.04142 L 5622.02,56.167504 Z"
         style="font-style:normal;font-variant:normal;font-weight:500;font-stretch:normal;font-size:750px;font-family:Geo;-inkscape-font-specification:'Geo Medium';fill:#ffffff"
         id="path4440"
         inkscape:connector-curvature="0" />
      <path
         d="m 5432.0586,548.24376 49.5425,-20.11902 -152.5648,-390.96466 -51.8557,20.23548 95.3197,244.26762 -218.8182,-196.07524 -40.9387,15.97538 152.5649,390.96466 54.5849,-21.3005 -84.4032,-216.29284 z"
         style="font-style:normal;font-variant:normal;font-weight:500;font-stretch:normal;font-size:750px;font-family:Geo;-inkscape-font-specification:'Geo Medium';fill:#ffffff"
         id="path4442"
         inkscape:connector-curvature="0" />
      <path
         d="m 4923.1486,658.4778 114.4451,-31.3162 -82.5433,-301.6546 -161.7773,44.26796 -13.9183,-50.86448 218.2934,-59.73275 110.7665,404.79646 -223.945,61.27923 -31.5095,-115.15153 52.9838,-14.49824 z"
         style="font-style:normal;font-variant:normal;font-weight:500;font-stretch:normal;font-size:750px;font-family:Geo;-inkscape-font-specification:'Geo Medium';fill:#ffffff"
         id="path4444"
         inkscape:connector-curvature="0" />
      <path
         d="m 4435.3715,439.31606 -9.2228,-56.37954 229.1323,-37.48232 67.7519,414.17275 -229.014,38.20515 -8.5133,-52.04265 174.1983,-28.49603 -14.6618,-89.62901 -174.1983,28.49603 -8.5134,-52.04265 174.1983,-28.49603 -26.9589,-164.80173 z"
         style="font-style:normal;font-variant:normal;font-weight:500;font-stretch:normal;font-size:750px;font-family:Geo;-inkscape-font-specification:'Geo Medium';fill:#ffffff"
         id="path4446"
         inkscape:connector-curvature="0" />
    </g>
    <path
       style="display:inline;fill:#1d901d;fill-opacity:1;stroke:#ffffff;stroke-width:25;stroke-linecap:butt;stroke-linejoin:round;stroke-miterlimit:4;stroke-dasharray:none;stroke-opacity:1"
       d="m 3998.7423,-5581.783 v 0 c -356.1768,443.973 -1054.7825,722.0723 -1816.4222,723.067 -44.8315,-0.5149 -89.6322,-1.9681 -134.3193,-4.4105 v 36.9145 h -0.8052 v 1161.0262 h 1.1151 c 0,5.547 -0.1512,11.0928 -0.1911,16.6399 v 0.1651 0.1429 c 3.2727,205.7006 16.572,387.1632 44.6407,585.3873 v 0.1986 h 2.4288 c 127.5223,862.4888 532.3175,1647.367 1141.9724,2214.22919 232.5629,216.2428 489.1546,395.371 762.0725,534.2952 4.0385,-0.1729 11.8474,-5.61877 16.5119,-8.05457 16.3393,-220.38898 34.3461,-711.93332 39.3688,-948.20042 2.5163,-118.3635 247.1903,-251.9662 247.1903,-251.9662 -288.3262,108.3473 -592.6814,325.6362 -837.6019,365.2836 -126.8677,17.6206 -262.9229,-204.0602 -322.0091,-299.8753 -107.0185,-173.545 -203.2323,-621.9353 -294.0714,-738.7159 -127.071,-308.9603 -94.8453,-364.4516 -72.1584,-422.6468 37.9789,-97.4212 34.8689,-55.6339 21.7419,0.3251 -56.3124,240.0533 140.8104,20.8626 172.3589,-45.8892 -146.0023,145.9966 -141.7596,-100.014 -276.989,-459.5717 -89.8226,-262.3121 104.6279,-380.5128 160.0452,-357.2074 3.1046,1.3053 6.839,3.4012 10.8508,5.8503 5.2345,-67.8566 16.096,-154.9424 38.8646,-239.5893 37.4756,-128.3383 215.7928,-465.607 279.4466,-475.2115 112.4237,-16.962 287.8191,43.8757 325.9565,56.8399 37.966,12.6151 52.449,21.4232 68.8367,58.5352 -5.2031,-33.8811 -8.8342,-51.2518 -39.0989,-64.9041 16.263,-44.1389 36.6712,-70.5809 58.8138,-133.4662 35.9984,35.929 85.1243,46.1002 112.1556,166.1128 14.3364,63.65 -27.7997,160.7284 -44.2214,264.3838 -66.0943,148.2922 -75.2902,161.3704 -104.4628,273.934 -67.4994,239.2224 -85.851,291.5855 -105.5948,380.1151 -11.8399,123.0421 -42.7493,333.9122 -26.8226,436.3802 -67.5554,30.6413 -38.405,-167.3853 -104.2143,-203.1367 -36.4914,-19.1482 -86.2236,-40.1032 -137.6794,-61.5571 -21.0159,72.9182 9.4221,96.5845 22.8,247.4046 19.7353,222.4947 365.773,914.4503 403.2397,838.9056 31.7056,-63.9284 195.0087,-161.8691 247.9027,-256.8252 18.8185,-42.8213 27.5829,-24.9534 37.0876,3.6096 0.5349,-6.9304 -20.5621,-66.5035 -21.8292,-73.3134 -20.0216,-107.6009 82.3985,-118.2599 58.3378,-222.0978 -28.3679,-122.4407 48.633,-231.6384 66.9898,-262.046 50.756,-24.2296 233.1572,-92.1382 326.2038,-113.1449 19.5249,-4.3517 29.5412,1.3046 74.9236,45.6926 -45.733,-46.2157 -74.6674,-113.9217 -125.461,-154.4544 -101.5819,-54.6904 -68.903,-113.5671 -114.5226,-168.6731 -39.5138,-61.1046 -278.4285,-200.8827 -187.1763,-541.7936 1.4924,-5.5758 181.8672,-50.531 181.8672,-50.531 l -2.3131,-7.4973 -181.2198,40.6896 -182.4153,-231.1798 c -1.1258,-2.2123 -0.8245,-2.9646 0.184,-5.0532 206.4374,-234.43 469.2549,-432.8273 799.7979,-421.9609 -158.8044,22.4059 -233.8953,87.4113 -307.3399,152.7586 79.0206,-52.8089 215.481,-138.1427 347.8369,-122.3298 96.5962,18.0293 122.9742,64.3038 154.2871,160.4968 -133.284,3.0367 -220.5771,79.0792 -370.0652,248.5097 158.8475,-148.911 282.7885,-211.7424 389.3313,-203.4762 282.4635,7.3003 237.2708,557.0866 356.1317,784.9953 30.4921,53.492 -40.8972,158.7499 -147.5861,252.7943 1.8197,0.5965 132.7707,-108.7268 156.2606,-140.8941 40.8566,-55.9494 42.4392,-88.8729 46.2884,-87.4012 168.2729,64.3337 217.2927,223.1216 336.899,242.5012 108.5404,17.5845 229.15,32.1072 344.2378,46.1083 2.4785,-11.4608 8.9499,-42.7221 10.0918,-48.5038 26.9819,-189.43 43.2857,-399.7314 44.6537,-585.4041 v -0.128 -0.1967 c 0,-5.4711 -0.1411,-10.9388 -0.1725,-16.4079 h 1.1133 v -1161.0243 h -0.8053 v -35.6324 c -69.2617,3.1226 -130.5303,3.8601 -194.0653,1.1764 h -0.3748 c -740.2191,-14.3602 -1411.7575,-289.6909 -1758.8267,-721.1002 z"
       id="rect4626-0-7-4-3-1-9-1-8-4-6"
       inkscape:connector-curvature="0"
       sodipodi:nodetypes="ccccccccccccccsccsccscssccccccccccsccccccssccsccccccscccccccccccccsscccccsccccccccc" />
    <g
       transform="matrix(0.9140483,0.01595479,-0.01595479,0.9140483,301.05076,2.087609)"
       style="font-style:normal;font-weight:normal;font-size:284.30978394px;line-height:125%;font-family:sans-serif;letter-spacing:0px;word-spacing:0px;fill:#ffffff;fill-opacity:1;stroke:none;stroke-width:1px;stroke-linecap:butt;stroke-linejoin:miter;stroke-opacity:1"
       id="text4199">
      <path
         d="m 2938.1593,-105.22258 -84.0339,-26.88064 -219.9891,656.59509 87.0877,29.1783 137.4452,-410.22869 69.9609,479.71913 68.7534,23.03551 219.9891,-656.595086 -91.6712,-30.714006 -121.7043,363.247192 z"
         style="font-style:normal;font-variant:normal;font-weight:500;font-stretch:normal;font-size:1237.5px;font-family:Geo;-inkscape-font-specification:'Geo Medium';fill:#ffffff"
         id="path4233"
         inkscape:connector-curvature="0" />
      <path
         d="m 3297.5924,617.1226 191.8636,32.32639 84.9321,-504.08897 -191.8637,-32.3264 z M 3191.362,694.81551 3306.4118,11.971582 3684.1806,75.620444 3569.1308,758.46437 Z"
         style="font-style:normal;font-variant:normal;font-weight:500;font-stretch:normal;font-size:1237.5px;font-family:Geo;-inkscape-font-specification:'Geo Medium';fill:#ffffff"
         id="path4235"
         inkscape:connector-curvature="0" />
      <path
         d="m 4275.5767,310.23846 -194.268,10.79905 -13.0125,-234.086843 -91.7041,5.09769 38.4339,691.400843 91.7041,-5.09769 -20.592,-370.4364 194.268,-10.79906 20.5919,370.43641 96.5307,-5.36599 -38.4339,-691.400846 -96.5307,5.365989 z"
         style="font-style:normal;font-variant:normal;font-weight:500;font-stretch:normal;font-size:1237.5px;font-family:Geo;-inkscape-font-specification:'Geo Medium';fill:#ffffff"
         id="path4237"
         inkscape:connector-curvature="0" />
      <path
         d="m 4557.951,123.21589 44.2199,205.57619 190.2171,-40.91617 -44.22,-205.576183 z m 412.3119,531.85193 -94.5178,20.33101 -65.0592,-302.45691 -190.217,40.91616 65.0592,302.45692 -89.7919,19.31446 -145.6209,-676.983641 374.5267,-80.56164 z"
         style="font-style:normal;font-variant:normal;font-weight:500;font-stretch:normal;font-size:1237.5px;font-family:Geo;-inkscape-font-specification:'Geo Medium';fill:#ffffff"
         id="path4239"
         inkscape:connector-curvature="0" />
      <path
         d="m 5386.2838,511.39058 -85.6897,33.05926 -217.4952,-563.74777 -139.8094,53.938803 -31.7543,-82.307175 358.5436,-138.326928 31.7543,82.30717 -133.0445,51.328863 z"
         style="font-style:normal;font-variant:normal;font-weight:500;font-stretch:normal;font-size:1237.5px;font-family:Geo;-inkscape-font-specification:'Geo Medium';fill:#ffffff"
         id="path4241"
         inkscape:connector-curvature="0" />
    </g>
  </g>
</svg>
