<svg xmlns="http://www.w3.org/2000/svg" xmlns:svg="http://www.w3.org/2000/svg" id="svg45" width="1122.52" height="793.707" version="1.1" viewBox="0 0 1122.52 793.707" xml:space="preserve"><metadata id="metadata51"/><g id="g53" transform="matrix(1.3333333,0,0,-1.3333333,0,793.70667)"><g id="g55" transform="translate(739.916,418.2744)" style="fill:#000;fill-opacity:1"><path style="fill:#000;fill-opacity:1;fill-rule:nonzero;stroke:none" id="path57" d="M 0,0 V 7.957 H -598.382 V 0 h -7.956 v -109.766 h 7.956 v -7.957 H 0 v 7.957 H 7.957 V 0 Z"/></g><path style="fill:#ec0b62;fill-opacity:1;fill-rule:nonzero;stroke:none" id="path59" d="m 182.155,370.88 h 23.871 v 15.912 h -23.871 z m 0,-47.736 H 158.29 v 79.562 h 23.865 23.871 15.91 v -7.957 h 7.956 V 370.88 h -7.956 v -15.912 h 7.956 v -31.824 h -23.866 v 31.824 h -23.871 z"/><g id="g61" transform="translate(285.584,370.8799)"><path style="fill:#ec0b62;fill-opacity:1;fill-rule:nonzero;stroke:none" id="path63" d="M 0,0 V 15.912 H -23.869 V -31.824 H 0 v 15.912 z M 15.912,-47.736 H -39.78 v 7.953 h -7.956 v 63.652 h 7.956 v 7.957 h 55.692 v -7.957 h 7.955 v -63.652 h -7.955 z"/></g><g id="g65" transform="translate(341.2734,323.1436)"><path style="fill:#ec0b62;fill-opacity:1;fill-rule:nonzero;stroke:none" id="path67" d="M 0,0 H -23.869 V 79.563 H 0 v -7.958 h 7.955 v -7.957 h 7.957 v -7.955 h 7.955 v 7.955 h 7.955 v 7.957 h 7.957 v 7.958 H 63.648 V 0 H 39.779 v 39.781 h -7.957 v -7.957 h -7.955 v -7.957 h -7.955 v 7.957 H 7.955 v 7.957 H 0 Z"/></g><g id="g69" transform="translate(436.7422,322.4834)"><path style="fill:#fff;fill-opacity:1;fill-rule:nonzero;stroke:none" id="path71" d="M 0,0 H -23.865 V 79.559 H 0 V 47.734 H 23.871 V 79.559 H 47.738 V 0 H 23.871 V 31.828 H 0 Z"/></g><path style="fill:#ec0b62;fill-opacity:1;fill-rule:nonzero;stroke:none" id="path73" d="m 516.303,370.218 h 23.869 v 15.912 h -23.869 z m 0,-47.735 h -23.867 v 71.602 h 7.957 v 7.957 h 39.779 15.912 v -7.957 h 7.955 v -71.602 h -23.867 v 31.829 h -23.869 z"/><g id="g75" transform="translate(635.6426,322.4834)"><path style="fill:#fff;fill-opacity:1;fill-rule:nonzero;stroke:none" id="path77" d="m 0,0 h -55.693 v 7.955 h -7.957 v 63.647 h 7.957 v 7.957 H -39.781 0 V 71.602 H 7.955 V 47.734 H -15.914 V 63.646 H -39.781 V 15.912 h 23.867 V 31.828 H 0 7.955 V 7.955 L 0,7.955 Z"/></g><g id="g79" transform="translate(675.4199,322.4834)"><path style="fill:#fff;fill-opacity:1;fill-rule:nonzero;stroke:none" id="path81" d="M 0,0 H -23.869 V 79.559 H 0 V 55.691 h 7.955 v 7.955 h 7.957 v 7.956 h 7.955 v 7.957 h 15.91 7.957 V 63.646 H 39.777 V 55.691 H 31.82 V 47.734 H 23.867 V 31.828 h 7.953 v -7.961 h 7.957 v -7.955 h 7.957 V 0 H 23.867 v 7.955 h -7.955 v 7.957 H 7.955 v 7.955 l -7.955,0 z"/></g><g id="g83" transform="translate(133.5913,330.5107)" style="fill:#000;fill-opacity:1"><path style="fill:#000;fill-opacity:1;fill-rule:nonzero;stroke:none" id="path85" d="m 0,0 v 23.801 h -8.027 v -7.934 h -7.934 V 7.934 h -7.934 V 0 h -7.933 V -8.027 H 3.106 l 0,8.027 z"/></g><g id="g87" transform="translate(125.8452,330.5107)" style="fill:#000;fill-opacity:1"><path style="fill:#000;fill-opacity:1;fill-rule:nonzero;stroke:none" id="path89" d="m 0,0 v 23.801 h -8.027 v -7.934 h -7.934 V 7.934 h -7.934 V 0 h -7.933 V -8.027 H 3.106 l 0,8.027 z"/></g><g id="g91" transform="translate(133.7788,338.4443)" style="fill:#000;fill-opacity:1"><path style="fill:#000;fill-opacity:1;fill-rule:nonzero;stroke:none" id="path93" d="m 0,0 v 23.801 h -8.027 v -7.934 h -7.934 V 7.934 h -7.934 V 0 h -7.933 V -8.027 H 3.106 l 0,8.027 z"/></g></g></svg>